<ttFont>
<head>
    <!-- Most of this table will be recalculated by the compiler -->
    <tableVersion value="1.0"/>
    <fontRevision value="1.0"/>
    <checkSumAdjustment value="0x50fdfbf9"/>
    <magicNumber value="0x5f0f3cf5"/>
    <flags value="00000000 00001011"/>
    <unitsPerEm value="1024"/>
    <created value="Sat Feb 18 21:13:00 2012"/>
    <modified value="Sat Feb 18 15:18:58 2012"/>
    <xMin value="-164"/>
    <yMin value="-409"/>
    <xMax value="899"/>
    <yMax value="989"/>
    <macStyle value="00000000 00000000"/>
    <lowestRecPPEM value="9"/>
    <fontDirectionHint value="2"/>
    <indexToLocFormat value="0"/>
    <glyphDataFormat value="0"/>
  </head>
    <TTGlyph name="A" xMin="-126" yMin="-90" xMax="699" yMax="777">
      <contour>
        <pt x="113" y="231" on="1"/>
        <pt x="69" y="227" on="0"/>
        <pt x="-14" y="238" on="0"/>
        <pt x="-79" y="271" on="0"/>
        <pt x="-120" y="328" on="0"/>
        <pt x="-123" y="370" on="1"/>
        <pt x="-126" y="409" on="0"/>
        <pt x="-95" y="463" on="0"/>
        <pt x="-47" y="491" on="0"/>
        <pt x="12" y="496" on="0"/>
        <pt x="63" y="477" on="0"/>
        <pt x="99" y="434" on="0"/>
        <pt x="101" y="402" on="1"/>
        <pt x="104" y="356" on="0"/>
        <pt x="60" y="316" on="0"/>
        <pt x="29" y="315" on="1"/>
        <pt x="-2" y="314" on="0"/>
        <pt x="-47" y="342" on="0"/>
        <pt x="-49" y="374" on="1"/>
        <pt x="-50" y="390" on="0"/>
        <pt x="-41" y="413" on="0"/>
        <pt x="-28" y="428" on="0"/>
        <pt x="-10" y="435" on="0"/>
        <pt x="-2" y="435" on="1"/>
        <pt x="15" y="436" on="0"/>
        <pt x="36" y="419" on="0"/>
        <pt x="38" y="402" on="1"/>
        <pt x="39" y="386" on="0"/>
        <pt x="19" y="373" on="0"/>
        <pt x="6" y="378" on="1"/>
        <pt x="-3" y="381" on="0"/>
        <pt x="-6" y="403" on="0"/>
        <pt x="-1" y="412" on="1"/>
        <pt x="-10" y="410" on="0"/>
        <pt x="-22" y="396" on="0"/>
        <pt x="-22" y="382" on="1"/>
        <pt x="-22" y="364" on="0"/>
        <pt x="-2" y="339" on="0"/>
        <pt x="26" y="341" on="1"/>
        <pt x="40" y="341" on="0"/>
        <pt x="57" y="355" on="0"/>
        <pt x="67" y="373" on="0"/>
        <pt x="70" y="392" on="0"/>
        <pt x="70" y="398" on="1"/>
        <pt x="70" y="404" on="0"/>
        <pt x="65" y="428" on="0"/>
        <pt x="48" y="451" on="0"/>
        <pt x="17" y="469" on="0"/>
        <pt x="-9" y="471" on="1"/>
        <pt x="-36" y="472" on="0"/>
        <pt x="-70" y="453" on="0"/>
        <pt x="-90" y="423" on="0"/>
        <pt x="-98" y="389" on="0"/>
        <pt x="-97" y="376" on="1"/>
        <pt x="-96" y="350" on="0"/>
        <pt x="-67" y="308" on="0"/>
        <pt x="-10" y="281" on="0"/>
        <pt x="75" y="271" on="0"/>
        <pt x="131" y="278" on="1"/>
        <pt x="146" y="316" on="0"/>
        <pt x="174" y="398" on="0"/>
        <pt x="198" y="478" on="0"/>
        <pt x="216" y="554" on="0"/>
        <pt x="220" y="586" on="1"/>
        <pt x="229" y="662" on="0"/>
        <pt x="181" y="749" on="0"/>
        <pt x="134" y="751" on="1"/>
        <pt x="138" y="777" on="1"/>
        <pt x="156" y="774" on="0"/>
        <pt x="223" y="766" on="0"/>
        <pt x="303" y="761" on="0"/>
        <pt x="383" y="762" on="0"/>
        <pt x="415" y="769" on="1"/>
        <pt x="416" y="753" on="1"/>
        <pt x="403" y="749" on="0"/>
        <pt x="381" y="741" on="0"/>
        <pt x="367" y="728" on="0"/>
        <pt x="361" y="707" on="0"/>
        <pt x="365" y="691" on="1"/>
        <pt x="369" y="674" on="0"/>
        <pt x="387" y="578" on="0"/>
        <pt x="413" y="448" on="0"/>
        <pt x="447" y="298" on="0"/>
        <pt x="467" y="229" on="1"/>
        <pt x="487" y="160" on="0"/>
        <pt x="528" y="54" on="0"/>
        <pt x="570" y="-13" on="0"/>
        <pt x="614" y="-38" on="0"/>
        <pt x="638" y="-27" on="1"/>
        <pt x="650" y="-20" on="0"/>
        <pt x="659" y="-8" on="1"/>
        <pt x="667" y="3" on="0"/>
        <pt x="679" y="37" on="0"/>
        <pt x="680" y="63" on="1"/>
        <pt x="695" y="66" on="1"/>
        <pt x="699" y="50" on="0"/>
        <pt x="695" y="1" on="0"/>
        <pt x="677" y="-47" on="0"/>
        <pt x="641" y="-84" on="0"/>
        <pt x="613" y="-87" on="1"/>
        <pt x="590" y="-90" on="0"/>
        <pt x="533" y="-80" on="0"/>
        <pt x="476" y="-32" on="0"/>
        <pt x="423" y="68" on="0"/>
        <pt x="404" y="155" on="1"/>
        <pt x="399" y="180" on="0"/>
        <pt x="389" y="229" on="0"/>
        <pt x="384" y="252" on="1"/>
        <pt x="355" y="250" on="0"/>
        <pt x="255" y="244" on="0"/>
        <pt x="201" y="240" on="1"/>
        <pt x="186" y="177" on="0"/>
        <pt x="178" y="128" on="1"/>
        <pt x="173" y="98" on="0"/>
        <pt x="174" y="60" on="0"/>
        <pt x="184" y="37" on="0"/>
        <pt x="207" y="23" on="0"/>
        <pt x="225" y="17" on="1"/>
        <pt x="224" y="-4" on="1"/>
        <pt x="207" y="0" on="0"/>
        <pt x="137" y="2" on="0"/>
        <pt x="58" y="-3" on="0"/>
        <pt x="-19" y="-16" on="0"/>
        <pt x="-41" y="-28" on="1"/>
        <pt x="-49" y="6" on="1"/>
        <pt x="-28" y="15" on="0"/>
        <pt x="1" y="22" on="0"/>
        <pt x="23" y="35" on="0"/>
        <pt x="43" y="62" on="0"/>
        <pt x="54" y="89" on="1"/>
        <pt x="63" y="109" on="0"/>
        <pt x="94" y="183" on="0"/>
        <pt x="114" y="231" on="1"/>
      </contour>
      <contour>
        <pt x="309" y="651" on="1"/>
        <pt x="301" y="619" on="0"/>
        <pt x="277" y="535" on="0"/>
        <pt x="251" y="440" on="0"/>
        <pt x="224" y="338" on="0"/>
        <pt x="212" y="289" on="1"/>
        <pt x="259" y="296" on="0"/>
        <pt x="342" y="304" on="0"/>
        <pt x="373" y="306" on="1"/>
        <pt x="350" y="414" on="0"/>
        <pt x="316" y="586" on="0"/>
      </contour>
    </TTGlyph>
    <TTGlyph name="AE" xMin="-87" yMin="-56" xMax="713" yMax="781">
      <contour>
        <pt x="705" y="-23" on="1"/>
        <pt x="675" y="-21" on="0"/>
        <pt x="598" y="-19" on="0"/>
        <pt x="514" y="-19" on="0"/>
        <pt x="429" y="-24" on="0"/>
        <pt x="353" y="-32" on="0"/>
        <pt x="290" y="-46" on="0"/>
        <pt x="270" y="-56" on="1"/>
        <pt x="265" y="-25" on="1"/>
        <pt x="278" y="-14" on="0"/>
        <pt x="298" y="16" on="0"/>
        <pt x="313" y="63" on="0"/>
        <pt x="323" y="132" on="0"/>
        <pt x="328" y="183" on="1"/>
        <pt x="331" y="234" on="0"/>
        <pt x="331" y="291" on="1"/>
        <pt x="310" y="288" on="0"/>
        <pt x="262" y="280" on="0"/>
        <pt x="214" y="271" on="0"/>
        <pt x="168" y="262" on="0"/>
        <pt x="150" y="258" on="1"/>
        <pt x="136" y="211" on="0"/>
        <pt x="116" y="127" on="0"/>
        <pt x="111" y="95" on="1"/>
        <pt x="107" y="72" on="0"/>
        <pt x="110" y="54" on="1"/>
        <pt x="112" y="38" on="0"/>
        <pt x="130" y="10" on="0"/>
        <pt x="151" y="7" on="1"/>
        <pt x="150" y="-16" on="1"/>
        <pt x="132" y="-15" on="0"/>
        <pt x="72" y="-16" on="0"/>
        <pt x="6" y="-22" on="0"/>
        <pt x="-57" y="-34" on="0"/>
        <pt x="-78" y="-43" on="1"/>
        <pt x="-87" y="-15" on="1"/>
        <pt x="-51" y="8" on="0"/>
        <pt x="32" y="145" on="0"/>
        <pt x="71" y="246" on="1"/>
        <pt x="90" y="296" on="0"/>
        <pt x="130" y="421" on="0"/>
        <pt x="163" y="541" on="0"/>
        <pt x="185" y="639" on="0"/>
        <pt x="186" y="662" on="1"/>
        <pt x="188" y="707" on="0"/>
        <pt x="162" y="741" on="0"/>
        <pt x="127" y="745" on="1"/>
        <pt x="131" y="768" on="1"/>
        <pt x="156" y="763" on="0"/>
        <pt x="249" y="751" on="0"/>
        <pt x="361" y="742" on="0"/>
        <pt x="482" y="737" on="0"/>
        <pt x="592" y="743" on="0"/>
        <pt x="679" y="762" on="0"/>
        <pt x="701" y="781" on="1"/>
        <pt x="688" y="730" on="0"/>
        <pt x="676" y="608" on="0"/>
        <pt x="684" y="530" on="1"/>
        <pt x="656" y="530" on="1"/>
        <pt x="656" y="560" on="0"/>
        <pt x="654" y="624" on="0"/>
        <pt x="628" y="674" on="0"/>
        <pt x="566" y="700" on="0"/>
        <pt x="506" y="693" on="1"/>
        <pt x="467" y="688" on="0"/>
        <pt x="424" y="674" on="0"/>
        <pt x="403" y="654" on="0"/>
        <pt x="397" y="629" on="0"/>
        <pt x="396" y="614" on="1"/>
        <pt x="395" y="604" on="0"/>
        <pt x="393" y="557" on="0"/>
        <pt x="391" y="490" on="0"/>
        <pt x="390" y="407" on="0"/>
        <pt x="392" y="361" on="1"/>
        <pt x="440" y="368" on="0"/>
        <pt x="496" y="391" on="0"/>
        <pt x="528" y="425" on="0"/>
        <pt x="544" y="471" on="0"/>
        <pt x="552" y="500" on="1"/>
        <pt x="578" y="500" on="1"/>
        <pt x="576" y="486" on="0"/>
        <pt x="571" y="439" on="0"/>
        <pt x="566" y="384" on="0"/>
        <pt x="562" y="324" on="0"/>
        <pt x="561" y="270" on="0"/>
        <pt x="562" y="226" on="0"/>
        <pt x="565" y="214" on="1"/>
        <pt x="540" y="208" on="1"/>
        <pt x="534" y="236" on="0"/>
        <pt x="506" y="273" on="0"/>
        <pt x="467" y="294" on="0"/>
        <pt x="420" y="302" on="0"/>
        <pt x="395" y="301" on="1"/>
        <pt x="397" y="272" on="0"/>
        <pt x="403" y="214" on="0"/>
        <pt x="408" y="185" on="1"/>
        <pt x="417" y="122" on="0"/>
        <pt x="444" y="56" on="0"/>
        <pt x="481" y="28" on="0"/>
        <pt x="527" y="27" on="0"/>
        <pt x="555" y="28" on="1"/>
        <pt x="580" y="29" on="0"/>
        <pt x="622" y="37" on="0"/>
        <pt x="655" y="74" on="0"/>
        <pt x="680" y="152" on="0"/>
        <pt x="689" y="222" on="1"/>
        <pt x="713" y="214" on="1"/>
        <pt x="707" y="181" on="0"/>
        <pt x="699" y="134" on="0"/>
        <pt x="696" y="85" on="0"/>
        <pt x="699" y="24" on="0"/>
      </contour>
      <contour>
        <pt x="171" y="332" on="1"/>
        <pt x="198" y="337" on="0"/>
        <pt x="275" y="348" on="0"/>
        <pt x="328" y="354" on="1"/>
        <pt x="326" y="401" on="0"/>
        <pt x="317" y="494" on="0"/>
        <pt x="305" y="579" on="0"/>
        <pt x="293" y="651" on="0"/>
        <pt x="287" y="677" on="1"/>
        <pt x="276" y="649" on="0"/>
        <pt x="249" y="572" on="0"/>
        <pt x="218" y="481" on="0"/>
        <pt x="186" y="381" on="0"/>
      </contour>
    </TTGlyph>
    <TTGlyph name="Aacute" xMin="-126" yMin="-90" xMax="699" yMax="974">
      <component glyphName="A" x="0" y="0" flags="0x204"/>
      <component glyphName="acute" x="41" y="205" flags="0x4"/>
    </TTGlyph>
    <TTGlyph name="Acircumflex" xMin="-126" yMin="-90" xMax="699" yMax="989">
      <component glyphName="A" x="0" y="0" flags="0x204"/>
      <component glyphName="circumflex" x="-30" y="225" flags="0x4"/>
    </TTGlyph>
    <TTGlyph name="Adieresis" xMin="-126" yMin="-90" xMax="699" yMax="913">
      <component glyphName="A" x="0" y="0" flags="0x204"/>
      <component glyphName="dieresis" x="-9" y="174" flags="0x4"/>
    </TTGlyph>
    <TTGlyph name="Agrave" xMin="-126" yMin="-90" xMax="699" yMax="984">
      <component glyphName="A" x="0" y="0" flags="0x204"/>
      <component glyphName="grave" x="-81" y="215" flags="0x4"/>
    </TTGlyph>
    <TTGlyph name="Aring" xMin="-126" yMin="-90" xMax="699" yMax="933">
      <contour>
        <pt x="309" y="651" on="1"/>
        <pt x="301" y="619" on="0"/>
        <pt x="277" y="535" on="0"/>
        <pt x="251" y="440" on="0"/>
        <pt x="224" y="338" on="0"/>
        <pt x="212" y="289" on="1"/>
        <pt x="259" y="296" on="0"/>
        <pt x="342" y="304" on="0"/>
        <pt x="373" y="306" on="1"/>
        <pt x="350" y="414" on="0"/>
        <pt x="316" y="586" on="0"/>
      </contour>
      <contour>
        <pt x="328" y="927" on="1"/>
        <pt x="343" y="921" on="0"/>
        <pt x="365" y="897" on="0"/>
        <pt x="377" y="868" on="0"/>
        <pt x="381" y="836" on="0"/>
        <pt x="379" y="823" on="1"/>
        <pt x="375" y="805" on="0"/>
        <pt x="355" y="771" on="0"/>
        <pt x="339" y="761" on="1"/>
        <pt x="360" y="762" on="0"/>
        <pt x="398" y="765" on="0"/>
        <pt x="415" y="769" on="1"/>
        <pt x="416" y="753" on="1"/>
        <pt x="403" y="749" on="0"/>
        <pt x="381" y="741" on="0"/>
        <pt x="367" y="728" on="0"/>
        <pt x="361" y="707" on="0"/>
        <pt x="365" y="691" on="1"/>
        <pt x="369" y="674" on="0"/>
        <pt x="387" y="578" on="0"/>
        <pt x="413" y="448" on="0"/>
        <pt x="447" y="298" on="0"/>
        <pt x="467" y="229" on="1"/>
        <pt x="487" y="160" on="0"/>
        <pt x="528" y="54" on="0"/>
        <pt x="570" y="-13" on="0"/>
        <pt x="614" y="-38" on="0"/>
        <pt x="638" y="-27" on="1"/>
        <pt x="650" y="-20" on="0"/>
        <pt x="659" y="-8" on="1"/>
        <pt x="667" y="3" on="0"/>
        <pt x="679" y="37" on="0"/>
        <pt x="680" y="63" on="1"/>
        <pt x="695" y="66" on="1"/>
        <pt x="699" y="50" on="0"/>
        <pt x="695" y="1" on="0"/>
        <pt x="677" y="-47" on="0"/>
        <pt x="641" y="-84" on="0"/>
        <pt x="613" y="-87" on="1"/>
        <pt x="590" y="-90" on="0"/>
        <pt x="533" y="-80" on="0"/>
        <pt x="476" y="-32" on="0"/>
        <pt x="424" y="68" on="0"/>
        <pt x="406" y="155" on="1"/>
        <pt x="384" y="252" on="1"/>
        <pt x="355" y="250" on="0"/>
        <pt x="255" y="244" on="0"/>
        <pt x="201" y="240" on="1"/>
        <pt x="186" y="177" on="0"/>
        <pt x="178" y="128" on="1"/>
        <pt x="173" y="98" on="0"/>
        <pt x="174" y="60" on="0"/>
        <pt x="184" y="37" on="0"/>
        <pt x="207" y="23" on="0"/>
        <pt x="225" y="17" on="1"/>
        <pt x="224" y="-4" on="1"/>
        <pt x="207" y="0" on="0"/>
        <pt x="137" y="2" on="0"/>
        <pt x="58" y="-3" on="0"/>
        <pt x="-19" y="-16" on="0"/>
        <pt x="-41" y="-28" on="1"/>
        <pt x="-49" y="6" on="1"/>
        <pt x="-28" y="15" on="0"/>
        <pt x="1" y="22" on="0"/>
        <pt x="23" y="35" on="0"/>
        <pt x="43" y="62" on="0"/>
        <pt x="54" y="89" on="1"/>
        <pt x="63" y="109" on="0"/>
        <pt x="94" y="183" on="0"/>
        <pt x="114" y="231" on="1"/>
        <pt x="113" y="231" on="1"/>
        <pt x="69" y="227" on="0"/>
        <pt x="-14" y="239" on="0"/>
        <pt x="-79" y="272" on="0"/>
        <pt x="-120" y="328" on="0"/>
        <pt x="-123" y="370" on="1"/>
        <pt x="-126" y="409" on="0"/>
        <pt x="-95" y="463" on="0"/>
        <pt x="-47" y="491" on="0"/>
        <pt x="12" y="496" on="0"/>
        <pt x="64" y="477" on="0"/>
        <pt x="100" y="435" on="0"/>
        <pt x="102" y="403" on="1"/>
        <pt x="104" y="356" on="0"/>
        <pt x="60" y="316" on="0"/>
        <pt x="29" y="315" on="1"/>
        <pt x="-2" y="314" on="0"/>
        <pt x="-47" y="342" on="0"/>
        <pt x="-49" y="374" on="1"/>
        <pt x="-50" y="390" on="0"/>
        <pt x="-41" y="413" on="0"/>
        <pt x="-28" y="428" on="0"/>
        <pt x="-10" y="435" on="0"/>
        <pt x="-2" y="435" on="1"/>
        <pt x="15" y="436" on="0"/>
        <pt x="36" y="419" on="0"/>
        <pt x="38" y="402" on="1"/>
        <pt x="39" y="386" on="0"/>
        <pt x="19" y="373" on="0"/>
        <pt x="6" y="378" on="1"/>
        <pt x="-3" y="381" on="0"/>
        <pt x="-6" y="403" on="0"/>
        <pt x="-1" y="412" on="1"/>
        <pt x="-10" y="410" on="0"/>
        <pt x="-22" y="396" on="0"/>
        <pt x="-22" y="382" on="1"/>
        <pt x="-22" y="364" on="0"/>
        <pt x="-2" y="339" on="0"/>
        <pt x="26" y="341" on="1"/>
        <pt x="40" y="341" on="0"/>
        <pt x="57" y="355" on="0"/>
        <pt x="67" y="373" on="0"/>
        <pt x="70" y="392" on="0"/>
        <pt x="70" y="398" on="1"/>
        <pt x="70" y="404" on="0"/>
        <pt x="65" y="428" on="0"/>
        <pt x="48" y="451" on="0"/>
        <pt x="17" y="469" on="0"/>
        <pt x="-9" y="471" on="1"/>
        <pt x="-36" y="472" on="0"/>
        <pt x="-70" y="452" on="0"/>
        <pt x="-90" y="422" on="0"/>
        <pt x="-98" y="388" on="0"/>
        <pt x="-97" y="376" on="1"/>
        <pt x="-96" y="350" on="0"/>
        <pt x="-67" y="308" on="0"/>
        <pt x="-10" y="281" on="0"/>
        <pt x="75" y="271" on="0"/>
        <pt x="131" y="278" on="1"/>
        <pt x="146" y="316" on="0"/>
        <pt x="174" y="398" on="0"/>
        <pt x="198" y="478" on="0"/>
        <pt x="216" y="554" on="0"/>
        <pt x="220" y="586" on="1"/>
        <pt x="229" y="662" on="0"/>
        <pt x="181" y="749" on="0"/>
        <pt x="134" y="751" on="1"/>
        <pt x="138" y="777" on="1"/>
        <pt x="156" y="775" on="0"/>
        <pt x="218" y="767" on="0"/>
        <pt x="255" y="764" on="1"/>
        <pt x="232" y="776" on="0"/>
        <pt x="210" y="825" on="0"/>
        <pt x="220" y="860" on="1"/>
        <pt x="224" y="876" on="0"/>
        <pt x="246" y="906" on="0"/>
        <pt x="276" y="926" on="0"/>
        <pt x="311" y="933" on="0"/>
      </contour>
      <contour>
        <pt x="339" y="835" on="1"/>
        <pt x="342" y="850" on="0"/>
        <pt x="331" y="888" on="0"/>
        <pt x="312" y="891" on="1"/>
        <pt x="300" y="893" on="0"/>
        <pt x="282" y="886" on="0"/>
        <pt x="269" y="872" on="0"/>
        <pt x="261" y="856" on="0"/>
        <pt x="260" y="849" on="1"/>
        <pt x="256" y="834" on="0"/>
        <pt x="270" y="797" on="0"/>
        <pt x="284" y="793" on="1"/>
        <pt x="300" y="787" on="0"/>
        <pt x="334" y="814" on="0"/>
      </contour>
    </TTGlyph>
    <TTGlyph name="Atilde" xMin="-126" yMin="-90" xMax="699" yMax="904">
      <component glyphName="A" x="0" y="0" flags="0x204"/>
      <component glyphName="tilde" x="-19" y="184" flags="0x4"/>
    </TTGlyph>
    <TTGlyph name="B" xMin="-144" yMin="-43" xMax="549" yMax="769">
      <contour>
        <pt x="-42" y="419" on="1"/>
        <pt x="-72" y="419" on="0"/>
        <pt x="-111" y="442" on="0"/>
        <pt x="-133" y="474" on="0"/>
        <pt x="-143" y="510" on="0"/>
        <pt x="-143" y="523" on="1"/>
        <pt x="-144" y="559" on="0"/>
        <pt x="-103" y="644" on="0"/>
        <pt x="-9" y="719" on="0"/>
        <pt x="142" y="769" on="0"/>
        <pt x="251" y="769" on="1"/>
        <pt x="279" y="769" on="0"/>
        <pt x="367" y="753" on="0"/>
        <pt x="451" y="711" on="0"/>
        <pt x="511" y="636" on="0"/>
        <pt x="510" y="578" on="1"/>
        <pt x="510" y="539" on="0"/>
        <pt x="484" y="476" on="0"/>
        <pt x="441" y="428" on="0"/>
        <pt x="381" y="397" on="0"/>
        <pt x="347" y="390" on="1"/>
        <pt x="380" y="387" on="0"/>
        <pt x="450" y="362" on="0"/>
        <pt x="509" y="316" on="0"/>
        <pt x="547" y="250" on="0"/>
        <pt x="548" y="205" on="1"/>
        <pt x="549" y="142" on="0"/>
        <pt x="488" y="35" on="0"/>
        <pt x="363" y="-29" on="0"/>
        <pt x="176" y="-43" on="0"/>
        <pt x="50" y="-13" on="1"/>
        <pt x="60" y="5" on="0"/>
        <pt x="75" y="37" on="0"/>
        <pt x="85" y="72" on="0"/>
        <pt x="92" y="112" on="0"/>
        <pt x="95" y="137" on="1"/>
        <pt x="97" y="154" on="0"/>
        <pt x="104" y="216" on="0"/>
        <pt x="112" y="296" on="0"/>
        <pt x="120" y="390" on="0"/>
        <pt x="125" y="487" on="0"/>
        <pt x="126" y="583" on="0"/>
        <pt x="124" y="626" on="1"/>
        <pt x="122" y="659" on="0"/>
        <pt x="120" y="702" on="0"/>
        <pt x="118" y="716" on="1"/>
        <pt x="63" y="708" on="0"/>
        <pt x="-22" y="667" on="0"/>
        <pt x="-80" y="610" on="0"/>
        <pt x="-109" y="541" on="0"/>
        <pt x="-106" y="505" on="1"/>
        <pt x="-103" y="470" on="0"/>
        <pt x="-48" y="437" on="0"/>
        <pt x="-12" y="442" on="1"/>
        <pt x="6" y="445" on="0"/>
        <pt x="32" y="466" on="0"/>
        <pt x="48" y="494" on="0"/>
        <pt x="53" y="528" on="0"/>
        <pt x="50" y="544" on="1"/>
        <pt x="47" y="560" on="0"/>
        <pt x="29" y="576" on="0"/>
        <pt x="7" y="581" on="0"/>
        <pt x="-16" y="577" on="0"/>
        <pt x="-24" y="572" on="1"/>
        <pt x="-30" y="568" on="0"/>
        <pt x="-40" y="553" on="0"/>
        <pt x="-44" y="535" on="0"/>
        <pt x="-38" y="516" on="0"/>
        <pt x="-27" y="510" on="1"/>
        <pt x="-26" y="522" on="0"/>
        <pt x="-10" y="539" on="0"/>
        <pt x="2" y="535" on="1"/>
        <pt x="9" y="532" on="0"/>
        <pt x="15" y="517" on="0"/>
        <pt x="11" y="500" on="0"/>
        <pt x="-3" y="486" on="0"/>
        <pt x="-16" y="485" on="1"/>
        <pt x="-25" y="484" on="0"/>
        <pt x="-45" y="490" on="0"/>
        <pt x="-62" y="504" on="0"/>
        <pt x="-73" y="527" on="0"/>
        <pt x="-72" y="544" on="1"/>
        <pt x="-71" y="559" on="0"/>
        <pt x="-55" y="583" on="0"/>
        <pt x="-31" y="599" on="0"/>
        <pt x="-1" y="607" on="0"/>
        <pt x="14" y="606" on="1"/>
        <pt x="80" y="603" on="0"/>
        <pt x="81" y="526" on="1"/>
        <pt x="81" y="507" on="0"/>
        <pt x="66" y="469" on="0"/>
        <pt x="34" y="438" on="0"/>
        <pt x="-12" y="419" on="0"/>
      </contour>
      <contour>
        <pt x="205" y="722" on="1"/>
        <pt x="203" y="690" on="0"/>
        <pt x="192" y="611" on="0"/>
        <pt x="182" y="523" on="0"/>
        <pt x="175" y="430" on="0"/>
        <pt x="177" y="384" on="1"/>
        <pt x="221" y="378" on="0"/>
        <pt x="308" y="412" on="0"/>
        <pt x="378" y="476" on="0"/>
        <pt x="421" y="561" on="0"/>
        <pt x="421" y="606" on="1"/>
        <pt x="421" y="641" on="0"/>
        <pt x="377" y="693" on="0"/>
        <pt x="311" y="723" on="0"/>
        <pt x="236" y="731" on="0"/>
      </contour>
      <contour>
        <pt x="178" y="337" on="1"/>
        <pt x="179" y="306" on="0"/>
        <pt x="177" y="230" on="0"/>
        <pt x="172" y="150" on="0"/>
        <pt x="166" y="69" on="0"/>
        <pt x="163" y="33" on="1"/>
        <pt x="203" y="19" on="0"/>
        <pt x="301" y="25" on="0"/>
        <pt x="386" y="66" on="0"/>
        <pt x="442" y="144" on="0"/>
        <pt x="440" y="203" on="1"/>
        <pt x="438" y="242" on="0"/>
        <pt x="410" y="294" on="0"/>
        <pt x="365" y="327" on="0"/>
        <pt x="310" y="343" on="0"/>
        <pt x="252" y="347" on="0"/>
        <pt x="198" y="342" on="0"/>
      </contour>
    </TTGlyph>
    <TTGlyph name="C" xMin="12" yMin="-74" xMax="612" yMax="767">
      <contour>
        <pt x="296" y="-72" on="1"/>
        <pt x="240" y="-70" on="0"/>
        <pt x="135" y="-13" on="0"/>
        <pt x="56" y="94" on="0"/>
        <pt x="12" y="250" on="0"/>
        <pt x="16" y="352" on="1"/>
        <pt x="20" y="454" on="0"/>
        <pt x="85" y="612" on="0"/>
        <pt x="181" y="717" on="0"/>
        <pt x="296" y="767" on="0"/>
        <pt x="352" y="761" on="1"/>
        <pt x="386" y="757" on="0"/>
        <pt x="438" y="727" on="0"/>
        <pt x="476" y="684" on="0"/>
        <pt x="502" y="635" on="0"/>
        <pt x="510" y="612" on="1"/>
        <pt x="516" y="606" on="0"/>
        <pt x="523" y="606" on="1"/>
        <pt x="542" y="605" on="0"/>
        <pt x="573" y="664" on="0"/>
        <pt x="584" y="732" on="1"/>
        <pt x="612" y="729" on="1"/>
        <pt x="603" y="695" on="0"/>
        <pt x="582" y="606" on="0"/>
        <pt x="565" y="512" on="0"/>
        <pt x="554" y="420" on="0"/>
        <pt x="556" y="383" on="1"/>
        <pt x="541" y="389" on="0"/>
        <pt x="515" y="394" on="0"/>
        <pt x="504" y="395" on="1"/>
        <pt x="492" y="396" on="0"/>
        <pt x="482" y="395" on="1"/>
        <pt x="484" y="457" on="0"/>
        <pt x="473" y="571" on="0"/>
        <pt x="443" y="658" on="0"/>
        <pt x="394" y="712" on="0"/>
        <pt x="358" y="715" on="1"/>
        <pt x="326" y="718" on="0"/>
        <pt x="252" y="685" on="0"/>
        <pt x="186" y="600" on="0"/>
        <pt x="138" y="458" on="0"/>
        <pt x="132" y="352" on="1"/>
        <pt x="129" y="296" on="0"/>
        <pt x="143" y="172" on="0"/>
        <pt x="185" y="67" on="0"/>
        <pt x="257" y="-2" on="0"/>
        <pt x="312" y="-1" on="1"/>
        <pt x="354" y="2" on="0"/>
        <pt x="390" y="21" on="1"/>
        <pt x="421" y="38" on="0"/>
        <pt x="481" y="106" on="0"/>
        <pt x="494" y="170" on="1"/>
        <pt x="527" y="150" on="1"/>
        <pt x="519" y="124" on="0"/>
        <pt x="487" y="47" on="0"/>
        <pt x="432" y="-25" on="0"/>
        <pt x="351" y="-74" on="0"/>
      </contour>
    </TTGlyph>
    <TTGlyph name="Ccedilla" xMin="12" yMin="-284" xMax="612" yMax="767">
      <contour>
        <pt x="326" y="-122" on="1"/>
        <pt x="341" y="-121" on="0"/>
        <pt x="368" y="-122" on="0"/>
        <pt x="389" y="-132" on="0"/>
        <pt x="403" y="-154" on="0"/>
        <pt x="406" y="-174" on="1"/>
        <pt x="408" y="-194" on="0"/>
        <pt x="394" y="-234" on="0"/>
        <pt x="369" y="-266" on="0"/>
        <pt x="334" y="-284" on="0"/>
        <pt x="315" y="-283" on="1"/>
        <pt x="277" y="-280" on="0"/>
        <pt x="240" y="-234" on="0"/>
        <pt x="234" y="-205" on="1"/>
        <pt x="253" y="-222" on="0"/>
        <pt x="296" y="-242" on="0"/>
        <pt x="316" y="-237" on="1"/>
        <pt x="329" y="-233" on="0"/>
        <pt x="352" y="-204" on="0"/>
        <pt x="358" y="-172" on="0"/>
        <pt x="340" y="-149" on="0"/>
        <pt x="312" y="-152" on="1"/>
        <pt x="286" y="-154" on="0"/>
        <pt x="257" y="-144" on="0"/>
        <pt x="245" y="-121" on="0"/>
        <pt x="246" y="-87" on="0"/>
        <pt x="250" y="-66" on="1"/>
        <pt x="201" y="-54" on="0"/>
        <pt x="113" y="11" on="0"/>
        <pt x="48" y="116" on="0"/>
        <pt x="12" y="261" on="0"/>
        <pt x="16" y="352" on="1"/>
        <pt x="20" y="454" on="0"/>
        <pt x="85" y="612" on="0"/>
        <pt x="181" y="717" on="0"/>
        <pt x="296" y="767" on="0"/>
        <pt x="352" y="761" on="1"/>
        <pt x="386" y="757" on="0"/>
        <pt x="438" y="727" on="0"/>
        <pt x="476" y="684" on="0"/>
        <pt x="502" y="634" on="0"/>
        <pt x="510" y="612" on="1"/>
        <pt x="516" y="606" on="0"/>
        <pt x="523" y="606" on="1"/>
        <pt x="542" y="605" on="0"/>
        <pt x="573" y="664" on="0"/>
        <pt x="584" y="732" on="1"/>
        <pt x="612" y="729" on="1"/>
        <pt x="603" y="695" on="0"/>
        <pt x="582" y="606" on="0"/>
        <pt x="565" y="512" on="0"/>
        <pt x="555" y="420" on="0"/>
        <pt x="557" y="383" on="1"/>
        <pt x="542" y="389" on="0"/>
        <pt x="515" y="394" on="0"/>
        <pt x="504" y="395" on="1"/>
        <pt x="492" y="396" on="0"/>
        <pt x="482" y="395" on="1"/>
        <pt x="484" y="457" on="0"/>
        <pt x="473" y="571" on="0"/>
        <pt x="443" y="658" on="0"/>
        <pt x="394" y="712" on="0"/>
        <pt x="358" y="715" on="1"/>
        <pt x="326" y="718" on="0"/>
        <pt x="252" y="685" on="0"/>
        <pt x="186" y="600" on="0"/>
        <pt x="138" y="458" on="0"/>
        <pt x="132" y="352" on="1"/>
        <pt x="129" y="296" on="0"/>
        <pt x="143" y="172" on="0"/>
        <pt x="185" y="67" on="0"/>
        <pt x="257" y="-2" on="0"/>
        <pt x="312" y="-1" on="1"/>
        <pt x="354" y="2" on="0"/>
        <pt x="390" y="21" on="1"/>
        <pt x="421" y="38" on="0"/>
        <pt x="481" y="106" on="0"/>
        <pt x="494" y="170" on="1"/>
        <pt x="527" y="150" on="1"/>
        <pt x="519" y="124" on="0"/>
        <pt x="488" y="49" on="0"/>
        <pt x="435" y="-22" on="0"/>
        <pt x="358" y="-72" on="0"/>
        <pt x="304" y="-72" on="1"/>
        <pt x="297" y="-91" on="0"/>
        <pt x="300" y="-124" on="0"/>
      </contour>
    </TTGlyph>
    <TTGlyph name="D" xMin="-102" yMin="-83" xMax="581" yMax="736">
      <contour>
        <pt x="11" y="422" on="1"/>
        <pt x="-12" y="421" on="0"/>
        <pt x="-54" y="438" on="0"/>
        <pt x="-85" y="470" on="0"/>
        <pt x="-102" y="517" on="0"/>
        <pt x="-102" y="546" on="1"/>
        <pt x="-102" y="583" on="0"/>
        <pt x="-56" y="652" on="0"/>
        <pt x="26" y="705" on="0"/>
        <pt x="143" y="736" on="0"/>
        <pt x="214" y="736" on="1"/>
        <pt x="276" y="736" on="0"/>
        <pt x="404" y="706" on="0"/>
        <pt x="510" y="625" on="0"/>
        <pt x="578" y="481" on="0"/>
        <pt x="580" y="367" on="1"/>
        <pt x="581" y="252" on="0"/>
        <pt x="509" y="74" on="0"/>
        <pt x="371" y="-40" on="0"/>
        <pt x="175" y="-83" on="0"/>
        <pt x="53" y="-62" on="1"/>
        <pt x="53" y="-36" on="1"/>
        <pt x="70" y="-39" on="0"/>
        <pt x="101" y="-39" on="0"/>
        <pt x="125" y="-21" on="0"/>
        <pt x="140" y="20" on="0"/>
        <pt x="141" y="57" on="1"/>
        <pt x="142" y="79" on="0"/>
        <pt x="145" y="170" on="0"/>
        <pt x="148" y="285" on="0"/>
        <pt x="150" y="415" on="0"/>
        <pt x="147" y="538" on="0"/>
        <pt x="141" y="644" on="0"/>
        <pt x="134" y="678" on="1"/>
        <pt x="106" y="679" on="0"/>
        <pt x="35" y="664" on="0"/>
        <pt x="-28" y="628" on="0"/>
        <pt x="-71" y="572" on="0"/>
        <pt x="-71" y="534" on="1"/>
        <pt x="-71" y="514" on="0"/>
        <pt x="-56" y="483" on="0"/>
        <pt x="-30" y="462" on="0"/>
        <pt x="1" y="451" on="0"/>
        <pt x="17" y="452" on="1"/>
        <pt x="46" y="454" on="0"/>
        <pt x="81" y="494" on="0"/>
        <pt x="79" y="520" on="1"/>
        <pt x="78" y="533" on="0"/>
        <pt x="66" y="559" on="0"/>
        <pt x="48" y="578" on="0"/>
        <pt x="25" y="587" on="0"/>
        <pt x="12" y="584" on="1"/>
        <pt x="-8" y="579" on="0"/>
        <pt x="-15" y="550" on="0"/>
        <pt x="-13" y="539" on="1"/>
        <pt x="-11" y="527" on="0"/>
        <pt x="9" y="513" on="0"/>
        <pt x="22" y="518" on="1"/>
        <pt x="9" y="523" on="0"/>
        <pt x="7" y="550" on="0"/>
        <pt x="17" y="554" on="1"/>
        <pt x="31" y="559" on="0"/>
        <pt x="49" y="543" on="0"/>
        <pt x="50" y="519" on="0"/>
        <pt x="30" y="497" on="0"/>
        <pt x="6" y="495" on="1"/>
        <pt x="-11" y="493" on="0"/>
        <pt x="-34" y="523" on="0"/>
        <pt x="-35" y="544" on="1"/>
        <pt x="-36" y="564" on="0"/>
        <pt x="-9" y="602" on="0"/>
        <pt x="18" y="605" on="1"/>
        <pt x="32" y="606" on="0"/>
        <pt x="61" y="595" on="0"/>
        <pt x="85" y="572" on="0"/>
        <pt x="101" y="540" on="0"/>
        <pt x="103" y="522" on="1"/>
        <pt x="105" y="504" on="0"/>
        <pt x="95" y="469" on="0"/>
        <pt x="71" y="441" on="0"/>
        <pt x="35" y="423" on="0"/>
      </contour>
      <contour>
        <pt x="233" y="689" on="1"/>
        <pt x="228" y="647" on="0"/>
        <pt x="221" y="515" on="0"/>
        <pt x="219" y="370" on="0"/>
        <pt x="220" y="228" on="0"/>
        <pt x="222" y="177" on="1"/>
        <pt x="223" y="136" on="0"/>
        <pt x="227" y="75" on="0"/>
        <pt x="233" y="31" on="0"/>
        <pt x="241" y="2" on="0"/>
        <pt x="248" y="-7" on="1"/>
        <pt x="309" y="6" on="0"/>
        <pt x="409" y="81" on="0"/>
        <pt x="477" y="196" on="0"/>
        <pt x="508" y="348" on="0"/>
        <pt x="501" y="437" on="1"/>
        <pt x="494" y="521" on="0"/>
        <pt x="436" y="621" on="0"/>
        <pt x="357" y="675" on="0"/>
        <pt x="269" y="690" on="0"/>
      </contour>
    </TTGlyph>
    <TTGlyph name="E" xMin="-164" yMin="-27" xMax="578" yMax="752">
      <contour>
        <pt x="-31" y="453" on="1"/>
        <pt x="-100" y="454" on="0"/>
        <pt x="-164" y="536" on="0"/>
        <pt x="-158" y="597" on="1"/>
        <pt x="-155" y="627" on="0"/>
        <pt x="-118" y="687" on="0"/>
        <pt x="-46" y="731" on="0"/>
        <pt x="65" y="751" on="0"/>
        <pt x="142" y="742" on="1"/>
        <pt x="159" y="740" on="0"/>
        <pt x="237" y="735" on="0"/>
        <pt x="342" y="734" on="0"/>
        <pt x="467" y="741" on="0"/>
        <pt x="530" y="752" on="1"/>
        <pt x="530" y="731" on="0"/>
        <pt x="529" y="665" on="0"/>
        <pt x="529" y="595" on="0"/>
        <pt x="533" y="530" on="0"/>
        <pt x="539" y="511" on="1"/>
        <pt x="509" y="507" on="1"/>
        <pt x="509" y="559" on="0"/>
        <pt x="486" y="637" on="0"/>
        <pt x="425" y="684" on="0"/>
        <pt x="314" y="698" on="0"/>
        <pt x="225" y="687" on="1"/>
        <pt x="216" y="633" on="0"/>
        <pt x="205" y="494" on="0"/>
        <pt x="205" y="403" on="1"/>
        <pt x="281" y="386" on="0"/>
        <pt x="362" y="443" on="0"/>
        <pt x="370" y="519" on="1"/>
        <pt x="394" y="515" on="1"/>
        <pt x="390" y="494" on="0"/>
        <pt x="382" y="428" on="0"/>
        <pt x="379" y="352" on="0"/>
        <pt x="383" y="273" on="0"/>
        <pt x="391" y="239" on="1"/>
        <pt x="371" y="231" on="1"/>
        <pt x="364" y="262" on="0"/>
        <pt x="348" y="315" on="0"/>
        <pt x="315" y="348" on="0"/>
        <pt x="256" y="357" on="0"/>
        <pt x="205" y="344" on="1"/>
        <pt x="207" y="294" on="0"/>
        <pt x="213" y="183" on="0"/>
        <pt x="218" y="120" on="1"/>
        <pt x="223" y="110" on="0"/>
        <pt x="240" y="91" on="0"/>
        <pt x="274" y="76" on="0"/>
        <pt x="328" y="67" on="0"/>
        <pt x="369" y="67" on="1"/>
        <pt x="426" y="66" on="0"/>
        <pt x="497" y="101" on="0"/>
        <pt x="536" y="149" on="0"/>
        <pt x="549" y="202" on="0"/>
        <pt x="549" y="219" on="1"/>
        <pt x="578" y="216" on="1"/>
        <pt x="565" y="10" on="1"/>
        <pt x="543" y="10" on="0"/>
        <pt x="469" y="9" on="0"/>
        <pt x="378" y="6" on="0"/>
        <pt x="275" y="1" on="0"/>
        <pt x="174" y="-7" on="0"/>
        <pt x="81" y="-19" on="0"/>
        <pt x="45" y="-27" on="1"/>
        <pt x="39" y="-7" on="1"/>
        <pt x="59" y="1" on="0"/>
        <pt x="93" y="24" on="0"/>
        <pt x="116" y="70" on="0"/>
        <pt x="128" y="151" on="0"/>
        <pt x="127" y="218" on="1"/>
        <pt x="126" y="278" on="0"/>
        <pt x="123" y="418" on="0"/>
        <pt x="119" y="551" on="0"/>
        <pt x="115" y="666" on="0"/>
        <pt x="114" y="701" on="1"/>
        <pt x="84" y="711" on="0"/>
        <pt x="0" y="710" on="0"/>
        <pt x="-75" y="681" on="0"/>
        <pt x="-128" y="622" on="0"/>
        <pt x="-128" y="575" on="1"/>
        <pt x="-128" y="548" on="0"/>
        <pt x="-108" y="508" on="0"/>
        <pt x="-76" y="483" on="0"/>
        <pt x="-35" y="472" on="0"/>
        <pt x="-13" y="474" on="1"/>
        <pt x="9" y="475" on="0"/>
        <pt x="43" y="493" on="0"/>
        <pt x="65" y="520" on="0"/>
        <pt x="75" y="554" on="0"/>
        <pt x="72" y="571" on="1"/>
        <pt x="67" y="604" on="0"/>
        <pt x="15" y="638" on="0"/>
        <pt x="-19" y="624" on="1"/>
        <pt x="-33" y="618" on="0"/>
        <pt x="-57" y="590" on="0"/>
        <pt x="-55" y="569" on="1"/>
        <pt x="-54" y="558" on="0"/>
        <pt x="-40" y="541" on="0"/>
        <pt x="-21" y="535" on="0"/>
        <pt x="0" y="540" on="0"/>
        <pt x="9" y="550" on="1"/>
        <pt x="0" y="550" on="0"/>
        <pt x="-13" y="560" on="0"/>
        <pt x="-13" y="570" on="1"/>
        <pt x="-13" y="576" on="0"/>
        <pt x="-5" y="587" on="0"/>
        <pt x="8" y="592" on="0"/>
        <pt x="23" y="589" on="0"/>
        <pt x="29" y="581" on="1"/>
        <pt x="35" y="573" on="0"/>
        <pt x="33" y="549" on="0"/>
        <pt x="18" y="528" on="0"/>
        <pt x="-9" y="515" on="0"/>
        <pt x="-28" y="517" on="1"/>
        <pt x="-51" y="520" on="0"/>
        <pt x="-75" y="553" on="0"/>
        <pt x="-76" y="575" on="1"/>
        <pt x="-78" y="600" on="0"/>
        <pt x="-39" y="649" on="0"/>
        <pt x="-2" y="652" on="1"/>
        <pt x="27" y="655" on="0"/>
        <pt x="64" y="635" on="0"/>
        <pt x="85" y="604" on="0"/>
        <pt x="92" y="567" on="0"/>
        <pt x="92" y="552" on="1"/>
        <pt x="92" y="538" on="0"/>
        <pt x="79" y="503" on="0"/>
        <pt x="50" y="473" on="0"/>
        <pt x="3" y="453" on="0"/>
      </contour>
    </TTGlyph>
    <TTGlyph name="Eacute" xMin="-164" yMin="-27" xMax="578" yMax="933">
      <component glyphName="E" x="0" y="0" flags="0x204"/>
      <component glyphName="acute" x="41" y="164" flags="0x4"/>
    </TTGlyph>
    <TTGlyph name="Ecircumflex" xMin="-164" yMin="-27" xMax="578" yMax="948">
      <component glyphName="E" x="0" y="0" flags="0x204"/>
      <component glyphName="circumflex" x="-9" y="184" flags="0x4"/>
    </TTGlyph>
    <TTGlyph name="Edieresis" xMin="-164" yMin="-27" xMax="578" yMax="882">
      <component glyphName="E" x="0" y="0" flags="0x204"/>
      <component glyphName="dieresis" x="0" y="143" flags="0x4"/>
    </TTGlyph>
    <TTGlyph name="Egrave" xMin="-164" yMin="-27" xMax="578" yMax="943">
      <component glyphName="E" x="0" y="0" flags="0x204"/>
      <component glyphName="grave" x="-30" y="174" flags="0x4"/>
    </TTGlyph>
    <TTGlyph name="Eth" xMin="-102" yMin="-83" xMax="581" yMax="736">
      <contour>
        <pt x="11" y="422" on="1"/>
        <pt x="-12" y="421" on="0"/>
        <pt x="-54" y="438" on="0"/>
        <pt x="-85" y="470" on="0"/>
        <pt x="-102" y="517" on="0"/>
        <pt x="-102" y="546" on="1"/>
        <pt x="-102" y="583" on="0"/>
        <pt x="-56" y="652" on="0"/>
        <pt x="26" y="705" on="0"/>
        <pt x="143" y="736" on="0"/>
        <pt x="214" y="736" on="1"/>
        <pt x="276" y="736" on="0"/>
        <pt x="404" y="706" on="0"/>
        <pt x="510" y="625" on="0"/>
        <pt x="578" y="481" on="0"/>
        <pt x="580" y="367" on="1"/>
        <pt x="581" y="252" on="0"/>
        <pt x="509" y="74" on="0"/>
        <pt x="371" y="-40" on="0"/>
        <pt x="175" y="-83" on="0"/>
        <pt x="53" y="-62" on="1"/>
        <pt x="53" y="-36" on="1"/>
        <pt x="70" y="-39" on="0"/>
        <pt x="101" y="-39" on="0"/>
        <pt x="125" y="-21" on="0"/>
        <pt x="140" y="20" on="0"/>
        <pt x="141" y="57" on="1"/>
        <pt x="142" y="85" on="0"/>
        <pt x="146" y="208" on="0"/>
        <pt x="148" y="285" on="1"/>
        <pt x="131" y="281" on="0"/>
        <pt x="99" y="272" on="0"/>
        <pt x="85" y="267" on="1"/>
        <pt x="87" y="281" on="0"/>
        <pt x="89" y="320" on="0"/>
        <pt x="83" y="339" on="1"/>
        <pt x="94" y="337" on="0"/>
        <pt x="128" y="338" on="0"/>
        <pt x="148" y="340" on="1"/>
        <pt x="149" y="389" on="0"/>
        <pt x="149" y="487" on="0"/>
        <pt x="145" y="576" on="0"/>
        <pt x="139" y="652" on="0"/>
        <pt x="134" y="678" on="1"/>
        <pt x="106" y="679" on="0"/>
        <pt x="35" y="664" on="0"/>
        <pt x="-28" y="628" on="0"/>
        <pt x="-71" y="572" on="0"/>
        <pt x="-71" y="534" on="1"/>
        <pt x="-71" y="514" on="0"/>
        <pt x="-56" y="483" on="0"/>
        <pt x="-30" y="462" on="0"/>
        <pt x="1" y="451" on="0"/>
        <pt x="17" y="452" on="1"/>
        <pt x="46" y="454" on="0"/>
        <pt x="81" y="494" on="0"/>
        <pt x="79" y="520" on="1"/>
        <pt x="78" y="533" on="0"/>
        <pt x="66" y="559" on="0"/>
        <pt x="48" y="578" on="0"/>
        <pt x="25" y="587" on="0"/>
        <pt x="12" y="584" on="1"/>
        <pt x="-8" y="579" on="0"/>
        <pt x="-15" y="550" on="0"/>
        <pt x="-13" y="539" on="1"/>
        <pt x="-11" y="527" on="0"/>
        <pt x="9" y="513" on="0"/>
        <pt x="22" y="518" on="1"/>
        <pt x="9" y="523" on="0"/>
        <pt x="7" y="550" on="0"/>
        <pt x="17" y="554" on="1"/>
        <pt x="31" y="559" on="0"/>
        <pt x="49" y="543" on="0"/>
        <pt x="50" y="519" on="0"/>
        <pt x="30" y="497" on="0"/>
        <pt x="6" y="495" on="1"/>
        <pt x="-11" y="493" on="0"/>
        <pt x="-34" y="523" on="0"/>
        <pt x="-35" y="544" on="1"/>
        <pt x="-36" y="564" on="0"/>
        <pt x="-9" y="602" on="0"/>
        <pt x="18" y="605" on="1"/>
        <pt x="32" y="606" on="0"/>
        <pt x="61" y="595" on="0"/>
        <pt x="85" y="572" on="0"/>
        <pt x="101" y="540" on="0"/>
        <pt x="103" y="522" on="1"/>
        <pt x="105" y="504" on="0"/>
        <pt x="95" y="469" on="0"/>
        <pt x="71" y="441" on="0"/>
        <pt x="35" y="423" on="0"/>
      </contour>
      <contour>
        <pt x="233" y="689" on="1"/>
        <pt x="229" y="661" on="0"/>
        <pt x="224" y="582" on="0"/>
        <pt x="221" y="492" on="0"/>
        <pt x="219" y="394" on="0"/>
        <pt x="219" y="347" on="1"/>
        <pt x="255" y="351" on="0"/>
        <pt x="322" y="356" on="0"/>
        <pt x="346" y="354" on="1"/>
        <pt x="348" y="340" on="0"/>
        <pt x="347" y="310" on="0"/>
        <pt x="352" y="298" on="1"/>
        <pt x="320" y="300" on="0"/>
        <pt x="253" y="299" on="0"/>
        <pt x="219" y="295" on="1"/>
        <pt x="220" y="262" on="0"/>
        <pt x="220" y="203" on="0"/>
        <pt x="222" y="177" on="1"/>
        <pt x="224" y="111" on="0"/>
        <pt x="238" y="44" on="0"/>
        <pt x="249" y="28" on="1"/>
        <pt x="306" y="42" on="0"/>
        <pt x="403" y="113" on="0"/>
        <pt x="473" y="219" on="0"/>
        <pt x="507" y="356" on="0"/>
        <pt x="501" y="437" on="1"/>
        <pt x="494" y="521" on="0"/>
        <pt x="436" y="621" on="0"/>
        <pt x="357" y="675" on="0"/>
        <pt x="269" y="690" on="0"/>
      </contour>
    </TTGlyph>
    <TTGlyph name="Euro" xMin="-6" yMin="51" xMax="562" yMax="687">
      <contour>
        <pt x="374" y="108" on="1"/>
        <pt x="404" y="109" on="0"/>
        <pt x="434" y="117" on="1"/>
        <pt x="460" y="124" on="0"/>
        <pt x="519" y="153" on="0"/>
        <pt x="545" y="181" on="1"/>
        <pt x="562" y="161" on="1"/>
        <pt x="555" y="151" on="0"/>
        <pt x="518" y="113" on="0"/>
        <pt x="459" y="76" on="0"/>
        <pt x="380" y="51" on="0"/>
        <pt x="330" y="54" on="1"/>
        <pt x="284" y="57" on="0"/>
        <pt x="214" y="92" on="0"/>
        <pt x="164" y="148" on="0"/>
        <pt x="132" y="223" on="0"/>
        <pt x="125" y="267" on="1"/>
        <pt x="49" y="264" on="0"/>
        <pt x="2" y="245" on="1"/>
        <pt x="-3" y="254" on="0"/>
        <pt x="-6" y="274" on="0"/>
        <pt x="-5" y="282" on="1"/>
        <pt x="-4" y="292" on="0"/>
        <pt x="-1" y="301" on="1"/>
        <pt x="25" y="299" on="0"/>
        <pt x="82" y="297" on="0"/>
        <pt x="121" y="297" on="1"/>
        <pt x="118" y="321" on="0"/>
        <pt x="118" y="347" on="1"/>
        <pt x="118" y="358" on="0"/>
        <pt x="118" y="381" on="0"/>
        <pt x="120" y="392" on="1"/>
        <pt x="99" y="390" on="0"/>
        <pt x="79" y="389" on="1"/>
        <pt x="61" y="388" on="0"/>
        <pt x="20" y="386" on="0"/>
        <pt x="2" y="388" on="1"/>
        <pt x="-1" y="440" on="1"/>
        <pt x="23" y="438" on="0"/>
        <pt x="88" y="436" on="0"/>
        <pt x="126" y="436" on="1"/>
        <pt x="136" y="484" on="0"/>
        <pt x="178" y="570" on="0"/>
        <pt x="241" y="637" on="0"/>
        <pt x="324" y="680" on="0"/>
        <pt x="376" y="686" on="1"/>
        <pt x="404" y="687" on="0"/>
        <pt x="434" y="682" on="1"/>
        <pt x="460" y="677" on="0"/>
        <pt x="521" y="653" on="0"/>
        <pt x="550" y="628" on="1"/>
        <pt x="536" y="599" on="1"/>
        <pt x="459" y="647" on="0"/>
        <pt x="385" y="639" on="1"/>
        <pt x="357" y="636" on="0"/>
        <pt x="299" y="607" on="0"/>
        <pt x="249" y="556" on="0"/>
        <pt x="211" y="483" on="0"/>
        <pt x="202" y="437" on="1"/>
        <pt x="241" y="438" on="0"/>
        <pt x="321" y="441" on="0"/>
        <pt x="395" y="447" on="0"/>
        <pt x="460" y="454" on="0"/>
        <pt x="485" y="459" on="1"/>
        <pt x="467" y="394" on="1"/>
        <pt x="447" y="397" on="0"/>
        <pt x="382" y="401" on="0"/>
        <pt x="307" y="402" on="0"/>
        <pt x="229" y="401" on="0"/>
        <pt x="196" y="399" on="1"/>
        <pt x="196" y="396" on="0"/>
        <pt x="195" y="390" on="0"/>
        <pt x="195" y="388" on="1"/>
        <pt x="192" y="341" on="0"/>
        <pt x="195" y="299" on="1"/>
        <pt x="241" y="301" on="0"/>
        <pt x="362" y="308" on="0"/>
        <pt x="445" y="314" on="1"/>
        <pt x="429" y="265" on="1"/>
        <pt x="360" y="266" on="0"/>
        <pt x="246" y="268" on="0"/>
        <pt x="199" y="268" on="1"/>
        <pt x="210" y="195" on="0"/>
        <pt x="292" y="108" on="0"/>
      </contour>
    </TTGlyph>
    <TTGlyph name="F" xMin="-61" yMin="-26" xMax="495" yMax="764">
      <contour>
        <pt x="70" y="594" on="1"/>
        <pt x="67" y="660" on="0"/>
        <pt x="-7" y="731" on="0"/>
        <pt x="-61" y="738" on="1"/>
        <pt x="-56" y="764" on="1"/>
        <pt x="-30" y="752" on="0"/>
        <pt x="50" y="738" on="0"/>
        <pt x="147" y="731" on="0"/>
        <pt x="254" y="731" on="0"/>
        <pt x="359" y="736" on="0"/>
        <pt x="456" y="746" on="0"/>
        <pt x="495" y="753" on="1"/>
        <pt x="491" y="727" on="0"/>
        <pt x="482" y="661" on="0"/>
        <pt x="476" y="595" on="0"/>
        <pt x="476" y="534" on="0"/>
        <pt x="481" y="512" on="1"/>
        <pt x="461" y="509" on="1"/>
        <pt x="447" y="563" on="0"/>
        <pt x="408" y="640" on="0"/>
        <pt x="342" y="683" on="0"/>
        <pt x="242" y="689" on="0"/>
        <pt x="167" y="673" on="1"/>
        <pt x="162" y="593" on="0"/>
        <pt x="156" y="469" on="0"/>
        <pt x="156" y="410" on="1"/>
        <pt x="204" y="417" on="0"/>
        <pt x="265" y="439" on="0"/>
        <pt x="303" y="470" on="0"/>
        <pt x="324" y="513" on="0"/>
        <pt x="333" y="543" on="1"/>
        <pt x="358" y="538" on="1"/>
        <pt x="349" y="500" on="0"/>
        <pt x="343" y="436" on="0"/>
        <pt x="342" y="374" on="0"/>
        <pt x="346" y="311" on="0"/>
        <pt x="348" y="276" on="1"/>
        <pt x="327" y="280" on="1"/>
        <pt x="325" y="322" on="0"/>
        <pt x="291" y="365" on="0"/>
        <pt x="241" y="380" on="0"/>
        <pt x="183" y="374" on="0"/>
        <pt x="156" y="368" on="1"/>
        <pt x="157" y="319" on="0"/>
        <pt x="163" y="216" on="0"/>
        <pt x="169" y="152" on="1"/>
        <pt x="172" y="114" on="0"/>
        <pt x="189" y="64" on="0"/>
        <pt x="213" y="33" on="0"/>
        <pt x="242" y="18" on="0"/>
        <pt x="257" y="14" on="1"/>
        <pt x="257" y="-8" on="1"/>
        <pt x="243" y="-6" on="0"/>
        <pt x="178" y="-2" on="0"/>
        <pt x="102" y="-4" on="0"/>
        <pt x="25" y="-14" on="0"/>
        <pt x="-2" y="-26" on="1"/>
        <pt x="-9" y="-5" on="1"/>
        <pt x="16" y="6" on="0"/>
        <pt x="52" y="31" on="0"/>
        <pt x="76" y="66" on="0"/>
        <pt x="87" y="115" on="0"/>
        <pt x="87" y="150" on="1"/>
        <pt x="87" y="173" on="0"/>
        <pt x="85" y="245" on="0"/>
        <pt x="82" y="329" on="0"/>
        <pt x="78" y="419" on="0"/>
        <pt x="74" y="502" on="0"/>
        <pt x="71" y="572" on="0"/>
      </contour>
    </TTGlyph>
    <TTGlyph name="G" xMin="4" yMin="-63" xMax="608" yMax="772">
      <contour>
        <pt x="289" y="-62" on="1"/>
        <pt x="242" y="-61" on="0"/>
        <pt x="140" y="-11" on="0"/>
        <pt x="57" y="93" on="0"/>
        <pt x="4" y="255" on="0"/>
        <pt x="5" y="369" on="1"/>
        <pt x="6" y="471" on="0"/>
        <pt x="68" y="622" on="0"/>
        <pt x="161" y="722" on="0"/>
        <pt x="268" y="772" on="0"/>
        <pt x="314" y="772" on="1"/>
        <pt x="366" y="772" on="0"/>
        <pt x="436" y="741" on="0"/>
        <pt x="483" y="691" on="0"/>
        <pt x="512" y="628" on="0"/>
        <pt x="532" y="565" on="0"/>
        <pt x="548" y="506" on="0"/>
        <pt x="559" y="486" on="1"/>
        <pt x="536" y="486" on="0"/>
        <pt x="463" y="474" on="0"/>
        <pt x="416" y="451" on="1"/>
        <pt x="425" y="481" on="0"/>
        <pt x="440" y="548" on="0"/>
        <pt x="445" y="614" on="0"/>
        <pt x="437" y="673" on="0"/>
        <pt x="424" y="696" on="1"/>
        <pt x="417" y="708" on="0"/>
        <pt x="393" y="726" on="0"/>
        <pt x="363" y="738" on="0"/>
        <pt x="328" y="742" on="0"/>
        <pt x="312" y="739" on="1"/>
        <pt x="280" y="733" on="0"/>
        <pt x="215" y="687" on="0"/>
        <pt x="159" y="603" on="0"/>
        <pt x="115" y="481" on="0"/>
        <pt x="105" y="399" on="1"/>
        <pt x="93" y="303" on="0"/>
        <pt x="124" y="157" on="0"/>
        <pt x="185" y="58" on="0"/>
        <pt x="264" y="7" on="0"/>
        <pt x="302" y="8" on="1"/>
        <pt x="339" y="9" on="0"/>
        <pt x="390" y="33" on="0"/>
        <pt x="420" y="69" on="0"/>
        <pt x="432" y="113" on="0"/>
        <pt x="431" y="133" on="1"/>
        <pt x="430" y="161" on="0"/>
        <pt x="426" y="207" on="0"/>
        <pt x="399" y="243" on="0"/>
        <pt x="339" y="270" on="0"/>
        <pt x="281" y="280" on="1"/>
        <pt x="281" y="304" on="1"/>
        <pt x="314" y="300" on="0"/>
        <pt x="383" y="294" on="0"/>
        <pt x="461" y="297" on="0"/>
        <pt x="550" y="311" on="0"/>
        <pt x="603" y="326" on="1"/>
        <pt x="608" y="303" on="1"/>
        <pt x="577" y="293" on="0"/>
        <pt x="538" y="258" on="0"/>
        <pt x="514" y="182" on="0"/>
        <pt x="503" y="53" on="0"/>
        <pt x="501" y="-51" on="1"/>
        <pt x="472" y="-53" on="1"/>
        <pt x="464" y="37" on="1"/>
        <pt x="453" y="20" on="0"/>
        <pt x="422" y="-16" on="0"/>
        <pt x="380" y="-45" on="0"/>
        <pt x="325" y="-63" on="0"/>
      </contour>
    </TTGlyph>
    <TTGlyph name="H" xMin="-41" yMin="-41" xMax="612" yMax="769">
      <contour>
        <pt x="-41" y="-26" on="1"/>
        <pt x="-19" y="-13" on="0"/>
        <pt x="13" y="6" on="0"/>
        <pt x="36" y="41" on="0"/>
        <pt x="50" y="103" on="0"/>
        <pt x="55" y="157" on="1"/>
        <pt x="66" y="266" on="0"/>
        <pt x="77" y="459" on="0"/>
        <pt x="71" y="559" on="1"/>
        <pt x="68" y="601" on="0"/>
        <pt x="48" y="655" on="0"/>
        <pt x="23" y="686" on="0"/>
        <pt x="-1" y="701" on="0"/>
        <pt x="-8" y="706" on="1"/>
        <pt x="-6" y="727" on="1"/>
        <pt x="10" y="723" on="0"/>
        <pt x="59" y="712" on="0"/>
        <pt x="121" y="705" on="0"/>
        <pt x="195" y="707" on="0"/>
        <pt x="236" y="715" on="1"/>
        <pt x="237" y="697" on="1"/>
        <pt x="231" y="694" on="0"/>
        <pt x="205" y="668" on="0"/>
        <pt x="178" y="620" on="0"/>
        <pt x="155" y="545" on="0"/>
        <pt x="151" y="493" on="1"/>
        <pt x="147" y="460" on="0"/>
        <pt x="144" y="393" on="0"/>
        <pt x="143" y="360" on="1"/>
        <pt x="168" y="359" on="0"/>
        <pt x="234" y="358" on="0"/>
        <pt x="308" y="361" on="0"/>
        <pt x="385" y="369" on="0"/>
        <pt x="421" y="378" on="1"/>
        <pt x="420" y="441" on="0"/>
        <pt x="418" y="550" on="0"/>
        <pt x="417" y="579" on="1"/>
        <pt x="416" y="605" on="0"/>
        <pt x="402" y="658" on="0"/>
        <pt x="380" y="704" on="0"/>
        <pt x="348" y="741" on="0"/>
        <pt x="329" y="750" on="1"/>
        <pt x="331" y="769" on="1"/>
        <pt x="346" y="764" on="0"/>
        <pt x="413" y="753" on="0"/>
        <pt x="494" y="746" on="0"/>
        <pt x="577" y="748" on="0"/>
        <pt x="610" y="757" on="1"/>
        <pt x="608" y="734" on="1"/>
        <pt x="592" y="727" on="0"/>
        <pt x="558" y="708" on="0"/>
        <pt x="530" y="675" on="0"/>
        <pt x="509" y="625" on="0"/>
        <pt x="506" y="587" on="1"/>
        <pt x="503" y="548" on="0"/>
        <pt x="497" y="428" on="0"/>
        <pt x="496" y="295" on="0"/>
        <pt x="504" y="165" on="0"/>
        <pt x="515" y="116" on="1"/>
        <pt x="522" y="84" on="0"/>
        <pt x="540" y="43" on="0"/>
        <pt x="564" y="16" on="0"/>
        <pt x="594" y="-1" on="0"/>
        <pt x="612" y="-8" on="1"/>
        <pt x="603" y="-23" on="1"/>
        <pt x="575" y="-14" on="0"/>
        <pt x="508" y="-2" on="0"/>
        <pt x="440" y="3" on="0"/>
        <pt x="378" y="0" on="0"/>
        <pt x="355" y="-4" on="1"/>
        <pt x="352" y="20" on="1"/>
        <pt x="370" y="26" on="0"/>
        <pt x="397" y="40" on="0"/>
        <pt x="415" y="69" on="0"/>
        <pt x="423" y="121" on="0"/>
        <pt x="423" y="166" on="1"/>
        <pt x="422" y="194" on="0"/>
        <pt x="422" y="262" on="0"/>
        <pt x="422" y="300" on="1"/>
        <pt x="393" y="303" on="0"/>
        <pt x="321" y="306" on="0"/>
        <pt x="246" y="306" on="0"/>
        <pt x="173" y="301" on="0"/>
        <pt x="143" y="296" on="1"/>
        <pt x="144" y="240" on="0"/>
        <pt x="150" y="140" on="0"/>
        <pt x="157" y="98" on="1"/>
        <pt x="161" y="69" on="0"/>
        <pt x="174" y="34" on="0"/>
        <pt x="191" y="13" on="0"/>
        <pt x="214" y="0" on="0"/>
        <pt x="229" y="-7" on="1"/>
        <pt x="223" y="-27" on="1"/>
        <pt x="202" y="-22" on="0"/>
        <pt x="134" y="-19" on="0"/>
        <pt x="60" y="-22" on="0"/>
        <pt x="-8" y="-32" on="0"/>
        <pt x="-29" y="-41" on="1"/>
        <pt x="-41" y="-26" on="1"/>
      </contour>
    </TTGlyph>
    <TTGlyph name="I" xMin="5" yMin="-33" xMax="270" yMax="749">
      <contour>
        <pt x="69" y="614" on="1"/>
        <pt x="66" y="644" on="0"/>
        <pt x="49" y="682" on="0"/>
        <pt x="30" y="704" on="0"/>
        <pt x="11" y="714" on="0"/>
        <pt x="5" y="717" on="1"/>
        <pt x="10" y="739" on="1"/>
        <pt x="50" y="722" on="0"/>
        <pt x="171" y="724" on="0"/>
        <pt x="266" y="749" on="1"/>
        <pt x="270" y="735" on="1"/>
        <pt x="259" y="730" on="0"/>
        <pt x="236" y="717" on="0"/>
        <pt x="212" y="690" on="0"/>
        <pt x="190" y="645" on="0"/>
        <pt x="173" y="575" on="0"/>
        <pt x="162" y="473" on="0"/>
        <pt x="161" y="403" on="1"/>
        <pt x="160" y="319" on="0"/>
        <pt x="165" y="177" on="0"/>
        <pt x="184" y="72" on="0"/>
        <pt x="220" y="8" on="0"/>
        <pt x="250" y="1" on="1"/>
        <pt x="236" y="-17" on="1"/>
        <pt x="221" y="-15" on="0"/>
        <pt x="161" y="-13" on="0"/>
        <pt x="93" y="-16" on="0"/>
        <pt x="31" y="-25" on="0"/>
        <pt x="14" y="-33" on="1"/>
        <pt x="10" y="-20" on="1"/>
        <pt x="23" y="-8" on="0"/>
        <pt x="49" y="17" on="0"/>
        <pt x="68" y="59" on="0"/>
        <pt x="80" y="127" on="0"/>
        <pt x="80" y="183" on="1"/>
        <pt x="79" y="244" on="0"/>
        <pt x="78" y="372" on="0"/>
        <pt x="75" y="488" on="0"/>
        <pt x="72" y="584" on="0"/>
      </contour>
    </TTGlyph>
    <TTGlyph name="Iacute" xMin="5" yMin="-33" xMax="272" yMax="943">
      <component glyphName="I" x="0" y="0" flags="0x204"/>
      <component glyphName="acute" x="-142" y="174" flags="0x4"/>
    </TTGlyph>
    <TTGlyph name="Icircumflex" xMin="4" yMin="-33" xMax="270" yMax="969">
      <component glyphName="I" x="0" y="0" flags="0x204"/>
      <component glyphName="circumflex" x="-183" y="205" flags="0x4"/>
    </TTGlyph>
    <TTGlyph name="Idieresis" xMin="5" yMin="-33" xMax="270" yMax="882">
      <component glyphName="I" x="0" y="0" flags="0x204"/>
      <component glyphName="dieresis" x="-183" y="143" flags="0x4"/>
    </TTGlyph>
    <TTGlyph name="Igrave" xMin="-25" yMin="-33" xMax="270" yMax="953">
      <component glyphName="I" x="0" y="0" flags="0x204"/>
      <component glyphName="grave" x="-245" y="184" flags="0x4"/>
    </TTGlyph>
    <TTGlyph name="J" xMin="-58" yMin="-73" xMax="509" yMax="753">
      <contour>
        <pt x="249" y="-68" on="1"/>
        <pt x="174" y="-73" on="0"/>
        <pt x="55" y="-25" on="0"/>
        <pt x="-24" y="60" on="0"/>
        <pt x="-58" y="171" on="0"/>
        <pt x="-48" y="229" on="1"/>
        <pt x="-41" y="274" on="0"/>
        <pt x="3" y="336" on="0"/>
        <pt x="58" y="374" on="0"/>
        <pt x="118" y="389" on="0"/>
        <pt x="142" y="388" on="1"/>
        <pt x="166" y="386" on="0"/>
        <pt x="205" y="364" on="0"/>
        <pt x="231" y="328" on="0"/>
        <pt x="242" y="282" on="0"/>
        <pt x="238" y="256" on="1"/>
        <pt x="234" y="230" on="0"/>
        <pt x="215" y="180" on="0"/>
        <pt x="185" y="144" on="0"/>
        <pt x="143" y="127" on="0"/>
        <pt x="117" y="133" on="1"/>
        <pt x="93" y="138" on="0"/>
        <pt x="66" y="172" on="0"/>
        <pt x="54" y="213" on="0"/>
        <pt x="54" y="255" on="0"/>
        <pt x="59" y="268" on="1"/>
        <pt x="64" y="281" on="0"/>
        <pt x="81" y="305" on="0"/>
        <pt x="103" y="319" on="0"/>
        <pt x="129" y="322" on="0"/>
        <pt x="143" y="315" on="1"/>
        <pt x="159" y="307" on="0"/>
        <pt x="172" y="274" on="0"/>
        <pt x="169" y="239" on="0"/>
        <pt x="149" y="213" on="0"/>
        <pt x="132" y="213" on="1"/>
        <pt x="118" y="213" on="0"/>
        <pt x="103" y="230" on="0"/>
        <pt x="104" y="241" on="1"/>
        <pt x="104" y="250" on="0"/>
        <pt x="114" y="262" on="0"/>
        <pt x="121" y="263" on="1"/>
        <pt x="127" y="265" on="0"/>
        <pt x="140" y="257" on="0"/>
        <pt x="142" y="246" on="1"/>
        <pt x="148" y="252" on="0"/>
        <pt x="152" y="267" on="0"/>
        <pt x="151" y="273" on="1"/>
        <pt x="151" y="285" on="0"/>
        <pt x="134" y="300" on="0"/>
        <pt x="120" y="298" on="1"/>
        <pt x="114" y="298" on="0"/>
        <pt x="98" y="289" on="0"/>
        <pt x="85" y="271" on="0"/>
        <pt x="77" y="244" on="0"/>
        <pt x="79" y="226" on="1"/>
        <pt x="80" y="208" on="0"/>
        <pt x="94" y="181" on="0"/>
        <pt x="112" y="163" on="0"/>
        <pt x="131" y="155" on="0"/>
        <pt x="139" y="155" on="1"/>
        <pt x="155" y="155" on="0"/>
        <pt x="183" y="180" on="0"/>
        <pt x="203" y="218" on="0"/>
        <pt x="213" y="265" on="0"/>
        <pt x="212" y="287" on="1"/>
        <pt x="211" y="305" on="0"/>
        <pt x="195" y="334" on="0"/>
        <pt x="171" y="353" on="0"/>
        <pt x="143" y="361" on="0"/>
        <pt x="130" y="359" on="1"/>
        <pt x="109" y="357" on="0"/>
        <pt x="63" y="336" on="0"/>
        <pt x="26" y="298" on="0"/>
        <pt x="3" y="242" on="0"/>
        <pt x="4" y="205" on="1"/>
        <pt x="5" y="166" on="0"/>
        <pt x="38" y="95" on="0"/>
        <pt x="93" y="40" on="0"/>
        <pt x="169" y="8" on="0"/>
        <pt x="213" y="9" on="1"/>
        <pt x="260" y="10" on="0"/>
        <pt x="320" y="72" on="0"/>
        <pt x="351" y="174" on="0"/>
        <pt x="360" y="308" on="0"/>
        <pt x="356" y="382" on="1"/>
        <pt x="353" y="460" on="0"/>
        <pt x="337" y="578" on="0"/>
        <pt x="298" y="660" on="0"/>
        <pt x="227" y="708" on="0"/>
        <pt x="168" y="716" on="1"/>
        <pt x="166" y="739" on="1"/>
        <pt x="188" y="736" on="0"/>
        <pt x="266" y="733" on="0"/>
        <pt x="361" y="735" on="0"/>
        <pt x="462" y="744" on="0"/>
        <pt x="507" y="753" on="1"/>
        <pt x="509" y="732" on="1"/>
        <pt x="490" y="723" on="0"/>
        <pt x="458" y="697" on="0"/>
        <pt x="436" y="649" on="0"/>
        <pt x="424" y="574" on="0"/>
        <pt x="424" y="516" on="1"/>
        <pt x="425" y="471" on="0"/>
        <pt x="439" y="359" on="0"/>
        <pt x="448" y="239" on="0"/>
        <pt x="442" y="118" on="0"/>
        <pt x="424" y="63" on="1"/>
        <pt x="406" y="9" on="0"/>
        <pt x="322" y="-62" on="0"/>
      </contour>
    </TTGlyph>
    <TTGlyph name="K" xMin="-20" yMin="-300" xMax="743" yMax="769">
      <contour>
        <pt x="-20" y="-3" on="1"/>
        <pt x="-5" y="8" on="0"/>
        <pt x="23" y="38" on="0"/>
        <pt x="47" y="83" on="0"/>
        <pt x="64" y="149" on="0"/>
        <pt x="67" y="196" on="1"/>
        <pt x="70" y="243" on="0"/>
        <pt x="74" y="360" on="0"/>
        <pt x="75" y="482" on="0"/>
        <pt x="71" y="597" on="0"/>
        <pt x="66" y="641" on="1"/>
        <pt x="62" y="672" on="0"/>
        <pt x="42" y="708" on="0"/>
        <pt x="18" y="729" on="0"/>
        <pt x="-8" y="740" on="0"/>
        <pt x="-17" y="746" on="1"/>
        <pt x="-10" y="769" on="1"/>
        <pt x="11" y="761" on="0"/>
        <pt x="70" y="753" on="0"/>
        <pt x="135" y="751" on="0"/>
        <pt x="203" y="757" on="0"/>
        <pt x="234" y="764" on="1"/>
        <pt x="240" y="743" on="1"/>
        <pt x="220" y="737" on="0"/>
        <pt x="187" y="698" on="0"/>
        <pt x="181" y="650" on="1"/>
        <pt x="179" y="635" on="0"/>
        <pt x="173" y="584" on="0"/>
        <pt x="167" y="519" on="0"/>
        <pt x="161" y="442" on="0"/>
        <pt x="158" y="402" on="1"/>
        <pt x="199" y="405" on="0"/>
        <pt x="283" y="446" on="0"/>
        <pt x="354" y="515" on="0"/>
        <pt x="405" y="611" on="0"/>
        <pt x="414" y="669" on="1"/>
        <pt x="417" y="693" on="0"/>
        <pt x="412" y="720" on="0"/>
        <pt x="401" y="734" on="0"/>
        <pt x="388" y="737" on="0"/>
        <pt x="383" y="737" on="1"/>
        <pt x="385" y="759" on="1"/>
        <pt x="397" y="757" on="0"/>
        <pt x="454" y="753" on="0"/>
        <pt x="528" y="752" on="0"/>
        <pt x="612" y="757" on="0"/>
        <pt x="652" y="765" on="1"/>
        <pt x="653" y="745" on="1"/>
        <pt x="632" y="739" on="0"/>
        <pt x="594" y="727" on="0"/>
        <pt x="560" y="707" on="0"/>
        <pt x="529" y="675" on="0"/>
        <pt x="515" y="649" on="1"/>
        <pt x="497" y="617" on="0"/>
        <pt x="450" y="538" on="0"/>
        <pt x="389" y="462" on="0"/>
        <pt x="315" y="399" on="0"/>
        <pt x="270" y="383" on="1"/>
        <pt x="300" y="370" on="0"/>
        <pt x="369" y="327" on="0"/>
        <pt x="428" y="263" on="0"/>
        <pt x="467" y="176" on="0"/>
        <pt x="467" y="120" on="1"/>
        <pt x="467" y="78" on="0"/>
        <pt x="464" y="-11" on="0"/>
        <pt x="469" y="-95" on="0"/>
        <pt x="484" y="-170" on="0"/>
        <pt x="518" y="-225" on="0"/>
        <pt x="577" y="-258" on="0"/>
        <pt x="622" y="-258" on="1"/>
        <pt x="643" y="-258" on="0"/>
        <pt x="679" y="-239" on="0"/>
        <pt x="706" y="-208" on="0"/>
        <pt x="722" y="-171" on="0"/>
        <pt x="722" y="-153" on="1"/>
        <pt x="722" y="-135" on="0"/>
        <pt x="710" y="-103" on="0"/>
        <pt x="690" y="-80" on="0"/>
        <pt x="665" y="-67" on="0"/>
        <pt x="652" y="-67" on="1"/>
        <pt x="626" y="-67" on="0"/>
        <pt x="585" y="-105" on="0"/>
        <pt x="585" y="-128" on="1"/>
        <pt x="585" y="-152" on="0"/>
        <pt x="605" y="-181" on="0"/>
        <pt x="626" y="-181" on="1"/>
        <pt x="643" y="-181" on="0"/>
        <pt x="666" y="-156" on="0"/>
        <pt x="668" y="-139" on="1"/>
        <pt x="659" y="-153" on="0"/>
        <pt x="644" y="-153" on="1"/>
        <pt x="631" y="-152" on="0"/>
        <pt x="613" y="-135" on="0"/>
        <pt x="615" y="-125" on="1"/>
        <pt x="617" y="-114" on="0"/>
        <pt x="637" y="-99" on="0"/>
        <pt x="654" y="-102" on="1"/>
        <pt x="672" y="-105" on="0"/>
        <pt x="690" y="-134" on="0"/>
        <pt x="686" y="-153" on="1"/>
        <pt x="684" y="-162" on="0"/>
        <pt x="675" y="-182" on="0"/>
        <pt x="658" y="-197" on="0"/>
        <pt x="632" y="-206" on="0"/>
        <pt x="614" y="-204" on="1"/>
        <pt x="592" y="-202" on="0"/>
        <pt x="566" y="-177" on="0"/>
        <pt x="557" y="-141" on="0"/>
        <pt x="565" y="-100" on="0"/>
        <pt x="590" y="-65" on="0"/>
        <pt x="630" y="-43" on="0"/>
        <pt x="657" y="-44" on="1"/>
        <pt x="673" y="-44" on="0"/>
        <pt x="704" y="-63" on="0"/>
        <pt x="729" y="-93" on="0"/>
        <pt x="743" y="-134" on="0"/>
        <pt x="743" y="-157" on="1"/>
        <pt x="743" y="-178" on="0"/>
        <pt x="728" y="-228" on="0"/>
        <pt x="691" y="-271" on="0"/>
        <pt x="629" y="-300" on="0"/>
        <pt x="583" y="-299" on="1"/>
        <pt x="547" y="-299" on="0"/>
        <pt x="473" y="-258" on="0"/>
        <pt x="414" y="-181" on="0"/>
        <pt x="378" y="-68" on="0"/>
        <pt x="380" y="6" on="1"/>
        <pt x="381" y="51" on="0"/>
        <pt x="381" y="148" on="0"/>
        <pt x="370" y="188" on="1"/>
        <pt x="356" y="230" on="0"/>
        <pt x="309" y="309" on="0"/>
        <pt x="269" y="332" on="1"/>
        <pt x="246" y="346" on="0"/>
        <pt x="189" y="351" on="0"/>
        <pt x="156" y="349" on="1"/>
        <pt x="153" y="280" on="0"/>
        <pt x="153" y="161" on="0"/>
        <pt x="153" y="129" on="1"/>
        <pt x="153" y="95" on="0"/>
        <pt x="169" y="56" on="0"/>
        <pt x="194" y="32" on="0"/>
        <pt x="224" y="19" on="0"/>
        <pt x="238" y="11" on="1"/>
        <pt x="230" y="-6" on="1"/>
        <pt x="212" y="-3" on="0"/>
        <pt x="147" y="-3" on="0"/>
        <pt x="74" y="-8" on="0"/>
        <pt x="4" y="-17" on="0"/>
        <pt x="-17" y="-24" on="1"/>
        <pt x="-20" y="-3" on="1"/>
      </contour>
    </TTGlyph>
    <TTGlyph name="L" xMin="-10" yMin="-29" xMax="504" yMax="764">
      <contour>
        <pt x="-10" y="-9" on="1"/>
        <pt x="11" y="3" on="0"/>
        <pt x="42" y="23" on="0"/>
        <pt x="63" y="54" on="0"/>
        <pt x="74" y="103" on="0"/>
        <pt x="76" y="144" on="1"/>
        <pt x="77" y="185" on="0"/>
        <pt x="87" y="303" on="0"/>
        <pt x="95" y="429" on="0"/>
        <pt x="99" y="549" on="0"/>
        <pt x="95" y="592" on="1"/>
        <pt x="91" y="635" on="0"/>
        <pt x="73" y="689" on="0"/>
        <pt x="51" y="723" on="0"/>
        <pt x="25" y="742" on="0"/>
        <pt x="13" y="748" on="1"/>
        <pt x="20" y="764" on="1"/>
        <pt x="41" y="758" on="0"/>
        <pt x="100" y="749" on="0"/>
        <pt x="166" y="745" on="0"/>
        <pt x="235" y="747" on="0"/>
        <pt x="267" y="752" on="1"/>
        <pt x="270" y="734" on="1"/>
        <pt x="241" y="720" on="0"/>
        <pt x="197" y="629" on="0"/>
        <pt x="186" y="545" on="1"/>
        <pt x="181" y="510" on="0"/>
        <pt x="173" y="394" on="0"/>
        <pt x="171" y="327" on="1"/>
        <pt x="170" y="290" on="0"/>
        <pt x="171" y="216" on="0"/>
        <pt x="174" y="147" on="0"/>
        <pt x="179" y="86" on="0"/>
        <pt x="182" y="62" on="1"/>
        <pt x="192" y="51" on="0"/>
        <pt x="233" y="38" on="0"/>
        <pt x="280" y="37" on="1"/>
        <pt x="358" y="35" on="0"/>
        <pt x="442" y="100" on="0"/>
        <pt x="453" y="154" on="1"/>
        <pt x="456" y="170" on="0"/>
        <pt x="460" y="188" on="1"/>
        <pt x="463" y="203" on="0"/>
        <pt x="469" y="240" on="0"/>
        <pt x="472" y="258" on="1"/>
        <pt x="501" y="255" on="1"/>
        <pt x="487" y="170" on="0"/>
        <pt x="492" y="35" on="0"/>
        <pt x="504" y="-15" on="1"/>
        <pt x="460" y="-8" on="0"/>
        <pt x="330" y="2" on="0"/>
        <pt x="189" y="2" on="0"/>
        <pt x="51" y="-12" on="0"/>
        <pt x="0" y="-29" on="1"/>
        <pt x="-10" y="-9" on="1"/>
      </contour>
    </TTGlyph>
    <TTGlyph name="Lslash" xMin="-31" yMin="-29" xMax="506" yMax="764">
      <contour>
        <pt x="503" y="255" on="1"/>
        <pt x="489" y="170" on="0"/>
        <pt x="494" y="35" on="0"/>
        <pt x="506" y="-15" on="1"/>
        <pt x="462" y="-8" on="0"/>
        <pt x="333" y="2" on="0"/>
        <pt x="191" y="2" on="0"/>
        <pt x="53" y="-12" on="0"/>
        <pt x="2" y="-29" on="1"/>
        <pt x="-8" y="-9" on="1"/>
        <pt x="13" y="3" on="0"/>
        <pt x="44" y="23" on="0"/>
        <pt x="65" y="54" on="0"/>
        <pt x="76" y="103" on="0"/>
        <pt x="78" y="144" on="1"/>
        <pt x="80" y="184" on="0"/>
        <pt x="88" y="295" on="0"/>
        <pt x="93" y="356" on="1"/>
        <pt x="61" y="343" on="0"/>
        <pt x="6" y="317" on="0"/>
        <pt x="-10" y="303" on="1"/>
        <pt x="-10" y="319" on="0"/>
        <pt x="-24" y="362" on="0"/>
        <pt x="-31" y="370" on="1"/>
        <pt x="-11" y="374" on="0"/>
        <pt x="58" y="395" on="0"/>
        <pt x="96" y="409" on="1"/>
        <pt x="99" y="461" on="0"/>
        <pt x="101" y="557" on="0"/>
        <pt x="97" y="592" on="1"/>
        <pt x="93" y="635" on="0"/>
        <pt x="76" y="689" on="0"/>
        <pt x="53" y="723" on="0"/>
        <pt x="28" y="742" on="0"/>
        <pt x="16" y="748" on="1"/>
        <pt x="24" y="764" on="1"/>
        <pt x="45" y="758" on="0"/>
        <pt x="103" y="749" on="0"/>
        <pt x="169" y="745" on="0"/>
        <pt x="237" y="747" on="0"/>
        <pt x="269" y="752" on="1"/>
        <pt x="272" y="734" on="1"/>
        <pt x="243" y="720" on="0"/>
        <pt x="200" y="629" on="0"/>
        <pt x="188" y="545" on="1"/>
        <pt x="186" y="525" on="0"/>
        <pt x="181" y="471" on="0"/>
        <pt x="179" y="439" on="1"/>
        <pt x="205" y="450" on="0"/>
        <pt x="250" y="470" on="0"/>
        <pt x="263" y="478" on="1"/>
        <pt x="264" y="473" on="0"/>
        <pt x="266" y="464" on="1"/>
        <pt x="268" y="456" on="0"/>
        <pt x="272" y="434" on="0"/>
        <pt x="276" y="418" on="1"/>
        <pt x="266" y="415" on="0"/>
        <pt x="211" y="398" on="0"/>
        <pt x="176" y="387" on="1"/>
        <pt x="175" y="373" on="0"/>
        <pt x="174" y="342" on="0"/>
        <pt x="174" y="327" on="1"/>
        <pt x="173" y="290" on="0"/>
        <pt x="174" y="216" on="0"/>
        <pt x="177" y="147" on="0"/>
        <pt x="181" y="86" on="0"/>
        <pt x="184" y="62" on="1"/>
        <pt x="194" y="51" on="0"/>
        <pt x="235" y="38" on="0"/>
        <pt x="282" y="37" on="1"/>
        <pt x="361" y="35" on="0"/>
        <pt x="444" y="100" on="0"/>
        <pt x="455" y="154" on="1"/>
        <pt x="458" y="170" on="0"/>
        <pt x="462" y="188" on="1"/>
        <pt x="465" y="203" on="0"/>
        <pt x="472" y="240" on="0"/>
        <pt x="475" y="258" on="1"/>
        <pt x="503" y="255" on="1"/>
      </contour>
    </TTGlyph>
    <TTGlyph name="M" xMin="-61" yMin="-340" xMax="897" yMax="754">
      <contour>
        <pt x="895" y="-187" on="1"/>
        <pt x="897" y="-209" on="0"/>
        <pt x="880" y="-262" on="0"/>
        <pt x="841" y="-309" on="0"/>
        <pt x="779" y="-340" on="0"/>
        <pt x="736" y="-340" on="1"/>
        <pt x="694" y="-339" on="0"/>
        <pt x="615" y="-288" on="0"/>
        <pt x="562" y="-198" on="0"/>
        <pt x="544" y="-74" on="0"/>
        <pt x="561" y="0" on="1"/>
        <pt x="572" y="49" on="0"/>
        <pt x="605" y="182" on="0"/>
        <pt x="636" y="324" on="0"/>
        <pt x="657" y="462" on="0"/>
        <pt x="655" y="573" on="0"/>
        <pt x="624" y="644" on="0"/>
        <pt x="587" y="647" on="1"/>
        <pt x="557" y="649" on="0"/>
        <pt x="508" y="610" on="0"/>
        <pt x="472" y="550" on="0"/>
        <pt x="449" y="481" on="0"/>
        <pt x="445" y="454" on="1"/>
        <pt x="436" y="399" on="0"/>
        <pt x="426" y="250" on="0"/>
        <pt x="427" y="177" on="1"/>
        <pt x="427" y="153" on="0"/>
        <pt x="443" y="124" on="0"/>
        <pt x="465" y="108" on="0"/>
        <pt x="489" y="101" on="0"/>
        <pt x="498" y="100" on="1"/>
        <pt x="496" y="84" on="1"/>
        <pt x="436" y="76" on="0"/>
        <pt x="355" y="59" on="0"/>
        <pt x="329" y="51" on="1"/>
        <pt x="299" y="42" on="0"/>
        <pt x="280" y="34" on="1"/>
        <pt x="271" y="55" on="1"/>
        <pt x="293" y="66" on="0"/>
        <pt x="324" y="98" on="0"/>
        <pt x="342" y="145" on="0"/>
        <pt x="350" y="209" on="0"/>
        <pt x="351" y="252" on="1"/>
        <pt x="352" y="281" on="0"/>
        <pt x="354" y="360" on="0"/>
        <pt x="353" y="444" on="0"/>
        <pt x="347" y="526" on="0"/>
        <pt x="331" y="590" on="0"/>
        <pt x="303" y="629" on="0"/>
        <pt x="281" y="629" on="1"/>
        <pt x="258" y="628" on="0"/>
        <pt x="223" y="594" on="0"/>
        <pt x="195" y="540" on="0"/>
        <pt x="175" y="475" on="0"/>
        <pt x="162" y="413" on="0"/>
        <pt x="155" y="362" on="0"/>
        <pt x="154" y="349" on="1"/>
        <pt x="153" y="336" on="0"/>
        <pt x="151" y="283" on="0"/>
        <pt x="152" y="216" on="0"/>
        <pt x="161" y="141" on="0"/>
        <pt x="180" y="72" on="0"/>
        <pt x="214" y="15" on="0"/>
        <pt x="240" y="0" on="1"/>
        <pt x="239" y="-26" on="1"/>
        <pt x="219" y="-20" on="0"/>
        <pt x="152" y="-15" on="0"/>
        <pt x="79" y="-19" on="0"/>
        <pt x="10" y="-32" on="0"/>
        <pt x="-12" y="-44" on="1"/>
        <pt x="-24" y="-18" on="1"/>
        <pt x="0" y="-5" on="0"/>
        <pt x="33" y="14" on="0"/>
        <pt x="56" y="50" on="0"/>
        <pt x="68" y="115" on="0"/>
        <pt x="70" y="172" on="1"/>
        <pt x="72" y="230" on="0"/>
        <pt x="76" y="312" on="0"/>
        <pt x="77" y="378" on="0"/>
        <pt x="78" y="436" on="0"/>
        <pt x="77" y="471" on="1"/>
        <pt x="76" y="505" on="0"/>
        <pt x="65" y="579" on="0"/>
        <pt x="37" y="646" on="0"/>
        <pt x="-15" y="698" on="0"/>
        <pt x="-57" y="712" on="1"/>
        <pt x="-61" y="732" on="1"/>
        <pt x="-37" y="730" on="0"/>
        <pt x="28" y="726" on="0"/>
        <pt x="91" y="726" on="0"/>
        <pt x="140" y="731" on="0"/>
        <pt x="148" y="739" on="1"/>
        <pt x="152" y="732" on="0"/>
        <pt x="157" y="693" on="0"/>
        <pt x="159" y="642" on="0"/>
        <pt x="159" y="584" on="0"/>
        <pt x="159" y="557" on="1"/>
        <pt x="173" y="598" on="0"/>
        <pt x="210" y="657" on="0"/>
        <pt x="250" y="694" on="0"/>
        <pt x="289" y="712" on="0"/>
        <pt x="306" y="712" on="1"/>
        <pt x="346" y="712" on="0"/>
        <pt x="410" y="644" on="0"/>
        <pt x="423" y="581" on="1"/>
        <pt x="455" y="663" on="0"/>
        <pt x="562" y="754" on="0"/>
        <pt x="632" y="744" on="1"/>
        <pt x="714" y="732" on="0"/>
        <pt x="773" y="562" on="0"/>
        <pt x="745" y="401" on="1"/>
        <pt x="731" y="321" on="0"/>
        <pt x="682" y="159" on="0"/>
        <pt x="637" y="10" on="0"/>
        <pt x="610" y="-121" on="0"/>
        <pt x="618" y="-169" on="1"/>
        <pt x="625" y="-213" on="0"/>
        <pt x="661" y="-269" on="0"/>
        <pt x="703" y="-300" on="0"/>
        <pt x="746" y="-311" on="0"/>
        <pt x="762" y="-310" on="1"/>
        <pt x="784" y="-309" on="0"/>
        <pt x="821" y="-285" on="0"/>
        <pt x="849" y="-249" on="0"/>
        <pt x="864" y="-207" on="0"/>
        <pt x="864" y="-188" on="1"/>
        <pt x="864" y="-175" on="0"/>
        <pt x="853" y="-149" on="0"/>
        <pt x="833" y="-129" on="0"/>
        <pt x="804" y="-117" on="0"/>
        <pt x="787" y="-118" on="1"/>
        <pt x="770" y="-119" on="0"/>
        <pt x="745" y="-133" on="0"/>
        <pt x="729" y="-154" on="0"/>
        <pt x="722" y="-178" on="0"/>
        <pt x="723" y="-187" on="1"/>
        <pt x="725" y="-207" on="0"/>
        <pt x="749" y="-233" on="0"/>
        <pt x="766" y="-231" on="1"/>
        <pt x="774" y="-230" on="0"/>
        <pt x="785" y="-222" on="0"/>
        <pt x="790" y="-217" on="1"/>
        <pt x="780" y="-213" on="0"/>
        <pt x="767" y="-200" on="0"/>
        <pt x="769" y="-185" on="1"/>
        <pt x="770" y="-176" on="0"/>
        <pt x="783" y="-165" on="0"/>
        <pt x="800" y="-163" on="0"/>
        <pt x="814" y="-171" on="0"/>
        <pt x="816" y="-182" on="1"/>
        <pt x="817" y="-193" on="0"/>
        <pt x="813" y="-220" on="0"/>
        <pt x="799" y="-243" on="0"/>
        <pt x="773" y="-258" on="0"/>
        <pt x="752" y="-258" on="1"/>
        <pt x="731" y="-258" on="0"/>
        <pt x="706" y="-236" on="0"/>
        <pt x="694" y="-204" on="0"/>
        <pt x="693" y="-169" on="0"/>
        <pt x="697" y="-157" on="1"/>
        <pt x="705" y="-131" on="0"/>
        <pt x="755" y="-86" on="0"/>
        <pt x="800" y="-88" on="1"/>
        <pt x="821" y="-90" on="0"/>
        <pt x="855" y="-108" on="0"/>
        <pt x="879" y="-137" on="0"/>
        <pt x="893" y="-171" on="0"/>
      </contour>
    </TTGlyph>
    <TTGlyph name="N" xMin="-36" yMin="-35" xMax="620" yMax="781">
      <contour>
        <pt x="67" y="610" on="1"/>
        <pt x="53" y="680" on="0"/>
        <pt x="12" y="750" on="0"/>
        <pt x="-31" y="743" on="1"/>
        <pt x="-36" y="771" on="1"/>
        <pt x="-17" y="769" on="0"/>
        <pt x="36" y="769" on="0"/>
        <pt x="97" y="771" on="0"/>
        <pt x="159" y="776" on="0"/>
        <pt x="187" y="781" on="1"/>
        <pt x="199" y="735" on="0"/>
        <pt x="238" y="618" on="0"/>
        <pt x="286" y="490" on="0"/>
        <pt x="339" y="357" on="0"/>
        <pt x="392" y="231" on="0"/>
        <pt x="441" y="119" on="0"/>
        <pt x="461" y="77" on="1"/>
        <pt x="461" y="131" on="0"/>
        <pt x="458" y="254" on="0"/>
        <pt x="454" y="377" on="0"/>
        <pt x="448" y="491" on="0"/>
        <pt x="444" y="534" on="1"/>
        <pt x="440" y="583" on="0"/>
        <pt x="427" y="649" on="0"/>
        <pt x="409" y="692" on="0"/>
        <pt x="386" y="719" on="0"/>
        <pt x="371" y="728" on="1"/>
        <pt x="371" y="748" on="1"/>
        <pt x="395" y="743" on="0"/>
        <pt x="456" y="737" on="0"/>
        <pt x="521" y="734" on="0"/>
        <pt x="588" y="736" on="0"/>
        <pt x="620" y="741" on="1"/>
        <pt x="620" y="718" on="1"/>
        <pt x="604" y="717" on="0"/>
        <pt x="569" y="702" on="0"/>
        <pt x="539" y="668" on="0"/>
        <pt x="521" y="613" on="0"/>
        <pt x="521" y="573" on="1"/>
        <pt x="521" y="546" on="0"/>
        <pt x="523" y="454" on="0"/>
        <pt x="525" y="341" on="0"/>
        <pt x="525" y="217" on="0"/>
        <pt x="524" y="99" on="0"/>
        <pt x="520" y="-2" on="0"/>
        <pt x="516" y="-35" on="1"/>
        <pt x="451" y="-28" on="1"/>
        <pt x="420" y="34" on="0"/>
        <pt x="346" y="199" on="0"/>
        <pt x="268" y="369" on="0"/>
        <pt x="192" y="525" on="0"/>
        <pt x="159" y="579" on="1"/>
        <pt x="153" y="516" on="0"/>
        <pt x="151" y="367" on="0"/>
        <pt x="159" y="216" on="0"/>
        <pt x="173" y="71" on="0"/>
        <pt x="182" y="11" on="1"/>
        <pt x="156" y="10" on="0"/>
        <pt x="92" y="6" on="0"/>
        <pt x="35" y="0" on="0"/>
        <pt x="-7" y="-8" on="0"/>
        <pt x="-11" y="-13" on="1"/>
        <pt x="-16" y="8" on="1"/>
        <pt x="2" y="18" on="0"/>
        <pt x="33" y="32" on="0"/>
        <pt x="57" y="62" on="0"/>
        <pt x="72" y="122" on="0"/>
        <pt x="75" y="178" on="1"/>
        <pt x="81" y="292" on="0"/>
        <pt x="84" y="517" on="0"/>
      </contour>
    </TTGlyph>
    <TTGlyph name="Ntilde" xMin="-36" yMin="-35" xMax="620" yMax="894">
      <component glyphName="N" x="0" y="0" flags="0x204"/>
      <component glyphName="tilde" x="0" y="174" flags="0x4"/>
    </TTGlyph>
    <TTGlyph name="O" xMin="13" yMin="-64" xMax="596" yMax="736">
      <contour>
        <pt x="290" y="-63" on="1"/>
        <pt x="248" y="-63" on="0"/>
        <pt x="150" y="-13" on="0"/>
        <pt x="67" y="90" on="0"/>
        <pt x="13" y="250" on="0"/>
        <pt x="15" y="360" on="1"/>
        <pt x="17" y="461" on="0"/>
        <pt x="80" y="604" on="0"/>
        <pt x="172" y="694" on="0"/>
        <pt x="275" y="736" on="0"/>
        <pt x="317" y="736" on="1"/>
        <pt x="370" y="736" on="0"/>
        <pt x="467" y="690" on="0"/>
        <pt x="543" y="601" on="0"/>
        <pt x="590" y="470" on="0"/>
        <pt x="593" y="385" on="1"/>
        <pt x="596" y="291" on="0"/>
        <pt x="544" y="126" on="0"/>
        <pt x="457" y="5" on="0"/>
        <pt x="345" y="-64" on="0"/>
      </contour>
      <contour>
        <pt x="99" y="348" on="1"/>
        <pt x="98" y="318" on="0"/>
        <pt x="102" y="245" on="0"/>
        <pt x="116" y="169" on="0"/>
        <pt x="141" y="96" on="0"/>
        <pt x="179" y="38" on="0"/>
        <pt x="231" y="0" on="0"/>
        <pt x="266" y="-2" on="1"/>
        <pt x="300" y="-4" on="0"/>
        <pt x="364" y="32" on="0"/>
        <pt x="419" y="96" on="0"/>
        <pt x="463" y="182" on="0"/>
        <pt x="493" y="275" on="0"/>
        <pt x="507" y="368" on="0"/>
        <pt x="505" y="409" on="1"/>
        <pt x="502" y="447" on="0"/>
        <pt x="494" y="502" on="0"/>
        <pt x="487" y="522" on="1"/>
        <pt x="487" y="504" on="0"/>
        <pt x="480" y="467" on="0"/>
        <pt x="462" y="431" on="0"/>
        <pt x="431" y="399" on="0"/>
        <pt x="407" y="388" on="1"/>
        <pt x="371" y="371" on="0"/>
        <pt x="307" y="368" on="0"/>
        <pt x="257" y="390" on="0"/>
        <pt x="224" y="437" on="0"/>
        <pt x="220" y="471" on="1"/>
        <pt x="215" y="505" on="0"/>
        <pt x="236" y="558" on="0"/>
        <pt x="272" y="595" on="0"/>
        <pt x="318" y="615" on="0"/>
        <pt x="340" y="617" on="1"/>
        <pt x="347" y="617" on="0"/>
        <pt x="371" y="614" on="0"/>
        <pt x="395" y="601" on="0"/>
        <pt x="413" y="573" on="0"/>
        <pt x="414" y="549" on="1"/>
        <pt x="415" y="524" on="0"/>
        <pt x="392" y="489" on="0"/>
        <pt x="359" y="469" on="0"/>
        <pt x="324" y="466" on="0"/>
        <pt x="312" y="472" on="1"/>
        <pt x="301" y="479" on="0"/>
        <pt x="297" y="500" on="0"/>
        <pt x="305" y="519" on="0"/>
        <pt x="322" y="531" on="0"/>
        <pt x="332" y="529" on="1"/>
        <pt x="347" y="525" on="0"/>
        <pt x="354" y="500" on="0"/>
        <pt x="351" y="489" on="1"/>
        <pt x="371" y="494" on="0"/>
        <pt x="390" y="526" on="0"/>
        <pt x="389" y="560" on="0"/>
        <pt x="368" y="587" on="0"/>
        <pt x="347" y="587" on="1"/>
        <pt x="309" y="587" on="0"/>
        <pt x="253" y="538" on="0"/>
        <pt x="252" y="492" on="1"/>
        <pt x="252" y="477" on="0"/>
        <pt x="258" y="443" on="0"/>
        <pt x="277" y="415" on="0"/>
        <pt x="311" y="398" on="0"/>
        <pt x="340" y="400" on="1"/>
        <pt x="368" y="402" on="0"/>
        <pt x="411" y="427" on="0"/>
        <pt x="440" y="464" on="0"/>
        <pt x="456" y="510" on="0"/>
        <pt x="456" y="534" on="1"/>
        <pt x="457" y="577" on="0"/>
        <pt x="435" y="634" on="0"/>
        <pt x="400" y="669" on="0"/>
        <pt x="357" y="683" on="0"/>
        <pt x="337" y="684" on="1"/>
        <pt x="293" y="685" on="0"/>
        <pt x="211" y="624" on="0"/>
        <pt x="145" y="528" on="0"/>
        <pt x="102" y="407" on="0"/>
      </contour>
    </TTGlyph>
    <TTGlyph name="OE" xMin="35" yMin="-30" xMax="865" yMax="764">
      <contour>
        <pt x="293" y="-29" on="1"/>
        <pt x="244" y="-27" on="0"/>
        <pt x="152" y="21" on="0"/>
        <pt x="80" y="112" on="0"/>
        <pt x="36" y="243" on="0"/>
        <pt x="36" y="328" on="1"/>
        <pt x="35" y="430" on="0"/>
        <pt x="91" y="578" on="0"/>
        <pt x="172" y="676" on="0"/>
        <pt x="262" y="726" on="0"/>
        <pt x="295" y="730" on="1"/>
        <pt x="344" y="736" on="0"/>
        <pt x="436" y="696" on="0"/>
        <pt x="459" y="642" on="1"/>
        <pt x="459" y="668" on="0"/>
        <pt x="456" y="718" on="0"/>
        <pt x="451" y="730" on="1"/>
        <pt x="471" y="729" on="0"/>
        <pt x="539" y="726" on="0"/>
        <pt x="622" y="726" on="0"/>
        <pt x="710" y="729" on="0"/>
        <pt x="789" y="738" on="0"/>
        <pt x="850" y="752" on="0"/>
        <pt x="865" y="764" on="1"/>
        <pt x="855" y="740" on="0"/>
        <pt x="841" y="672" on="0"/>
        <pt x="834" y="600" on="0"/>
        <pt x="832" y="531" on="0"/>
        <pt x="833" y="507" on="1"/>
        <pt x="806" y="505" on="1"/>
        <pt x="804" y="535" on="0"/>
        <pt x="796" y="598" on="0"/>
        <pt x="769" y="648" on="0"/>
        <pt x="715" y="677" on="0"/>
        <pt x="669" y="673" on="1"/>
        <pt x="597" y="666" on="0"/>
        <pt x="563" y="653" on="1"/>
        <pt x="549" y="593" on="0"/>
        <pt x="530" y="452" on="0"/>
        <pt x="529" y="367" on="1"/>
        <pt x="559" y="366" on="0"/>
        <pt x="606" y="373" on="0"/>
        <pt x="644" y="401" on="0"/>
        <pt x="674" y="453" on="0"/>
        <pt x="687" y="497" on="1"/>
        <pt x="712" y="500" on="1"/>
        <pt x="704" y="448" on="0"/>
        <pt x="701" y="308" on="0"/>
        <pt x="714" y="233" on="1"/>
        <pt x="690" y="224" on="1"/>
        <pt x="666" y="282" on="0"/>
        <pt x="589" y="322" on="0"/>
        <pt x="529" y="305" on="1"/>
        <pt x="531" y="230" on="0"/>
        <pt x="542" y="96" on="0"/>
        <pt x="549" y="58" on="1"/>
        <pt x="572" y="57" on="0"/>
        <pt x="625" y="58" on="0"/>
        <pt x="652" y="60" on="1"/>
        <pt x="694" y="64" on="0"/>
        <pt x="760" y="82" on="0"/>
        <pt x="779" y="105" on="1"/>
        <pt x="802" y="131" on="0"/>
        <pt x="812" y="195" on="0"/>
        <pt x="815" y="237" on="1"/>
        <pt x="842" y="233" on="1"/>
        <pt x="840" y="210" on="0"/>
        <pt x="838" y="145" on="0"/>
        <pt x="838" y="78" on="0"/>
        <pt x="841" y="14" on="0"/>
        <pt x="844" y="-7" on="1"/>
        <pt x="824" y="-2" on="0"/>
        <pt x="760" y="3" on="0"/>
        <pt x="687" y="5" on="0"/>
        <pt x="608" y="3" on="0"/>
        <pt x="537" y="-2" on="0"/>
        <pt x="480" y="-9" on="0"/>
        <pt x="465" y="-14" on="1"/>
        <pt x="476" y="2" on="0"/>
        <pt x="482" y="52" on="0"/>
        <pt x="479" y="84" on="1"/>
        <pt x="470" y="65" on="0"/>
        <pt x="439" y="24" on="0"/>
        <pt x="394" y="-9" on="0"/>
        <pt x="332" y="-30" on="0"/>
      </contour>
      <contour>
        <pt x="261" y="678" on="1"/>
        <pt x="235" y="670" on="0"/>
        <pt x="185" y="628" on="0"/>
        <pt x="147" y="551" on="0"/>
        <pt x="127" y="434" on="0"/>
        <pt x="132" y="351" on="1"/>
        <pt x="137" y="268" on="0"/>
        <pt x="184" y="142" on="0"/>
        <pt x="250" y="61" on="0"/>
        <pt x="328" y="27" on="0"/>
        <pt x="365" y="38" on="1"/>
        <pt x="397" y="47" on="0"/>
        <pt x="439" y="122" on="0"/>
        <pt x="461" y="224" on="0"/>
        <pt x="467" y="336" on="0"/>
        <pt x="463" y="383" on="1"/>
        <pt x="454" y="477" on="0"/>
        <pt x="411" y="595" on="0"/>
        <pt x="396" y="618" on="1"/>
        <pt x="386" y="633" on="0"/>
        <pt x="358" y="661" on="0"/>
        <pt x="323" y="679" on="0"/>
        <pt x="282" y="685" on="0"/>
      </contour>
    </TTGlyph>
    <TTGlyph name="Oacute" xMin="13" yMin="-64" xMax="596" yMax="933">
      <component glyphName="O" x="0" y="0" flags="0x204"/>
      <component glyphName="acute" x="31" y="164" flags="0x4"/>
    </TTGlyph>
    <TTGlyph name="Ocircumflex" xMin="13" yMin="-64" xMax="596" yMax="938">
      <component glyphName="O" x="0" y="0" flags="0x204"/>
      <component glyphName="circumflex" x="10" y="174" flags="0x4"/>
    </TTGlyph>
    <TTGlyph name="Odieresis" xMin="13" yMin="-64" xMax="596" yMax="872">
      <component glyphName="O" x="0" y="0" flags="0x204"/>
      <component glyphName="dieresis" x="10" y="133" flags="0x4"/>
    </TTGlyph>
    <TTGlyph name="Ograve" xMin="13" yMin="-64" xMax="596" yMax="933">
      <component glyphName="O" x="0" y="0" flags="0x204"/>
      <component glyphName="grave" x="0" y="164" flags="0x4"/>
    </TTGlyph>
    <TTGlyph name="Oslash" xMin="14" yMin="-140" xMax="596" yMax="802">
      <contour>
        <pt x="593" y="385" on="1"/>
        <pt x="596" y="291" on="0"/>
        <pt x="544" y="126" on="0"/>
        <pt x="457" y="5" on="0"/>
        <pt x="346" y="-64" on="0"/>
        <pt x="291" y="-63" on="1"/>
        <pt x="268" y="-63" on="0"/>
        <pt x="219" y="-49" on="0"/>
        <pt x="194" y="-35" on="1"/>
        <pt x="184" y="-62" on="0"/>
        <pt x="168" y="-110" on="0"/>
        <pt x="162" y="-131" on="1"/>
        <pt x="146" y="-131" on="0"/>
        <pt x="101" y="-132" on="0"/>
        <pt x="77" y="-140" on="1"/>
        <pt x="94" y="-102" on="0"/>
        <pt x="127" y="-31" on="0"/>
        <pt x="142" y="3" on="1"/>
        <pt x="115" y="28" on="0"/>
        <pt x="68" y="96" on="0"/>
        <pt x="33" y="184" on="0"/>
        <pt x="14" y="294" on="0"/>
        <pt x="15" y="360" on="1"/>
        <pt x="16" y="427" on="0"/>
        <pt x="47" y="536" on="0"/>
        <pt x="95" y="619" on="0"/>
        <pt x="158" y="679" on="0"/>
        <pt x="224" y="718" on="0"/>
        <pt x="290" y="736" on="0"/>
        <pt x="318" y="736" on="1"/>
        <pt x="383" y="736" on="0"/>
        <pt x="441" y="701" on="1"/>
        <pt x="460" y="749" on="0"/>
        <pt x="481" y="802" on="0"/>
        <pt x="483" y="801" on="1"/>
        <pt x="505" y="793" on="0"/>
        <pt x="561" y="792" on="0"/>
        <pt x="577" y="798" on="1"/>
        <pt x="561" y="770" on="0"/>
        <pt x="521" y="699" on="0"/>
        <pt x="498" y="654" on="1"/>
        <pt x="539" y="609" on="0"/>
        <pt x="590" y="475" on="0"/>
      </contour>
      <contour>
        <pt x="505" y="409" on="1"/>
        <pt x="502" y="447" on="0"/>
        <pt x="494" y="502" on="0"/>
        <pt x="487" y="522" on="1"/>
        <pt x="487" y="504" on="0"/>
        <pt x="480" y="467" on="0"/>
        <pt x="462" y="431" on="0"/>
        <pt x="431" y="399" on="0"/>
        <pt x="407" y="388" on="1"/>
        <pt x="371" y="371" on="0"/>
        <pt x="307" y="368" on="0"/>
        <pt x="257" y="390" on="0"/>
        <pt x="224" y="437" on="0"/>
        <pt x="220" y="471" on="1"/>
        <pt x="215" y="505" on="0"/>
        <pt x="236" y="558" on="0"/>
        <pt x="272" y="595" on="0"/>
        <pt x="318" y="615" on="0"/>
        <pt x="340" y="617" on="1"/>
        <pt x="347" y="617" on="0"/>
        <pt x="371" y="614" on="0"/>
        <pt x="395" y="601" on="0"/>
        <pt x="413" y="573" on="0"/>
        <pt x="414" y="549" on="1"/>
        <pt x="415" y="524" on="0"/>
        <pt x="392" y="489" on="0"/>
        <pt x="359" y="469" on="0"/>
        <pt x="324" y="466" on="0"/>
        <pt x="312" y="472" on="1"/>
        <pt x="301" y="479" on="0"/>
        <pt x="297" y="500" on="0"/>
        <pt x="305" y="519" on="0"/>
        <pt x="322" y="531" on="0"/>
        <pt x="332" y="529" on="1"/>
        <pt x="347" y="525" on="0"/>
        <pt x="354" y="500" on="0"/>
        <pt x="351" y="489" on="1"/>
        <pt x="371" y="494" on="0"/>
        <pt x="390" y="526" on="0"/>
        <pt x="389" y="560" on="0"/>
        <pt x="368" y="587" on="0"/>
        <pt x="347" y="587" on="1"/>
        <pt x="309" y="587" on="0"/>
        <pt x="253" y="538" on="0"/>
        <pt x="252" y="492" on="1"/>
        <pt x="252" y="477" on="0"/>
        <pt x="258" y="443" on="0"/>
        <pt x="277" y="415" on="0"/>
        <pt x="311" y="398" on="0"/>
        <pt x="340" y="400" on="1"/>
        <pt x="368" y="402" on="0"/>
        <pt x="411" y="427" on="0"/>
        <pt x="440" y="464" on="0"/>
        <pt x="456" y="510" on="0"/>
        <pt x="456" y="534" on="1"/>
        <pt x="457" y="577" on="0"/>
        <pt x="435" y="634" on="0"/>
        <pt x="400" y="669" on="0"/>
        <pt x="357" y="683" on="0"/>
        <pt x="337" y="684" on="1"/>
        <pt x="293" y="685" on="0"/>
        <pt x="211" y="624" on="0"/>
        <pt x="145" y="528" on="0"/>
        <pt x="102" y="407" on="0"/>
        <pt x="99" y="348" on="1"/>
        <pt x="98" y="318" on="0"/>
        <pt x="102" y="245" on="0"/>
        <pt x="116" y="169" on="0"/>
        <pt x="141" y="96" on="0"/>
        <pt x="179" y="38" on="0"/>
        <pt x="231" y="0" on="0"/>
        <pt x="266" y="-2" on="1"/>
        <pt x="300" y="-5" on="0"/>
        <pt x="364" y="32" on="0"/>
        <pt x="419" y="96" on="0"/>
        <pt x="463" y="182" on="0"/>
        <pt x="493" y="275" on="0"/>
        <pt x="507" y="369" on="0"/>
      </contour>
    </TTGlyph>
    <TTGlyph name="Otilde" xMin="13" yMin="-64" xMax="596" yMax="874">
      <component glyphName="O" x="0" y="0" flags="0x204"/>
      <component glyphName="tilde" x="20" y="154" flags="0x4"/>
    </TTGlyph>
    <TTGlyph name="P" xMin="-51" yMin="-29" xMax="547" yMax="772">
      <contour>
        <pt x="75" y="566" on="1"/>
        <pt x="68" y="609" on="0"/>
        <pt x="48" y="669" on="0"/>
        <pt x="18" y="710" on="0"/>
        <pt x="-23" y="735" on="0"/>
        <pt x="-51" y="741" on="1"/>
        <pt x="-47" y="766" on="1"/>
        <pt x="-32" y="760" on="0"/>
        <pt x="12" y="743" on="0"/>
        <pt x="69" y="730" on="0"/>
        <pt x="138" y="727" on="0"/>
        <pt x="179" y="736" on="1"/>
        <pt x="175" y="710" on="0"/>
        <pt x="168" y="636" on="0"/>
        <pt x="166" y="601" on="1"/>
        <pt x="182" y="634" on="0"/>
        <pt x="227" y="699" on="0"/>
        <pt x="286" y="748" on="0"/>
        <pt x="359" y="772" on="0"/>
        <pt x="403" y="765" on="1"/>
        <pt x="437" y="759" on="0"/>
        <pt x="493" y="710" on="0"/>
        <pt x="531" y="633" on="0"/>
        <pt x="547" y="533" on="0"/>
        <pt x="542" y="478" on="1"/>
        <pt x="536" y="422" on="0"/>
        <pt x="506" y="322" on="0"/>
        <pt x="455" y="249" on="0"/>
        <pt x="382" y="208" on="0"/>
        <pt x="334" y="213" on="1"/>
        <pt x="302" y="216" on="0"/>
        <pt x="247" y="241" on="0"/>
        <pt x="201" y="280" on="0"/>
        <pt x="165" y="330" on="0"/>
        <pt x="152" y="357" on="1"/>
        <pt x="152" y="331" on="0"/>
        <pt x="154" y="266" on="0"/>
        <pt x="158" y="199" on="0"/>
        <pt x="164" y="132" on="0"/>
        <pt x="168" y="104" on="1"/>
        <pt x="173" y="70" on="0"/>
        <pt x="193" y="31" on="0"/>
        <pt x="217" y="10" on="0"/>
        <pt x="241" y="2" on="0"/>
        <pt x="250" y="-1" on="1"/>
        <pt x="246" y="-20" on="1"/>
        <pt x="213" y="-13" on="0"/>
        <pt x="144" y="-9" on="0"/>
        <pt x="81" y="-12" on="0"/>
        <pt x="28" y="-22" on="0"/>
        <pt x="12" y="-29" on="1"/>
        <pt x="11" y="-1" on="1"/>
        <pt x="24" y="10" on="0"/>
        <pt x="46" y="29" on="0"/>
        <pt x="63" y="65" on="0"/>
        <pt x="74" y="126" on="0"/>
        <pt x="76" y="178" on="1"/>
        <pt x="80" y="282" on="0"/>
        <pt x="88" y="481" on="0"/>
      </contour>
      <contour>
        <pt x="160" y="483" on="1"/>
        <pt x="158" y="455" on="0"/>
        <pt x="177" y="386" on="0"/>
        <pt x="216" y="323" on="0"/>
        <pt x="273" y="277" on="0"/>
        <pt x="309" y="274" on="1"/>
        <pt x="340" y="271" on="0"/>
        <pt x="386" y="297" on="0"/>
        <pt x="419" y="341" on="0"/>
        <pt x="441" y="397" on="0"/>
        <pt x="453" y="454" on="0"/>
        <pt x="458" y="505" on="0"/>
        <pt x="459" y="522" on="1"/>
        <pt x="459" y="550" on="0"/>
        <pt x="447" y="613" on="0"/>
        <pt x="420" y="667" on="0"/>
        <pt x="379" y="703" on="0"/>
        <pt x="352" y="705" on="1"/>
        <pt x="316" y="706" on="0"/>
        <pt x="249" y="663" on="0"/>
        <pt x="197" y="597" on="0"/>
        <pt x="163" y="518" on="0"/>
      </contour>
    </TTGlyph>
    <TTGlyph name="Q" xMin="5" yMin="-302" xMax="774" yMax="763">
      <contour>
        <pt x="300" y="10" on="1"/>
        <pt x="340" y="12" on="0"/>
        <pt x="378" y="38" on="1"/>
        <pt x="364" y="60" on="0"/>
        <pt x="335" y="94" on="0"/>
        <pt x="318" y="105" on="1"/>
        <pt x="302" y="116" on="0"/>
        <pt x="262" y="127" on="0"/>
        <pt x="245" y="125" on="1"/>
        <pt x="227" y="123" on="0"/>
        <pt x="205" y="101" on="0"/>
        <pt x="208" y="80" on="1"/>
        <pt x="209" y="69" on="0"/>
        <pt x="224" y="44" on="0"/>
        <pt x="248" y="23" on="0"/>
        <pt x="280" y="9" on="0"/>
      </contour>
      <contour>
        <pt x="288" y="-40" on="1"/>
        <pt x="233" y="-39" on="0"/>
        <pt x="128" y="23" on="0"/>
        <pt x="48" y="132" on="0"/>
        <pt x="5" y="284" on="0"/>
        <pt x="11" y="376" on="1"/>
        <pt x="17" y="457" on="0"/>
        <pt x="67" y="599" on="0"/>
        <pt x="152" y="704" on="0"/>
        <pt x="271" y="763" on="0"/>
        <pt x="347" y="761" on="1"/>
        <pt x="407" y="759" on="0"/>
        <pt x="507" y="704" on="0"/>
        <pt x="580" y="606" on="0"/>
        <pt x="620" y="469" on="0"/>
        <pt x="620" y="385" on="1"/>
        <pt x="619" y="328" on="0"/>
        <pt x="596" y="217" on="0"/>
        <pt x="554" y="120" on="0"/>
        <pt x="493" y="39" on="0"/>
        <pt x="454" y="11" on="1"/>
        <pt x="467" y="-31" on="0"/>
        <pt x="496" y="-124" on="0"/>
        <pt x="534" y="-203" on="0"/>
        <pt x="586" y="-259" on="0"/>
        <pt x="622" y="-264" on="1"/>
        <pt x="658" y="-269" on="0"/>
        <pt x="705" y="-245" on="0"/>
        <pt x="733" y="-206" on="0"/>
        <pt x="744" y="-160" on="0"/>
        <pt x="743" y="-143" on="1"/>
        <pt x="743" y="-126" on="0"/>
        <pt x="727" y="-97" on="0"/>
        <pt x="702" y="-77" on="0"/>
        <pt x="671" y="-68" on="0"/>
        <pt x="655" y="-72" on="1"/>
        <pt x="639" y="-76" on="0"/>
        <pt x="612" y="-93" on="0"/>
        <pt x="596" y="-115" on="0"/>
        <pt x="591" y="-142" on="0"/>
        <pt x="597" y="-155" on="1"/>
        <pt x="603" y="-168" on="0"/>
        <pt x="623" y="-182" on="0"/>
        <pt x="645" y="-186" on="0"/>
        <pt x="665" y="-182" on="0"/>
        <pt x="671" y="-178" on="1"/>
        <pt x="680" y="-170" on="0"/>
        <pt x="688" y="-136" on="0"/>
        <pt x="671" y="-124" on="1"/>
        <pt x="672" y="-132" on="0"/>
        <pt x="664" y="-148" on="0"/>
        <pt x="653" y="-152" on="1"/>
        <pt x="642" y="-155" on="0"/>
        <pt x="624" y="-144" on="0"/>
        <pt x="619" y="-126" on="0"/>
        <pt x="630" y="-106" on="0"/>
        <pt x="647" y="-100" on="1"/>
        <pt x="654" y="-98" on="0"/>
        <pt x="675" y="-100" on="0"/>
        <pt x="695" y="-111" on="0"/>
        <pt x="709" y="-130" on="0"/>
        <pt x="709" y="-145" on="1"/>
        <pt x="709" y="-160" on="0"/>
        <pt x="698" y="-186" on="0"/>
        <pt x="679" y="-204" on="0"/>
        <pt x="655" y="-214" on="0"/>
        <pt x="642" y="-214" on="1"/>
        <pt x="629" y="-214" on="0"/>
        <pt x="603" y="-207" on="0"/>
        <pt x="580" y="-192" on="0"/>
        <pt x="566" y="-166" on="0"/>
        <pt x="565" y="-145" on="1"/>
        <pt x="564" y="-124" on="0"/>
        <pt x="580" y="-89" on="0"/>
        <pt x="606" y="-62" on="0"/>
        <pt x="640" y="-47" on="0"/>
        <pt x="658" y="-46" on="1"/>
        <pt x="684" y="-44" on="0"/>
        <pt x="726" y="-60" on="0"/>
        <pt x="756" y="-90" on="0"/>
        <pt x="772" y="-132" on="0"/>
        <pt x="773" y="-156" on="1"/>
        <pt x="774" y="-182" on="0"/>
        <pt x="755" y="-235" on="0"/>
        <pt x="719" y="-277" on="0"/>
        <pt x="667" y="-302" on="0"/>
        <pt x="634" y="-300" on="1"/>
        <pt x="586" y="-298" on="0"/>
        <pt x="505" y="-251" on="0"/>
        <pt x="472" y="-195" on="1"/>
        <pt x="460" y="-173" on="0"/>
        <pt x="442" y="-120" on="0"/>
        <pt x="432" y="-90" on="1"/>
        <pt x="426" y="-70" on="0"/>
        <pt x="413" y="-33" on="0"/>
        <pt x="406" y="-16" on="1"/>
        <pt x="352" y="-41" on="0"/>
      </contour>
      <contour>
        <pt x="332" y="726" on="1"/>
        <pt x="290" y="724" on="0"/>
        <pt x="202" y="663" on="0"/>
        <pt x="131" y="559" on="0"/>
        <pt x="87" y="419" on="0"/>
        <pt x="89" y="340" on="1"/>
        <pt x="91" y="264" on="0"/>
        <pt x="134" y="156" on="0"/>
        <pt x="156" y="125" on="1"/>
        <pt x="159" y="142" on="0"/>
        <pt x="184" y="169" on="0"/>
        <pt x="209" y="178" on="1"/>
        <pt x="232" y="187" on="0"/>
        <pt x="291" y="184" on="0"/>
        <pt x="351" y="160" on="0"/>
        <pt x="406" y="115" on="0"/>
        <pt x="426" y="81" on="1"/>
        <pt x="468" y="129" on="0"/>
        <pt x="526" y="297" on="0"/>
        <pt x="525" y="417" on="1"/>
        <pt x="525" y="474" on="0"/>
        <pt x="496" y="586" on="0"/>
        <pt x="445" y="674" on="0"/>
        <pt x="374" y="727" on="0"/>
      </contour>
    </TTGlyph>
    <TTGlyph name="R" xMin="-20" yMin="-95" xMax="579" yMax="756">
      <contour>
        <pt x="-20" y="-19" on="1"/>
        <pt x="-2" y="-13" on="0"/>
        <pt x="28" y="5" on="0"/>
        <pt x="51" y="34" on="0"/>
        <pt x="65" y="78" on="0"/>
        <pt x="67" y="110" on="1"/>
        <pt x="68" y="131" on="0"/>
        <pt x="71" y="210" on="0"/>
        <pt x="74" y="308" on="0"/>
        <pt x="76" y="417" on="0"/>
        <pt x="77" y="521" on="0"/>
        <pt x="76" y="611" on="0"/>
        <pt x="74" y="641" on="1"/>
        <pt x="72" y="663" on="0"/>
        <pt x="54" y="696" on="0"/>
        <pt x="27" y="717" on="0"/>
        <pt x="-4" y="728" on="0"/>
        <pt x="-17" y="730" on="1"/>
        <pt x="-17" y="756" on="1"/>
        <pt x="0" y="749" on="0"/>
        <pt x="41" y="738" on="0"/>
        <pt x="95" y="730" on="0"/>
        <pt x="164" y="726" on="0"/>
        <pt x="209" y="728" on="1"/>
        <pt x="239" y="729" on="0"/>
        <pt x="313" y="730" on="0"/>
        <pt x="387" y="719" on="0"/>
        <pt x="456" y="694" on="0"/>
        <pt x="506" y="644" on="0"/>
        <pt x="531" y="565" on="0"/>
        <pt x="525" y="506" on="1"/>
        <pt x="517" y="437" on="0"/>
        <pt x="472" y="348" on="0"/>
        <pt x="409" y="297" on="0"/>
        <pt x="336" y="278" on="0"/>
        <pt x="301" y="279" on="1"/>
        <pt x="349" y="252" on="0"/>
        <pt x="411" y="162" on="0"/>
        <pt x="431" y="99" on="1"/>
        <pt x="443" y="63" on="0"/>
        <pt x="464" y="3" on="0"/>
        <pt x="496" y="-40" on="0"/>
        <pt x="542" y="-61" on="0"/>
        <pt x="579" y="-58" on="1"/>
        <pt x="573" y="-78" on="1"/>
        <pt x="556" y="-75" on="0"/>
        <pt x="496" y="-76" on="0"/>
        <pt x="430" y="-81" on="0"/>
        <pt x="369" y="-89" on="0"/>
        <pt x="351" y="-95" on="1"/>
        <pt x="345" y="-76" on="1"/>
        <pt x="374" y="-62" on="0"/>
        <pt x="394" y="-6" on="0"/>
        <pt x="379" y="47" on="1"/>
        <pt x="371" y="73" on="0"/>
        <pt x="349" y="144" on="0"/>
        <pt x="317" y="212" on="0"/>
        <pt x="271" y="268" on="0"/>
        <pt x="240" y="279" on="1"/>
        <pt x="207" y="290" on="0"/>
        <pt x="160" y="292" on="0"/>
        <pt x="145" y="288" on="1"/>
        <pt x="145" y="243" on="0"/>
        <pt x="147" y="152" on="0"/>
        <pt x="163" y="73" on="0"/>
        <pt x="197" y="13" on="0"/>
        <pt x="230" y="0" on="1"/>
        <pt x="225" y="-16" on="1"/>
        <pt x="208" y="-14" on="0"/>
        <pt x="146" y="-11" on="0"/>
        <pt x="76" y="-16" on="0"/>
        <pt x="7" y="-29" on="0"/>
        <pt x="-16" y="-44" on="1"/>
      </contour>
      <contour>
        <pt x="173" y="683" on="1"/>
        <pt x="162" y="639" on="0"/>
        <pt x="147" y="542" on="0"/>
        <pt x="138" y="447" on="0"/>
        <pt x="136" y="361" on="0"/>
        <pt x="138" y="330" on="1"/>
        <pt x="201" y="319" on="0"/>
        <pt x="303" y="322" on="0"/>
        <pt x="377" y="364" on="0"/>
        <pt x="422" y="451" on="0"/>
        <pt x="428" y="524" on="1"/>
        <pt x="432" y="568" on="0"/>
        <pt x="409" y="628" on="0"/>
        <pt x="367" y="666" on="0"/>
        <pt x="312" y="685" on="0"/>
        <pt x="252" y="691" on="0"/>
        <pt x="195" y="687" on="0"/>
      </contour>
    </TTGlyph>
    <TTGlyph name="S" xMin="5" yMin="-81" xMax="481" yMax="773">
      <contour>
        <pt x="163" y="112" on="1"/>
        <pt x="153" y="112" on="0"/>
        <pt x="144" y="124" on="0"/>
        <pt x="144" y="138" on="0"/>
        <pt x="152" y="149" on="0"/>
        <pt x="160" y="148" on="1"/>
        <pt x="154" y="154" on="0"/>
        <pt x="140" y="153" on="1"/>
        <pt x="129" y="151" on="0"/>
        <pt x="110" y="126" on="0"/>
        <pt x="112" y="109" on="1"/>
        <pt x="113" y="91" on="0"/>
        <pt x="141" y="59" on="0"/>
        <pt x="166" y="60" on="1"/>
        <pt x="179" y="60" on="0"/>
        <pt x="203" y="74" on="0"/>
        <pt x="221" y="97" on="0"/>
        <pt x="231" y="127" on="0"/>
        <pt x="231" y="143" on="1"/>
        <pt x="230" y="160" on="0"/>
        <pt x="216" y="193" on="0"/>
        <pt x="191" y="220" on="0"/>
        <pt x="155" y="237" on="0"/>
        <pt x="132" y="237" on="1"/>
        <pt x="86" y="237" on="0"/>
        <pt x="34" y="181" on="0"/>
        <pt x="36" y="127" on="1"/>
        <pt x="37" y="100" on="0"/>
        <pt x="63" y="45" on="0"/>
        <pt x="110" y="1" on="0"/>
        <pt x="175" y="-26" on="0"/>
        <pt x="214" y="-26" on="1"/>
        <pt x="250" y="-26" on="0"/>
        <pt x="304" y="2" on="0"/>
        <pt x="342" y="47" on="0"/>
        <pt x="361" y="105" on="0"/>
        <pt x="361" y="136" on="1"/>
        <pt x="361" y="156" on="0"/>
        <pt x="348" y="204" on="0"/>
        <pt x="315" y="258" on="0"/>
        <pt x="261" y="318" on="0"/>
        <pt x="220" y="349" on="1"/>
        <pt x="180" y="380" on="0"/>
        <pt x="109" y="434" on="0"/>
        <pt x="56" y="487" on="0"/>
        <pt x="25" y="546" on="0"/>
        <pt x="25" y="583" on="1"/>
        <pt x="25" y="620" on="0"/>
        <pt x="52" y="689" on="0"/>
        <pt x="105" y="741" on="0"/>
        <pt x="183" y="772" on="0"/>
        <pt x="233" y="770" on="1"/>
        <pt x="262" y="769" on="0"/>
        <pt x="315" y="751" on="0"/>
        <pt x="362" y="733" on="0"/>
        <pt x="404" y="722" on="0"/>
        <pt x="422" y="729" on="1"/>
        <pt x="430" y="732" on="0"/>
        <pt x="436" y="738" on="1"/>
        <pt x="441" y="743" on="0"/>
        <pt x="451" y="759" on="0"/>
        <pt x="453" y="773" on="1"/>
        <pt x="481" y="771" on="1"/>
        <pt x="478" y="752" on="0"/>
        <pt x="470" y="694" on="0"/>
        <pt x="467" y="631" on="0"/>
        <pt x="471" y="570" on="0"/>
        <pt x="479" y="548" on="1"/>
        <pt x="453" y="542" on="1"/>
        <pt x="444" y="570" on="0"/>
        <pt x="421" y="627" on="0"/>
        <pt x="390" y="675" on="0"/>
        <pt x="350" y="713" on="0"/>
        <pt x="323" y="724" on="1"/>
        <pt x="299" y="733" on="0"/>
        <pt x="250" y="740" on="0"/>
        <pt x="205" y="726" on="0"/>
        <pt x="164" y="690" on="0"/>
        <pt x="147" y="656" on="1"/>
        <pt x="130" y="622" on="0"/>
        <pt x="137" y="538" on="0"/>
        <pt x="156" y="507" on="1"/>
        <pt x="167" y="487" on="0"/>
        <pt x="198" y="452" on="0"/>
        <pt x="232" y="421" on="0"/>
        <pt x="269" y="391" on="0"/>
        <pt x="287" y="376" on="1"/>
        <pt x="322" y="345" on="0"/>
        <pt x="382" y="283" on="0"/>
        <pt x="425" y="218" on="0"/>
        <pt x="449" y="149" on="0"/>
        <pt x="449" y="113" on="1"/>
        <pt x="449" y="76" on="0"/>
        <pt x="413" y="6" on="0"/>
        <pt x="350" y="-48" on="0"/>
        <pt x="267" y="-81" on="0"/>
        <pt x="221" y="-81" on="1"/>
        <pt x="176" y="-81" on="0"/>
        <pt x="97" y="-50" on="0"/>
        <pt x="39" y="7" on="0"/>
        <pt x="5" y="84" on="0"/>
        <pt x="5" y="131" on="1"/>
        <pt x="5" y="168" on="0"/>
        <pt x="27" y="219" on="0"/>
        <pt x="63" y="251" on="0"/>
        <pt x="109" y="265" on="0"/>
        <pt x="133" y="265" on="1"/>
        <pt x="158" y="265" on="0"/>
        <pt x="205" y="250" on="0"/>
        <pt x="241" y="218" on="0"/>
        <pt x="262" y="168" on="0"/>
        <pt x="262" y="134" on="1"/>
        <pt x="262" y="110" on="0"/>
        <pt x="241" y="73" on="0"/>
        <pt x="209" y="48" on="0"/>
        <pt x="172" y="36" on="0"/>
        <pt x="156" y="37" on="1"/>
        <pt x="140" y="38" on="0"/>
        <pt x="114" y="52" on="0"/>
        <pt x="95" y="72" on="0"/>
        <pt x="85" y="95" on="0"/>
        <pt x="85" y="106" on="1"/>
        <pt x="86" y="116" on="0"/>
        <pt x="93" y="140" on="0"/>
        <pt x="109" y="161" on="0"/>
        <pt x="133" y="174" on="0"/>
        <pt x="150" y="174" on="1"/>
        <pt x="166" y="174" on="0"/>
        <pt x="186" y="155" on="0"/>
        <pt x="187" y="141" on="1"/>
        <pt x="189" y="129" on="0"/>
        <pt x="174" y="112" on="0"/>
      </contour>
    </TTGlyph>
    <TTGlyph name="Scaron" xMin="5" yMin="-81" xMax="481" yMax="969">
      <component glyphName="S" x="0" y="0" flags="0x204"/>
      <component glyphName="caron" x="-60" y="205" flags="0x4"/>
    </TTGlyph>
    <TTGlyph name="T" xMin="-20" yMin="-54" xMax="504" yMax="761">
      <contour>
        <pt x="-13" y="468" on="1"/>
        <pt x="-8" y="538" on="0"/>
        <pt x="-5" y="680" on="0"/>
        <pt x="-20" y="761" on="1"/>
        <pt x="39" y="754" on="0"/>
        <pt x="164" y="739" on="0"/>
        <pt x="296" y="730" on="0"/>
        <pt x="433" y="732" on="0"/>
        <pt x="504" y="741" on="1"/>
        <pt x="470" y="450" on="1"/>
        <pt x="451" y="450" on="1"/>
        <pt x="455" y="502" on="0"/>
        <pt x="460" y="589" on="0"/>
        <pt x="436" y="654" on="0"/>
        <pt x="369" y="695" on="0"/>
        <pt x="301" y="702" on="1"/>
        <pt x="291" y="641" on="0"/>
        <pt x="284" y="488" on="0"/>
        <pt x="287" y="332" on="0"/>
        <pt x="298" y="188" on="0"/>
        <pt x="307" y="137" on="1"/>
        <pt x="315" y="92" on="0"/>
        <pt x="341" y="36" on="0"/>
        <pt x="373" y="2" on="0"/>
        <pt x="409" y="-14" on="0"/>
        <pt x="426" y="-20" on="1"/>
        <pt x="418" y="-43" on="1"/>
        <pt x="387" y="-31" on="0"/>
        <pt x="303" y="-23" on="0"/>
        <pt x="221" y="-29" on="0"/>
        <pt x="150" y="-44" on="0"/>
        <pt x="131" y="-54" on="1"/>
        <pt x="123" y="-26" on="1"/>
        <pt x="141" y="-16" on="0"/>
        <pt x="173" y="11" on="0"/>
        <pt x="199" y="56" on="0"/>
        <pt x="215" y="125" on="0"/>
        <pt x="217" y="177" on="1"/>
        <pt x="218" y="210" on="0"/>
        <pt x="217" y="300" on="0"/>
        <pt x="213" y="402" on="0"/>
        <pt x="208" y="507" on="0"/>
        <pt x="202" y="603" on="0"/>
        <pt x="196" y="681" on="0"/>
        <pt x="194" y="705" on="1"/>
        <pt x="134" y="702" on="0"/>
        <pt x="65" y="671" on="0"/>
        <pt x="29" y="614" on="0"/>
        <pt x="17" y="531" on="0"/>
        <pt x="15" y="474" on="1"/>
        <pt x="-13" y="468" on="1"/>
      </contour>
    </TTGlyph>
    <TTGlyph name="Thorn" xMin="5" yMin="-58" xMax="552" yMax="768">
      <contour>
        <pt x="101" y="671" on="1"/>
        <pt x="87" y="706" on="0"/>
        <pt x="37" y="737" on="0"/>
        <pt x="5" y="740" on="1"/>
        <pt x="9" y="768" on="1"/>
        <pt x="21" y="766" on="0"/>
        <pt x="74" y="758" on="0"/>
        <pt x="140" y="751" on="0"/>
        <pt x="213" y="749" on="0"/>
        <pt x="245" y="752" on="1"/>
        <pt x="241" y="738" on="0"/>
        <pt x="226" y="652" on="0"/>
        <pt x="219" y="593" on="1"/>
        <pt x="244" y="598" on="0"/>
        <pt x="312" y="601" on="0"/>
        <pt x="386" y="591" on="0"/>
        <pt x="459" y="564" on="0"/>
        <pt x="516" y="513" on="0"/>
        <pt x="552" y="437" on="0"/>
        <pt x="552" y="382" on="1"/>
        <pt x="552" y="334" on="0"/>
        <pt x="518" y="260" on="0"/>
        <pt x="462" y="206" on="0"/>
        <pt x="389" y="171" on="0"/>
        <pt x="310" y="151" on="0"/>
        <pt x="232" y="145" on="0"/>
        <pt x="199" y="147" on="1"/>
        <pt x="201" y="111" on="0"/>
        <pt x="208" y="55" on="0"/>
        <pt x="214" y="40" on="1"/>
        <pt x="221" y="28" on="0"/>
        <pt x="233" y="17" on="1"/>
        <pt x="244" y="8" on="0"/>
        <pt x="281" y="-7" on="0"/>
        <pt x="310" y="-9" on="1"/>
        <pt x="304" y="-37" on="1"/>
        <pt x="274" y="-34" on="0"/>
        <pt x="201" y="-34" on="0"/>
        <pt x="128" y="-40" on="0"/>
        <pt x="63" y="-51" on="0"/>
        <pt x="41" y="-58" on="1"/>
        <pt x="40" y="-50" on="0"/>
        <pt x="40" y="-39" on="0"/>
        <pt x="39" y="-35" on="1"/>
        <pt x="38" y="-31" on="0"/>
        <pt x="37" y="-27" on="1"/>
        <pt x="48" y="-21" on="0"/>
        <pt x="66" y="-8" on="0"/>
        <pt x="82" y="13" on="0"/>
        <pt x="96" y="48" on="0"/>
        <pt x="104" y="76" on="1"/>
        <pt x="112" y="104" on="0"/>
        <pt x="123" y="188" on="0"/>
        <pt x="129" y="288" on="0"/>
        <pt x="129" y="399" on="0"/>
        <pt x="127" y="455" on="1"/>
        <pt x="125" y="517" on="0"/>
        <pt x="119" y="627" on="0"/>
      </contour>
      <contour>
        <pt x="206" y="451" on="1"/>
        <pt x="203" y="406" on="0"/>
        <pt x="198" y="299" on="0"/>
        <pt x="198" y="246" on="1"/>
        <pt x="198" y="225" on="0"/>
        <pt x="207" y="208" on="0"/>
        <pt x="219" y="208" on="1"/>
        <pt x="226" y="208" on="0"/>
        <pt x="265" y="210" on="0"/>
        <pt x="317" y="221" on="0"/>
        <pt x="373" y="243" on="0"/>
        <pt x="420" y="283" on="0"/>
        <pt x="448" y="344" on="0"/>
        <pt x="447" y="388" on="1"/>
        <pt x="446" y="428" on="0"/>
        <pt x="419" y="484" on="0"/>
        <pt x="378" y="520" on="0"/>
        <pt x="330" y="540" on="0"/>
        <pt x="285" y="549" on="0"/>
        <pt x="249" y="551" on="0"/>
        <pt x="241" y="551" on="1"/>
        <pt x="220" y="552" on="0"/>
        <pt x="211" y="514" on="0"/>
        <pt x="208" y="486" on="1"/>
        <pt x="207" y="477" on="0"/>
        <pt x="207" y="459" on="0"/>
      </contour>
    </TTGlyph>
    <TTGlyph name="U" xMin="-20" yMin="-60" xMax="668" yMax="732">
      <contour>
        <pt x="50" y="330" on="1"/>
        <pt x="62" y="418" on="0"/>
        <pt x="71" y="558" on="0"/>
        <pt x="57" y="655" on="0"/>
        <pt x="17" y="709" on="0"/>
        <pt x="-20" y="711" on="1"/>
        <pt x="-16" y="732" on="1"/>
        <pt x="8" y="729" on="0"/>
        <pt x="62" y="720" on="0"/>
        <pt x="123" y="715" on="0"/>
        <pt x="189" y="716" on="0"/>
        <pt x="224" y="722" on="1"/>
        <pt x="222" y="699" on="1"/>
        <pt x="213" y="696" on="0"/>
        <pt x="190" y="665" on="0"/>
        <pt x="168" y="602" on="0"/>
        <pt x="149" y="504" on="0"/>
        <pt x="143" y="434" on="1"/>
        <pt x="140" y="388" on="0"/>
        <pt x="135" y="284" on="0"/>
        <pt x="140" y="185" on="0"/>
        <pt x="160" y="96" on="0"/>
        <pt x="200" y="30" on="0"/>
        <pt x="266" y="-4" on="0"/>
        <pt x="316" y="1" on="1"/>
        <pt x="357" y="5" on="0"/>
        <pt x="407" y="69" on="0"/>
        <pt x="433" y="172" on="0"/>
        <pt x="440" y="305" on="0"/>
        <pt x="438" y="378" on="1"/>
        <pt x="436" y="458" on="0"/>
        <pt x="432" y="569" on="0"/>
        <pt x="418" y="607" on="1"/>
        <pt x="406" y="638" on="0"/>
        <pt x="367" y="663" on="0"/>
        <pt x="340" y="671" on="1"/>
        <pt x="343" y="695" on="1"/>
        <pt x="400" y="689" on="0"/>
        <pt x="525" y="689" on="0"/>
        <pt x="579" y="700" on="1"/>
        <pt x="582" y="683" on="1"/>
        <pt x="568" y="675" on="0"/>
        <pt x="543" y="652" on="0"/>
        <pt x="524" y="616" on="0"/>
        <pt x="512" y="566" on="0"/>
        <pt x="511" y="532" on="1"/>
        <pt x="511" y="498" on="0"/>
        <pt x="512" y="409" on="0"/>
        <pt x="517" y="306" on="0"/>
        <pt x="525" y="192" on="0"/>
        <pt x="531" y="133" on="1"/>
        <pt x="538" y="74" on="0"/>
        <pt x="567" y="0" on="0"/>
        <pt x="602" y="-27" on="0"/>
        <pt x="638" y="-4" on="0"/>
        <pt x="653" y="35" on="1"/>
        <pt x="668" y="25" on="1"/>
        <pt x="664" y="5" on="0"/>
        <pt x="637" y="-33" on="0"/>
        <pt x="598" y="-56" on="0"/>
        <pt x="553" y="-60" on="0"/>
        <pt x="509" y="-31" on="0"/>
        <pt x="471" y="37" on="0"/>
        <pt x="459" y="96" on="1"/>
        <pt x="450" y="70" on="0"/>
        <pt x="424" y="15" on="0"/>
        <pt x="380" y="-28" on="0"/>
        <pt x="312" y="-53" on="0"/>
        <pt x="261" y="-50" on="1"/>
        <pt x="138" y="-43" on="0"/>
        <pt x="26" y="151" on="0"/>
      </contour>
    </TTGlyph>
    <TTGlyph name="Uacute" xMin="-20" yMin="-60" xMax="668" yMax="912">
      <component glyphName="U" x="0" y="0" flags="0x204"/>
      <component glyphName="acute" x="41" y="143" flags="0x4"/>
    </TTGlyph>
    <TTGlyph name="Ucircumflex" xMin="-20" yMin="-60" xMax="668" yMax="928">
      <component glyphName="U" x="0" y="0" flags="0x204"/>
      <component glyphName="circumflex" x="-19" y="164" flags="0x4"/>
    </TTGlyph>
    <TTGlyph name="Udieresis" xMin="-20" yMin="-60" xMax="668" yMax="852">
      <component glyphName="U" x="0" y="0" flags="0x204"/>
      <component glyphName="dieresis" x="-9" y="113" flags="0x4"/>
    </TTGlyph>
    <TTGlyph name="Ugrave" xMin="-20" yMin="-60" xMax="668" yMax="912">
      <component glyphName="U" x="0" y="0" flags="0x204"/>
      <component glyphName="grave" x="-19" y="143" flags="0x4"/>
    </TTGlyph>
    <TTGlyph name="V" xMin="-92" yMin="-45" xMax="578" yMax="753">
      <contour>
        <pt x="24" y="573" on="1"/>
        <pt x="12" y="607" on="0"/>
        <pt x="-6" y="653" on="0"/>
        <pt x="-28" y="680" on="0"/>
        <pt x="-63" y="692" on="0"/>
        <pt x="-92" y="694" on="1"/>
        <pt x="-92" y="716" on="1"/>
        <pt x="-67" y="713" on="0"/>
        <pt x="-1" y="710" on="0"/>
        <pt x="71" y="717" on="0"/>
        <pt x="146" y="735" on="0"/>
        <pt x="181" y="753" on="1"/>
        <pt x="189" y="726" on="1"/>
        <pt x="171" y="718" on="0"/>
        <pt x="143" y="703" on="0"/>
        <pt x="128" y="674" on="0"/>
        <pt x="124" y="625" on="0"/>
        <pt x="130" y="584" on="1"/>
        <pt x="133" y="564" on="0"/>
        <pt x="146" y="499" on="0"/>
        <pt x="164" y="421" on="0"/>
        <pt x="186" y="334" on="0"/>
        <pt x="208" y="248" on="0"/>
        <pt x="228" y="170" on="0"/>
        <pt x="236" y="140" on="1"/>
        <pt x="255" y="185" on="0"/>
        <pt x="292" y="295" on="0"/>
        <pt x="323" y="403" on="0"/>
        <pt x="347" y="499" on="0"/>
        <pt x="352" y="531" on="1"/>
        <pt x="358" y="569" on="0"/>
        <pt x="358" y="617" on="0"/>
        <pt x="348" y="648" on="0"/>
        <pt x="330" y="666" on="0"/>
        <pt x="318" y="674" on="1"/>
        <pt x="325" y="701" on="1"/>
        <pt x="345" y="693" on="0"/>
        <pt x="403" y="683" on="0"/>
        <pt x="470" y="676" on="0"/>
        <pt x="542" y="672" on="0"/>
        <pt x="578" y="671" on="1"/>
        <pt x="572" y="654" on="1"/>
        <pt x="518" y="648" on="0"/>
        <pt x="443" y="568" on="0"/>
        <pt x="415" y="490" on="1"/>
        <pt x="401" y="451" on="0"/>
        <pt x="370" y="360" on="0"/>
        <pt x="339" y="263" on="0"/>
        <pt x="310" y="165" on="0"/>
        <pt x="299" y="119" on="1"/>
        <pt x="290" y="85" on="0"/>
        <pt x="286" y="56" on="1"/>
        <pt x="282" y="31" on="0"/>
        <pt x="279" y="-15" on="0"/>
        <pt x="287" y="-23" on="1"/>
        <pt x="229" y="-45" on="1"/>
        <pt x="212" y="-21" on="0"/>
        <pt x="190" y="20" on="0"/>
        <pt x="171" y="76" on="0"/>
        <pt x="148" y="158" on="0"/>
        <pt x="130" y="223" on="1"/>
        <pt x="112" y="288" on="0"/>
        <pt x="84" y="388" on="0"/>
        <pt x="59" y="470" on="0"/>
        <pt x="36" y="539" on="0"/>
      </contour>
    </TTGlyph>
    <TTGlyph name="W" xMin="-20" yMin="-36" xMax="899" yMax="752">
      <contour>
        <pt x="899" y="648" on="1"/>
        <pt x="878" y="634" on="0"/>
        <pt x="838" y="600" on="0"/>
        <pt x="808" y="546" on="0"/>
        <pt x="792" y="465" on="0"/>
        <pt x="796" y="403" on="1"/>
        <pt x="798" y="362" on="0"/>
        <pt x="803" y="267" on="0"/>
        <pt x="799" y="171" on="0"/>
        <pt x="781" y="82" on="0"/>
        <pt x="739" y="12" on="0"/>
        <pt x="669" y="-32" on="0"/>
        <pt x="616" y="-34" on="1"/>
        <pt x="577" y="-36" on="0"/>
        <pt x="518" y="-10" on="0"/>
        <pt x="475" y="35" on="0"/>
        <pt x="447" y="94" on="0"/>
        <pt x="438" y="126" on="1"/>
        <pt x="423" y="85" on="0"/>
        <pt x="382" y="15" on="0"/>
        <pt x="317" y="-28" on="0"/>
        <pt x="226" y="-35" on="0"/>
        <pt x="162" y="-13" on="1"/>
        <pt x="115" y="3" on="0"/>
        <pt x="61" y="64" on="0"/>
        <pt x="35" y="141" on="0"/>
        <pt x="31" y="226" on="0"/>
        <pt x="37" y="305" on="0"/>
        <pt x="49" y="371" on="0"/>
        <pt x="52" y="391" on="1"/>
        <pt x="62" y="455" on="0"/>
        <pt x="75" y="570" on="0"/>
        <pt x="65" y="661" on="0"/>
        <pt x="24" y="722" on="0"/>
        <pt x="-20" y="732" on="1"/>
        <pt x="-15" y="752" on="1"/>
        <pt x="4" y="749" on="0"/>
        <pt x="56" y="741" on="0"/>
        <pt x="112" y="736" on="0"/>
        <pt x="167" y="737" on="0"/>
        <pt x="189" y="742" on="1"/>
        <pt x="184" y="703" on="0"/>
        <pt x="167" y="588" on="0"/>
        <pt x="151" y="458" on="0"/>
        <pt x="138" y="323" on="0"/>
        <pt x="137" y="264" on="1"/>
        <pt x="134" y="145" on="0"/>
        <pt x="195" y="35" on="0"/>
        <pt x="272" y="36" on="1"/>
        <pt x="311" y="37" on="0"/>
        <pt x="359" y="103" on="0"/>
        <pt x="386" y="201" on="0"/>
        <pt x="396" y="312" on="0"/>
        <pt x="398" y="358" on="1"/>
        <pt x="399" y="404" on="0"/>
        <pt x="397" y="491" on="0"/>
        <pt x="387" y="565" on="0"/>
        <pt x="370" y="624" on="0"/>
        <pt x="358" y="642" on="1"/>
        <pt x="386" y="643" on="0"/>
        <pt x="426" y="639" on="0"/>
        <pt x="461" y="634" on="0"/>
        <pt x="499" y="632" on="0"/>
        <pt x="525" y="637" on="1"/>
        <pt x="514" y="606" on="0"/>
        <pt x="496" y="540" on="0"/>
        <pt x="483" y="462" on="0"/>
        <pt x="476" y="367" on="0"/>
        <pt x="476" y="307" on="1"/>
        <pt x="477" y="247" on="0"/>
        <pt x="488" y="149" on="0"/>
        <pt x="517" y="82" on="0"/>
        <pt x="568" y="51" on="0"/>
        <pt x="609" y="59" on="1"/>
        <pt x="650" y="68" on="0"/>
        <pt x="696" y="132" on="0"/>
        <pt x="717" y="226" on="0"/>
        <pt x="720" y="343" on="0"/>
        <pt x="718" y="404" on="1"/>
        <pt x="716" y="466" on="0"/>
        <pt x="706" y="553" on="0"/>
        <pt x="685" y="609" on="0"/>
        <pt x="653" y="638" on="0"/>
        <pt x="630" y="642" on="1"/>
        <pt x="633" y="664" on="1"/>
        <pt x="694" y="654" on="0"/>
        <pt x="824" y="661" on="0"/>
        <pt x="895" y="680" on="1"/>
        <pt x="899" y="648" on="1"/>
      </contour>
    </TTGlyph>
    <TTGlyph name="X" xMin="-72" yMin="-76" xMax="637" yMax="714">
      <contour>
        <pt x="-72" y="45" on="1"/>
        <pt x="-51" y="54" on="0"/>
        <pt x="-10" y="72" on="0"/>
        <pt x="34" y="99" on="0"/>
        <pt x="81" y="142" on="0"/>
        <pt x="108" y="177" on="1"/>
        <pt x="131" y="208" on="0"/>
        <pt x="199" y="305" on="0"/>
        <pt x="234" y="359" on="1"/>
        <pt x="217" y="388" on="0"/>
        <pt x="185" y="442" on="0"/>
        <pt x="156" y="489" on="0"/>
        <pt x="131" y="526" on="0"/>
        <pt x="122" y="538" on="1"/>
        <pt x="102" y="563" on="0"/>
        <pt x="70" y="600" on="0"/>
        <pt x="35" y="624" on="0"/>
        <pt x="-8" y="637" on="0"/>
        <pt x="-39" y="639" on="1"/>
        <pt x="-38" y="667" on="1"/>
        <pt x="34" y="656" on="0"/>
        <pt x="167" y="652" on="0"/>
        <pt x="243" y="669" on="1"/>
        <pt x="249" y="646" on="1"/>
        <pt x="218" y="631" on="0"/>
        <pt x="197" y="564" on="0"/>
        <pt x="220" y="518" on="1"/>
        <pt x="228" y="504" on="0"/>
        <pt x="256" y="454" on="0"/>
        <pt x="275" y="420" on="1"/>
        <pt x="313" y="479" on="0"/>
        <pt x="375" y="580" on="0"/>
        <pt x="389" y="608" on="1"/>
        <pt x="398" y="627" on="0"/>
        <pt x="401" y="645" on="1"/>
        <pt x="403" y="660" on="0"/>
        <pt x="393" y="689" on="0"/>
        <pt x="374" y="697" on="1"/>
        <pt x="379" y="712" on="1"/>
        <pt x="405" y="710" on="0"/>
        <pt x="468" y="705" on="0"/>
        <pt x="531" y="703" on="0"/>
        <pt x="587" y="707" on="0"/>
        <pt x="607" y="714" on="1"/>
        <pt x="605" y="690" on="1"/>
        <pt x="584" y="685" on="0"/>
        <pt x="548" y="676" on="0"/>
        <pt x="508" y="649" on="0"/>
        <pt x="456" y="593" on="0"/>
        <pt x="419" y="542" on="1"/>
        <pt x="390" y="502" on="0"/>
        <pt x="332" y="415" on="0"/>
        <pt x="304" y="370" on="1"/>
        <pt x="325" y="334" on="0"/>
        <pt x="371" y="257" on="0"/>
        <pt x="419" y="179" on="0"/>
        <pt x="467" y="105" on="0"/>
        <pt x="489" y="73" on="1"/>
        <pt x="518" y="29" on="0"/>
        <pt x="559" y="-17" on="0"/>
        <pt x="591" y="-41" on="0"/>
        <pt x="619" y="-49" on="0"/>
        <pt x="636" y="-53" on="1"/>
        <pt x="637" y="-73" on="1"/>
        <pt x="607" y="-69" on="0"/>
        <pt x="521" y="-61" on="0"/>
        <pt x="432" y="-60" on="0"/>
        <pt x="352" y="-66" on="0"/>
        <pt x="327" y="-76" on="1"/>
        <pt x="323" y="-52" on="1"/>
        <pt x="348" y="-39" on="0"/>
        <pt x="385" y="-16" on="0"/>
        <pt x="400" y="16" on="0"/>
        <pt x="392" y="65" on="0"/>
        <pt x="373" y="105" on="1"/>
        <pt x="356" y="141" on="0"/>
        <pt x="298" y="247" on="0"/>
        <pt x="266" y="305" on="1"/>
        <pt x="234" y="250" on="0"/>
        <pt x="185" y="157" on="0"/>
        <pt x="171" y="126" on="1"/>
        <pt x="153" y="87" on="0"/>
        <pt x="167" y="56" on="0"/>
        <pt x="189" y="49" on="1"/>
        <pt x="183" y="27" on="1"/>
        <pt x="151" y="33" on="0"/>
        <pt x="80" y="38" on="0"/>
        <pt x="13" y="38" on="0"/>
        <pt x="-47" y="32" on="0"/>
        <pt x="-69" y="27" on="1"/>
        <pt x="-72" y="45" on="1"/>
      </contour>
    </TTGlyph>
    <TTGlyph name="Y" xMin="-15" yMin="-258" xMax="573" yMax="772">
      <contour>
        <pt x="49" y="471" on="1"/>
        <pt x="52" y="533" on="0"/>
        <pt x="43" y="604" on="0"/>
        <pt x="24" y="643" on="0"/>
        <pt x="-1" y="660" on="0"/>
        <pt x="-15" y="669" on="1"/>
        <pt x="-12" y="693" on="1"/>
        <pt x="6" y="690" on="0"/>
        <pt x="56" y="684" on="0"/>
        <pt x="119" y="685" on="0"/>
        <pt x="193" y="695" on="0"/>
        <pt x="236" y="708" on="1"/>
        <pt x="234" y="685" on="1"/>
        <pt x="217" y="680" on="0"/>
        <pt x="185" y="657" on="0"/>
        <pt x="157" y="613" on="0"/>
        <pt x="134" y="542" on="0"/>
        <pt x="127" y="488" on="1"/>
        <pt x="120" y="435" on="0"/>
        <pt x="114" y="331" on="0"/>
        <pt x="135" y="249" on="0"/>
        <pt x="189" y="201" on="0"/>
        <pt x="242" y="205" on="1"/>
        <pt x="295" y="208" on="0"/>
        <pt x="370" y="280" on="0"/>
        <pt x="415" y="383" on="0"/>
        <pt x="433" y="501" on="0"/>
        <pt x="429" y="550" on="1"/>
        <pt x="426" y="596" on="0"/>
        <pt x="415" y="664" on="0"/>
        <pt x="396" y="712" on="0"/>
        <pt x="367" y="742" on="0"/>
        <pt x="346" y="750" on="1"/>
        <pt x="356" y="771" on="1"/>
        <pt x="377" y="764" on="0"/>
        <pt x="436" y="752" on="0"/>
        <pt x="497" y="749" on="0"/>
        <pt x="553" y="758" on="0"/>
        <pt x="571" y="772" on="1"/>
        <pt x="573" y="750" on="1"/>
        <pt x="557" y="739" on="0"/>
        <pt x="525" y="700" on="0"/>
        <pt x="501" y="637" on="0"/>
        <pt x="486" y="546" on="0"/>
        <pt x="488" y="484" on="1"/>
        <pt x="489" y="440" on="0"/>
        <pt x="501" y="359" on="0"/>
        <pt x="514" y="271" on="0"/>
        <pt x="523" y="168" on="0"/>
        <pt x="523" y="103" on="1"/>
        <pt x="523" y="38" on="0"/>
        <pt x="505" y="-90" on="0"/>
        <pt x="457" y="-194" on="0"/>
        <pt x="370" y="-258" on="0"/>
        <pt x="301" y="-258" on="1"/>
        <pt x="252" y="-258" on="0"/>
        <pt x="186" y="-229" on="0"/>
        <pt x="142" y="-182" on="0"/>
        <pt x="119" y="-125" on="0"/>
        <pt x="113" y="-98" on="1"/>
        <pt x="108" y="-75" on="0"/>
        <pt x="101" y="-29" on="0"/>
        <pt x="89" y="16" on="0"/>
        <pt x="71" y="58" on="0"/>
        <pt x="55" y="76" on="1"/>
        <pt x="101" y="66" on="0"/>
        <pt x="181" y="60" on="0"/>
        <pt x="210" y="71" on="1"/>
        <pt x="186" y="33" on="0"/>
        <pt x="174" y="-59" on="0"/>
        <pt x="183" y="-103" on="1"/>
        <pt x="188" y="-125" on="0"/>
        <pt x="211" y="-173" on="0"/>
        <pt x="247" y="-210" on="0"/>
        <pt x="298" y="-226" on="0"/>
        <pt x="330" y="-217" on="1"/>
        <pt x="360" y="-208" on="0"/>
        <pt x="410" y="-152" on="0"/>
        <pt x="444" y="-67" on="0"/>
        <pt x="460" y="43" on="0"/>
        <pt x="455" y="106" on="1"/>
        <pt x="448" y="176" on="0"/>
        <pt x="436" y="274" on="0"/>
        <pt x="433" y="309" on="1"/>
        <pt x="422" y="284" on="0"/>
        <pt x="387" y="226" on="0"/>
        <pt x="337" y="177" on="0"/>
        <pt x="271" y="144" on="0"/>
        <pt x="229" y="144" on="1"/>
        <pt x="220" y="144" on="0"/>
        <pt x="191" y="146" on="0"/>
        <pt x="157" y="154" on="0"/>
        <pt x="119" y="171" on="0"/>
        <pt x="100" y="186" on="1"/>
        <pt x="84" y="199" on="0"/>
        <pt x="65" y="231" on="0"/>
        <pt x="54" y="266" on="0"/>
        <pt x="49" y="302" on="0"/>
        <pt x="48" y="319" on="1"/>
        <pt x="46" y="351" on="0"/>
        <pt x="47" y="427" on="0"/>
      </contour>
    </TTGlyph>
    <TTGlyph name="Yacute" xMin="-15" yMin="-258" xMax="573" yMax="943">
      <component glyphName="Y" x="0" y="0" flags="0x204"/>
      <component glyphName="acute" x="-19" y="174" flags="0x4"/>
    </TTGlyph>
    <TTGlyph name="Ydieresis" xMin="-15" yMin="-258" xMax="573" yMax="882">
      <component glyphName="Y" x="0" y="0" flags="0x204"/>
      <component glyphName="dieresis" x="-40" y="143" flags="0x4"/>
    </TTGlyph>
    <TTGlyph name="Z" xMin="-10" yMin="-59" xMax="530" yMax="748">
      <contour>
        <pt x="-10" y="50" on="1"/>
        <pt x="30" y="96" on="0"/>
        <pt x="85" y="175" on="0"/>
        <pt x="137" y="257" on="0"/>
        <pt x="199" y="350" on="0"/>
        <pt x="246" y="411" on="1"/>
        <pt x="316" y="502" on="0"/>
        <pt x="401" y="628" on="0"/>
        <pt x="421" y="667" on="1"/>
        <pt x="344" y="677" on="0"/>
        <pt x="221" y="675" on="0"/>
        <pt x="128" y="629" on="0"/>
        <pt x="66" y="528" on="0"/>
        <pt x="51" y="439" on="1"/>
        <pt x="18" y="440" on="1"/>
        <pt x="22" y="459" on="0"/>
        <pt x="32" y="533" on="0"/>
        <pt x="37" y="620" on="0"/>
        <pt x="36" y="706" on="0"/>
        <pt x="30" y="736" on="1"/>
        <pt x="89" y="728" on="0"/>
        <pt x="217" y="716" on="0"/>
        <pt x="344" y="715" on="0"/>
        <pt x="465" y="729" on="0"/>
        <pt x="519" y="748" on="1"/>
        <pt x="518" y="730" on="0"/>
        <pt x="522" y="708" on="0"/>
        <pt x="524" y="702" on="1"/>
        <pt x="527" y="695" on="0"/>
        <pt x="530" y="692" on="1"/>
        <pt x="420" y="549" on="0"/>
        <pt x="183" y="221" on="0"/>
        <pt x="69" y="28" on="1"/>
        <pt x="112" y="29" on="0"/>
        <pt x="198" y="29" on="0"/>
        <pt x="278" y="36" on="0"/>
        <pt x="346" y="53" on="0"/>
        <pt x="371" y="71" on="1"/>
        <pt x="403" y="93" on="0"/>
        <pt x="442" y="168" on="0"/>
        <pt x="456" y="224" on="1"/>
        <pt x="478" y="223" on="1"/>
        <pt x="464" y="162" on="0"/>
        <pt x="448" y="60" on="0"/>
        <pt x="443" y="22" on="1"/>
        <pt x="438" y="-22" on="0"/>
        <pt x="436" y="-59" on="1"/>
        <pt x="383" y="-47" on="0"/>
        <pt x="275" y="-27" on="0"/>
        <pt x="167" y="-19" on="0"/>
        <pt x="60" y="-29" on="0"/>
        <pt x="7" y="-45" on="1"/>
        <pt x="4" y="-17" on="0"/>
        <pt x="-2" y="20" on="0"/>
        <pt x="-4" y="31" on="1"/>
        <pt x="-7" y="43" on="0"/>
      </contour>
    </TTGlyph>
    <TTGlyph name="Zcaron" xMin="-10" yMin="-59" xMax="530" yMax="938">
      <component glyphName="Z" x="0" y="0" flags="0x204"/>
      <component glyphName="caron" x="-30" y="174" flags="0x4"/>
    </TTGlyph>
    <TTGlyph name="a" xMin="38" yMin="-45" xMax="507" yMax="566">
      <contour>
        <pt x="507" y="37" on="1"/>
        <pt x="504" y="24" on="0"/>
        <pt x="490" y="-7" on="0"/>
        <pt x="464" y="-32" on="0"/>
        <pt x="427" y="-45" on="0"/>
        <pt x="402" y="-39" on="1"/>
        <pt x="377" y="-33" on="0"/>
        <pt x="348" y="11" on="0"/>
        <pt x="342" y="45" on="1"/>
        <pt x="333" y="31" on="0"/>
        <pt x="306" y="0" on="0"/>
        <pt x="269" y="-25" on="0"/>
        <pt x="222" y="-40" on="0"/>
        <pt x="194" y="-38" on="1"/>
        <pt x="156" y="-35" on="0"/>
        <pt x="97" y="0" on="0"/>
        <pt x="57" y="55" on="0"/>
        <pt x="38" y="125" on="0"/>
        <pt x="42" y="163" on="1"/>
        <pt x="46" y="201" on="0"/>
        <pt x="79" y="255" on="0"/>
        <pt x="129" y="288" on="0"/>
        <pt x="193" y="300" on="0"/>
        <pt x="227" y="297" on="1"/>
        <pt x="272" y="292" on="0"/>
        <pt x="332" y="249" on="0"/>
        <pt x="348" y="223" on="1"/>
        <pt x="353" y="269" on="0"/>
        <pt x="349" y="374" on="0"/>
        <pt x="321" y="461" on="0"/>
        <pt x="263" y="518" on="0"/>
        <pt x="213" y="517" on="1"/>
        <pt x="178" y="517" on="0"/>
        <pt x="133" y="492" on="0"/>
        <pt x="106" y="458" on="0"/>
        <pt x="96" y="423" on="0"/>
        <pt x="96" y="413" on="1"/>
        <pt x="96" y="403" on="0"/>
        <pt x="108" y="378" on="0"/>
        <pt x="130" y="357" on="0"/>
        <pt x="160" y="345" on="0"/>
        <pt x="179" y="348" on="1"/>
        <pt x="192" y="350" on="0"/>
        <pt x="212" y="364" on="0"/>
        <pt x="224" y="382" on="0"/>
        <pt x="229" y="402" on="0"/>
        <pt x="229" y="411" on="1"/>
        <pt x="229" y="421" on="0"/>
        <pt x="217" y="436" on="0"/>
        <pt x="201" y="444" on="0"/>
        <pt x="181" y="441" on="0"/>
        <pt x="173" y="433" on="1"/>
        <pt x="182" y="434" on="0"/>
        <pt x="200" y="425" on="0"/>
        <pt x="200" y="411" on="1"/>
        <pt x="200" y="400" on="0"/>
        <pt x="182" y="389" on="0"/>
        <pt x="160" y="391" on="0"/>
        <pt x="142" y="408" on="0"/>
        <pt x="142" y="426" on="1"/>
        <pt x="142" y="443" on="0"/>
        <pt x="171" y="467" on="0"/>
        <pt x="190" y="467" on="1"/>
        <pt x="213" y="467" on="0"/>
        <pt x="252" y="431" on="0"/>
        <pt x="252" y="399" on="1"/>
        <pt x="252" y="388" on="0"/>
        <pt x="241" y="363" on="0"/>
        <pt x="219" y="341" on="0"/>
        <pt x="183" y="326" on="0"/>
        <pt x="159" y="326" on="1"/>
        <pt x="135" y="326" on="0"/>
        <pt x="97" y="345" on="0"/>
        <pt x="71" y="374" on="0"/>
        <pt x="58" y="409" on="0"/>
        <pt x="58" y="425" on="1"/>
        <pt x="58" y="441" on="0"/>
        <pt x="78" y="490" on="0"/>
        <pt x="121" y="534" on="0"/>
        <pt x="186" y="566" on="0"/>
        <pt x="231" y="566" on="1"/>
        <pt x="352" y="566" on="0"/>
        <pt x="444" y="397" on="0"/>
        <pt x="413" y="230" on="1"/>
        <pt x="401" y="163" on="0"/>
        <pt x="399" y="79" on="0"/>
        <pt x="411" y="29" on="0"/>
        <pt x="434" y="9" on="0"/>
        <pt x="447" y="7" on="1"/>
        <pt x="458" y="5" on="0"/>
        <pt x="468" y="9" on="1"/>
        <pt x="476" y="11" on="0"/>
        <pt x="491" y="26" on="0"/>
        <pt x="494" y="42" on="1"/>
      </contour>
      <contour>
        <pt x="338" y="88" on="1"/>
        <pt x="337" y="124" on="0"/>
        <pt x="341" y="164" on="1"/>
        <pt x="333" y="195" on="0"/>
        <pt x="284" y="248" on="0"/>
        <pt x="253" y="253" on="1"/>
        <pt x="230" y="257" on="0"/>
        <pt x="181" y="248" on="0"/>
        <pt x="143" y="221" on="0"/>
        <pt x="121" y="173" on="0"/>
        <pt x="124" y="138" on="1"/>
        <pt x="129" y="84" on="0"/>
        <pt x="180" y="28" on="0"/>
        <pt x="230" y="31" on="1"/>
        <pt x="268" y="33" on="0"/>
        <pt x="321" y="68" on="0"/>
      </contour>
    </TTGlyph>
    <TTGlyph name="aacute" xMin="38" yMin="-45" xMax="507" yMax="769">
      <component glyphName="a" x="0" y="0" flags="0x204"/>
      <component glyphName="acute" x="-19" y="0" flags="0x4"/>
    </TTGlyph>
    <TTGlyph name="acircumflex" xMin="38" yMin="-45" xMax="507" yMax="774">
      <component glyphName="a" x="0" y="0" flags="0x204"/>
      <component glyphName="circumflex" x="-71" y="10" flags="0x4"/>
    </TTGlyph>
    <TTGlyph name="acute" xMin="220" yMin="615" xMax="414" yMax="769">
      <contour>
        <pt x="378" y="769" on="1"/>
        <pt x="389" y="760" on="0"/>
        <pt x="403" y="742" on="0"/>
        <pt x="407" y="735" on="1"/>
        <pt x="411" y="727" on="0"/>
        <pt x="414" y="720" on="1"/>
        <pt x="393" y="709" on="0"/>
        <pt x="344" y="682" on="0"/>
        <pt x="299" y="654" on="0"/>
        <pt x="259" y="626" on="0"/>
        <pt x="247" y="615" on="1"/>
        <pt x="220" y="653" on="1"/>
        <pt x="269" y="692" on="0"/>
        <pt x="331" y="738" on="0"/>
        <pt x="348" y="750" on="1"/>
        <pt x="368" y="764" on="0"/>
      </contour>
    </TTGlyph>
    <TTGlyph name="adieresis" xMin="38" yMin="-45" xMax="507" yMax="699">
      <component glyphName="a" x="0" y="0" flags="0x204"/>
      <component glyphName="dieresis" x="-60" y="-40" flags="0x4"/>
    </TTGlyph>
    <TTGlyph name="ae" xMin="9" yMin="-26" xMax="792" yMax="561">
      <contour>
        <pt x="792" y="128" on="1"/>
        <pt x="780" y="123" on="0"/>
        <pt x="737" y="73" on="0"/>
        <pt x="677" y="17" on="0"/>
        <pt x="600" y="-26" on="0"/>
        <pt x="553" y="-24" on="1"/>
        <pt x="484" y="-20" on="0"/>
        <pt x="388" y="41" on="0"/>
        <pt x="365" y="91" on="1"/>
        <pt x="355" y="71" on="0"/>
        <pt x="322" y="33" on="0"/>
        <pt x="274" y="1" on="0"/>
        <pt x="212" y="-18" on="0"/>
        <pt x="172" y="-18" on="1"/>
        <pt x="131" y="-18" on="0"/>
        <pt x="71" y="6" on="0"/>
        <pt x="31" y="46" on="0"/>
        <pt x="11" y="101" on="0"/>
        <pt x="10" y="132" on="1"/>
        <pt x="9" y="160" on="0"/>
        <pt x="42" y="231" on="0"/>
        <pt x="106" y="288" on="0"/>
        <pt x="201" y="319" on="0"/>
        <pt x="263" y="307" on="1"/>
        <pt x="287" y="303" on="0"/>
        <pt x="321" y="294" on="0"/>
        <pt x="333" y="289" on="1"/>
        <pt x="334" y="317" on="0"/>
        <pt x="335" y="391" on="0"/>
        <pt x="316" y="457" on="0"/>
        <pt x="266" y="503" on="0"/>
        <pt x="217" y="505" on="1"/>
        <pt x="163" y="507" on="0"/>
        <pt x="101" y="485" on="0"/>
        <pt x="70" y="452" on="0"/>
        <pt x="64" y="416" on="0"/>
        <pt x="67" y="406" on="1"/>
        <pt x="70" y="394" on="0"/>
        <pt x="83" y="374" on="0"/>
        <pt x="107" y="363" on="0"/>
        <pt x="141" y="363" on="0"/>
        <pt x="164" y="371" on="1"/>
        <pt x="182" y="377" on="0"/>
        <pt x="201" y="393" on="0"/>
        <pt x="210" y="408" on="0"/>
        <pt x="210" y="422" on="0"/>
        <pt x="207" y="428" on="1"/>
        <pt x="201" y="439" on="0"/>
        <pt x="174" y="444" on="0"/>
        <pt x="158" y="441" on="1"/>
        <pt x="164" y="432" on="0"/>
        <pt x="155" y="409" on="0"/>
        <pt x="139" y="404" on="1"/>
        <pt x="131" y="402" on="0"/>
        <pt x="113" y="407" on="0"/>
        <pt x="109" y="415" on="1"/>
        <pt x="103" y="425" on="0"/>
        <pt x="119" y="450" on="0"/>
        <pt x="141" y="460" on="1"/>
        <pt x="153" y="465" on="0"/>
        <pt x="183" y="469" on="0"/>
        <pt x="210" y="462" on="0"/>
        <pt x="232" y="442" on="0"/>
        <pt x="237" y="423" on="1"/>
        <pt x="239" y="413" on="0"/>
        <pt x="234" y="385" on="0"/>
        <pt x="213" y="359" on="0"/>
        <pt x="169" y="340" on="0"/>
        <pt x="132" y="339" on="1"/>
        <pt x="114" y="339" on="0"/>
        <pt x="79" y="348" on="0"/>
        <pt x="51" y="367" on="0"/>
        <pt x="33" y="396" on="0"/>
        <pt x="32" y="414" on="1"/>
        <pt x="31" y="435" on="0"/>
        <pt x="48" y="479" on="0"/>
        <pt x="89" y="515" on="0"/>
        <pt x="157" y="537" on="0"/>
        <pt x="208" y="535" on="1"/>
        <pt x="235" y="533" on="0"/>
        <pt x="292" y="523" on="0"/>
        <pt x="344" y="500" on="0"/>
        <pt x="385" y="462" on="0"/>
        <pt x="397" y="433" on="1"/>
        <pt x="408" y="458" on="0"/>
        <pt x="445" y="507" on="0"/>
        <pt x="494" y="544" on="0"/>
        <pt x="555" y="561" on="0"/>
        <pt x="591" y="555" on="1"/>
        <pt x="633" y="548" on="0"/>
        <pt x="680" y="492" on="0"/>
        <pt x="705" y="419" on="0"/>
        <pt x="713" y="338" on="0"/>
        <pt x="715" y="307" on="1"/>
        <pt x="714" y="283" on="0"/>
        <pt x="715" y="262" on="1"/>
        <pt x="715" y="244" on="0"/>
        <pt x="718" y="207" on="0"/>
        <pt x="721" y="199" on="1"/>
        <pt x="694" y="199" on="0"/>
        <pt x="615" y="206" on="0"/>
        <pt x="529" y="217" on="0"/>
        <pt x="448" y="229" on="0"/>
        <pt x="418" y="234" on="1"/>
        <pt x="422" y="197" on="0"/>
        <pt x="446" y="124" on="0"/>
        <pt x="482" y="65" on="0"/>
        <pt x="532" y="27" on="0"/>
        <pt x="562" y="26" on="1"/>
        <pt x="585" y="24" on="0"/>
        <pt x="622" y="48" on="0"/>
        <pt x="646" y="83" on="0"/>
        <pt x="655" y="118" on="0"/>
        <pt x="649" y="129" on="1"/>
        <pt x="675" y="124" on="0"/>
        <pt x="727" y="123" on="0"/>
        <pt x="747" y="124" on="1"/>
        <pt x="771" y="125" on="0"/>
      </contour>
      <contour>
        <pt x="217" y="32" on="1"/>
        <pt x="245" y="33" on="0"/>
        <pt x="284" y="59" on="0"/>
        <pt x="309" y="98" on="0"/>
        <pt x="324" y="145" on="0"/>
        <pt x="331" y="192" on="0"/>
        <pt x="332" y="234" on="0"/>
        <pt x="332" y="247" on="1"/>
        <pt x="312" y="259" on="0"/>
        <pt x="264" y="270" on="0"/>
        <pt x="241" y="271" on="1"/>
        <pt x="200" y="272" on="0"/>
        <pt x="150" y="249" on="0"/>
        <pt x="122" y="211" on="0"/>
        <pt x="113" y="167" on="0"/>
        <pt x="114" y="147" on="1"/>
        <pt x="115" y="127" on="0"/>
        <pt x="125" y="85" on="0"/>
        <pt x="148" y="51" on="0"/>
        <pt x="187" y="30" on="0"/>
      </contour>
      <contour>
        <pt x="421" y="339" on="1"/>
        <pt x="415" y="307" on="0"/>
        <pt x="416" y="273" on="1"/>
        <pt x="446" y="266" on="0"/>
        <pt x="537" y="252" on="0"/>
        <pt x="606" y="250" on="1"/>
        <pt x="618" y="277" on="0"/>
        <pt x="633" y="363" on="0"/>
        <pt x="628" y="445" on="0"/>
        <pt x="601" y="507" on="0"/>
        <pt x="571" y="512" on="1"/>
        <pt x="547" y="515" on="0"/>
        <pt x="500" y="489" on="0"/>
        <pt x="460" y="441" on="0"/>
        <pt x="428" y="375" on="0"/>
      </contour>
    </TTGlyph>
    <TTGlyph name="agrave" xMin="38" yMin="-45" xMax="507" yMax="760">
      <component glyphName="a" x="0" y="0" flags="0x204"/>
      <component glyphName="grave" x="-60" y="-9" flags="0x4"/>
    </TTGlyph>
    <TTGlyph name="ampersand" xMin="-2" yMin="-24" xMax="544" yMax="761">
      <contour>
        <pt x="438" y="452" on="1"/>
        <pt x="456" y="453" on="0"/>
        <pt x="493" y="440" on="0"/>
        <pt x="524" y="412" on="0"/>
        <pt x="544" y="366" on="0"/>
        <pt x="544" y="334" on="1"/>
        <pt x="544" y="315" on="0"/>
        <pt x="528" y="266" on="0"/>
        <pt x="500" y="210" on="0"/>
        <pt x="460" y="152" on="0"/>
        <pt x="435" y="124" on="1"/>
        <pt x="458" y="99" on="0"/>
        <pt x="507" y="69" on="0"/>
        <pt x="543" y="51" on="1"/>
        <pt x="528" y="48" on="0"/>
        <pt x="498" y="36" on="0"/>
        <pt x="471" y="20" on="0"/>
        <pt x="450" y="2" on="0"/>
        <pt x="445" y="-7" on="1"/>
        <pt x="440" y="10" on="0"/>
        <pt x="416" y="58" on="0"/>
        <pt x="398" y="87" on="1"/>
        <pt x="372" y="63" on="0"/>
        <pt x="314" y="23" on="0"/>
        <pt x="251" y="-7" on="0"/>
        <pt x="182" y="-24" on="0"/>
        <pt x="146" y="-23" on="1"/>
        <pt x="98" y="-22" on="0"/>
        <pt x="36" y="7" on="0"/>
        <pt x="3" y="55" on="0"/>
        <pt x="-2" y="118" on="0"/>
        <pt x="15" y="188" on="0"/>
        <pt x="53" y="259" on="0"/>
        <pt x="80" y="292" on="1"/>
        <pt x="102" y="318" on="0"/>
        <pt x="151" y="379" on="0"/>
        <pt x="177" y="411" on="1"/>
        <pt x="142" y="471" on="0"/>
        <pt x="103" y="593" on="0"/>
        <pt x="119" y="653" on="1"/>
        <pt x="127" y="684" on="0"/>
        <pt x="171" y="730" on="0"/>
        <pt x="227" y="757" on="0"/>
        <pt x="288" y="761" on="0"/>
        <pt x="339" y="740" on="0"/>
        <pt x="372" y="689" on="0"/>
        <pt x="371" y="647" on="1"/>
        <pt x="371" y="618" on="0"/>
        <pt x="348" y="561" on="0"/>
        <pt x="310" y="502" on="0"/>
        <pt x="262" y="439" on="0"/>
        <pt x="236" y="404" on="1"/>
        <pt x="273" y="333" on="0"/>
        <pt x="359" y="216" on="0"/>
        <pt x="404" y="160" on="1"/>
        <pt x="432" y="188" on="0"/>
        <pt x="478" y="258" on="0"/>
        <pt x="502" y="327" on="0"/>
        <pt x="497" y="389" on="0"/>
        <pt x="473" y="411" on="1"/>
        <pt x="457" y="425" on="0"/>
        <pt x="407" y="422" on="0"/>
        <pt x="390" y="407" on="1"/>
        <pt x="373" y="391" on="0"/>
        <pt x="362" y="348" on="0"/>
        <pt x="376" y="331" on="1"/>
        <pt x="386" y="318" on="0"/>
        <pt x="405" y="311" on="0"/>
        <pt x="413" y="313" on="1"/>
        <pt x="408" y="321" on="0"/>
        <pt x="413" y="344" on="0"/>
        <pt x="428" y="346" on="1"/>
        <pt x="439" y="348" on="0"/>
        <pt x="452" y="338" on="0"/>
        <pt x="455" y="322" on="0"/>
        <pt x="449" y="305" on="0"/>
        <pt x="441" y="299" on="1"/>
        <pt x="427" y="288" on="0"/>
        <pt x="390" y="288" on="0"/>
        <pt x="357" y="305" on="0"/>
        <pt x="335" y="340" on="0"/>
        <pt x="337" y="366" on="1"/>
        <pt x="339" y="404" on="0"/>
        <pt x="396" y="450" on="0"/>
      </contour>
      <contour>
        <pt x="186" y="640" on="1"/>
        <pt x="159" y="582" on="0"/>
        <pt x="191" y="500" on="1"/>
        <pt x="196" y="488" on="0"/>
        <pt x="206" y="466" on="0"/>
        <pt x="211" y="455" on="1"/>
        <pt x="232" y="484" on="0"/>
        <pt x="267" y="537" on="0"/>
        <pt x="281" y="563" on="1"/>
        <pt x="293" y="586" on="0"/>
        <pt x="307" y="627" on="0"/>
        <pt x="310" y="661" on="0"/>
        <pt x="297" y="686" on="0"/>
        <pt x="282" y="693" on="1"/>
        <pt x="270" y="699" on="0"/>
        <pt x="243" y="696" on="0"/>
        <pt x="217" y="681" on="0"/>
        <pt x="194" y="656" on="0"/>
      </contour>
      <contour>
        <pt x="132" y="70" on="1"/>
        <pt x="152" y="47" on="0"/>
        <pt x="210" y="42" on="0"/>
        <pt x="275" y="63" on="0"/>
        <pt x="343" y="104" on="0"/>
        <pt x="372" y="129" on="1"/>
        <pt x="347" y="165" on="0"/>
        <pt x="291" y="244" on="0"/>
        <pt x="262" y="284" on="1"/>
        <pt x="248" y="303" on="0"/>
        <pt x="220" y="344" on="0"/>
        <pt x="206" y="365" on="1"/>
        <pt x="178" y="325" on="0"/>
        <pt x="131" y="241" on="0"/>
        <pt x="106" y="162" on="0"/>
        <pt x="109" y="94" on="0"/>
      </contour>
    </TTGlyph>
    <TTGlyph name="aring" xMin="38" yMin="-45" xMax="507" yMax="737">
      <contour>
        <pt x="338" y="88" on="1"/>
        <pt x="337" y="124" on="0"/>
        <pt x="341" y="164" on="1"/>
        <pt x="337" y="179" on="0"/>
        <pt x="320" y="209" on="0"/>
        <pt x="297" y="234" on="0"/>
        <pt x="268" y="251" on="0"/>
        <pt x="253" y="254" on="1"/>
        <pt x="230" y="258" on="0"/>
        <pt x="181" y="249" on="0"/>
        <pt x="143" y="221" on="0"/>
        <pt x="121" y="173" on="0"/>
        <pt x="124" y="138" on="1"/>
        <pt x="129" y="84" on="0"/>
        <pt x="180" y="28" on="0"/>
        <pt x="230" y="31" on="1"/>
        <pt x="268" y="33" on="0"/>
        <pt x="321" y="68" on="0"/>
      </contour>
      <contour>
        <pt x="296" y="731" on="1"/>
        <pt x="311" y="726" on="0"/>
        <pt x="333" y="702" on="0"/>
        <pt x="345" y="673" on="0"/>
        <pt x="349" y="641" on="0"/>
        <pt x="347" y="628" on="1"/>
        <pt x="343" y="605" on="0"/>
        <pt x="317" y="567" on="0"/>
        <pt x="294" y="559" on="1"/>
        <pt x="380" y="538" on="0"/>
        <pt x="439" y="373" on="0"/>
        <pt x="413" y="230" on="1"/>
        <pt x="401" y="163" on="0"/>
        <pt x="399" y="79" on="0"/>
        <pt x="411" y="29" on="0"/>
        <pt x="434" y="9" on="0"/>
        <pt x="447" y="7" on="1"/>
        <pt x="458" y="5" on="0"/>
        <pt x="468" y="9" on="1"/>
        <pt x="476" y="11" on="0"/>
        <pt x="491" y="26" on="0"/>
        <pt x="494" y="42" on="1"/>
        <pt x="507" y="37" on="1"/>
        <pt x="504" y="24" on="0"/>
        <pt x="490" y="-7" on="0"/>
        <pt x="464" y="-32" on="0"/>
        <pt x="427" y="-45" on="0"/>
        <pt x="402" y="-39" on="1"/>
        <pt x="377" y="-33" on="0"/>
        <pt x="348" y="11" on="0"/>
        <pt x="342" y="45" on="1"/>
        <pt x="333" y="31" on="0"/>
        <pt x="306" y="0" on="0"/>
        <pt x="269" y="-25" on="0"/>
        <pt x="222" y="-40" on="0"/>
        <pt x="194" y="-38" on="1"/>
        <pt x="156" y="-35" on="0"/>
        <pt x="97" y="0" on="0"/>
        <pt x="57" y="55" on="0"/>
        <pt x="38" y="126" on="0"/>
        <pt x="42" y="164" on="1"/>
        <pt x="46" y="201" on="0"/>
        <pt x="79" y="255" on="0"/>
        <pt x="129" y="288" on="0"/>
        <pt x="193" y="300" on="0"/>
        <pt x="227" y="297" on="1"/>
        <pt x="272" y="292" on="0"/>
        <pt x="332" y="249" on="0"/>
        <pt x="348" y="223" on="1"/>
        <pt x="353" y="269" on="0"/>
        <pt x="349" y="374" on="0"/>
        <pt x="321" y="461" on="0"/>
        <pt x="263" y="518" on="0"/>
        <pt x="213" y="517" on="1"/>
        <pt x="178" y="517" on="0"/>
        <pt x="133" y="492" on="0"/>
        <pt x="106" y="458" on="0"/>
        <pt x="96" y="423" on="0"/>
        <pt x="96" y="413" on="1"/>
        <pt x="96" y="403" on="0"/>
        <pt x="108" y="378" on="0"/>
        <pt x="130" y="357" on="0"/>
        <pt x="160" y="345" on="0"/>
        <pt x="179" y="348" on="1"/>
        <pt x="192" y="350" on="0"/>
        <pt x="212" y="364" on="0"/>
        <pt x="224" y="382" on="0"/>
        <pt x="229" y="402" on="0"/>
        <pt x="229" y="411" on="1"/>
        <pt x="229" y="421" on="0"/>
        <pt x="217" y="437" on="0"/>
        <pt x="201" y="444" on="0"/>
        <pt x="181" y="442" on="0"/>
        <pt x="173" y="433" on="1"/>
        <pt x="182" y="434" on="0"/>
        <pt x="200" y="425" on="0"/>
        <pt x="200" y="411" on="1"/>
        <pt x="200" y="400" on="0"/>
        <pt x="182" y="389" on="0"/>
        <pt x="160" y="391" on="0"/>
        <pt x="142" y="408" on="0"/>
        <pt x="142" y="426" on="1"/>
        <pt x="142" y="443" on="0"/>
        <pt x="171" y="467" on="0"/>
        <pt x="190" y="467" on="1"/>
        <pt x="213" y="467" on="0"/>
        <pt x="252" y="431" on="0"/>
        <pt x="252" y="399" on="1"/>
        <pt x="252" y="388" on="0"/>
        <pt x="241" y="363" on="0"/>
        <pt x="219" y="341" on="0"/>
        <pt x="183" y="326" on="0"/>
        <pt x="159" y="326" on="1"/>
        <pt x="135" y="326" on="0"/>
        <pt x="97" y="345" on="0"/>
        <pt x="71" y="374" on="0"/>
        <pt x="58" y="409" on="0"/>
        <pt x="58" y="425" on="1"/>
        <pt x="58" y="441" on="0"/>
        <pt x="78" y="488" on="0"/>
        <pt x="119" y="533" on="0"/>
        <pt x="182" y="565" on="0"/>
        <pt x="226" y="566" on="1"/>
        <pt x="203" y="579" on="0"/>
        <pt x="178" y="628" on="0"/>
        <pt x="188" y="665" on="1"/>
        <pt x="192" y="681" on="0"/>
        <pt x="214" y="711" on="0"/>
        <pt x="244" y="731" on="0"/>
        <pt x="279" y="737" on="0"/>
      </contour>
      <contour>
        <pt x="307" y="639" on="1"/>
        <pt x="310" y="654" on="0"/>
        <pt x="300" y="692" on="0"/>
        <pt x="281" y="695" on="1"/>
        <pt x="257" y="699" on="0"/>
        <pt x="231" y="668" on="0"/>
        <pt x="228" y="653" on="1"/>
        <pt x="226" y="646" on="0"/>
        <pt x="228" y="628" on="0"/>
        <pt x="235" y="611" on="0"/>
        <pt x="245" y="599" on="0"/>
        <pt x="252" y="597" on="1"/>
        <pt x="268" y="592" on="0"/>
        <pt x="302" y="618" on="0"/>
      </contour>
    </TTGlyph>
    <TTGlyph name="asciicircum" xMin="20" yMin="316" xMax="442" yMax="741">
      <contour>
        <pt x="20" y="316" on="1"/>
        <pt x="61" y="384" on="0"/>
        <pt x="125" y="493" on="0"/>
        <pt x="173" y="579" on="0"/>
        <pt x="207" y="642" on="0"/>
        <pt x="219" y="665" on="1"/>
        <pt x="246" y="719" on="0"/>
        <pt x="253" y="741" on="1"/>
        <pt x="261" y="719" on="0"/>
        <pt x="284" y="667" on="1"/>
        <pt x="303" y="623" on="0"/>
        <pt x="378" y="459" on="0"/>
        <pt x="442" y="326" on="1"/>
        <pt x="422" y="327" on="0"/>
        <pt x="395" y="326" on="0"/>
        <pt x="386" y="325" on="1"/>
        <pt x="375" y="324" on="0"/>
        <pt x="369" y="322" on="1"/>
        <pt x="365" y="334" on="0"/>
        <pt x="348" y="379" on="0"/>
        <pt x="326" y="437" on="0"/>
        <pt x="301" y="500" on="0"/>
        <pt x="277" y="560" on="0"/>
        <pt x="256" y="611" on="0"/>
        <pt x="248" y="627" on="1"/>
        <pt x="234" y="602" on="0"/>
        <pt x="193" y="518" on="0"/>
        <pt x="151" y="429" on="0"/>
        <pt x="116" y="353" on="0"/>
        <pt x="109" y="335" on="1"/>
        <pt x="103" y="334" on="0"/>
        <pt x="78" y="330" on="0"/>
        <pt x="50" y="325" on="0"/>
        <pt x="26" y="319" on="0"/>
      </contour>
    </TTGlyph>
    <TTGlyph name="asciitilde" xMin="31" yMin="288" xMax="415" yMax="392">
      <contour>
        <pt x="415" y="341" on="1"/>
        <pt x="377" y="309" on="0"/>
        <pt x="281" y="301" on="0"/>
        <pt x="236" y="327" on="1"/>
        <pt x="215" y="339" on="0"/>
        <pt x="168" y="342" on="0"/>
        <pt x="124" y="330" on="0"/>
        <pt x="89" y="305" on="0"/>
        <pt x="79" y="288" on="1"/>
        <pt x="31" y="335" on="1"/>
        <pt x="41" y="346" on="0"/>
        <pt x="77" y="374" on="0"/>
        <pt x="125" y="392" on="0"/>
        <pt x="184" y="391" on="0"/>
        <pt x="217" y="375" on="1"/>
        <pt x="249" y="359" on="0"/>
        <pt x="298" y="352" on="0"/>
        <pt x="336" y="360" on="0"/>
        <pt x="364" y="379" on="0"/>
        <pt x="375" y="390" on="1"/>
      </contour>
    </TTGlyph>
    <TTGlyph name="asterisk" xMin="26" yMin="336" xMax="421" yMax="771">
      <contour>
        <pt x="220" y="559" on="1"/>
        <pt x="235" y="568" on="0"/>
        <pt x="275" y="597" on="0"/>
        <pt x="316" y="633" on="0"/>
        <pt x="355" y="674" on="0"/>
        <pt x="371" y="695" on="1"/>
        <pt x="372" y="681" on="0"/>
        <pt x="381" y="647" on="0"/>
        <pt x="394" y="611" on="0"/>
        <pt x="411" y="576" on="0"/>
        <pt x="421" y="561" on="1"/>
        <pt x="400" y="565" on="0"/>
        <pt x="350" y="562" on="0"/>
        <pt x="298" y="553" on="0"/>
        <pt x="247" y="537" on="0"/>
        <pt x="225" y="527" on="1"/>
        <pt x="247" y="499" on="0"/>
        <pt x="326" y="429" on="0"/>
        <pt x="371" y="406" on="1"/>
        <pt x="362" y="400" on="0"/>
        <pt x="335" y="385" on="0"/>
        <pt x="307" y="367" on="0"/>
        <pt x="282" y="346" on="0"/>
        <pt x="275" y="336" on="1"/>
        <pt x="270" y="359" on="0"/>
        <pt x="256" y="408" on="0"/>
        <pt x="236" y="454" on="0"/>
        <pt x="212" y="492" on="0"/>
        <pt x="198" y="504" on="1"/>
        <pt x="180" y="480" on="0"/>
        <pt x="145" y="402" on="0"/>
        <pt x="129" y="354" on="1"/>
        <pt x="123" y="362" on="0"/>
        <pt x="103" y="386" on="0"/>
        <pt x="77" y="411" on="0"/>
        <pt x="48" y="435" on="0"/>
        <pt x="34" y="442" on="1"/>
        <pt x="84" y="462" on="0"/>
        <pt x="151" y="504" on="0"/>
        <pt x="177" y="527" on="1"/>
        <pt x="162" y="540" on="0"/>
        <pt x="120" y="562" on="0"/>
        <pt x="78" y="579" on="0"/>
        <pt x="39" y="588" on="0"/>
        <pt x="26" y="590" on="1"/>
        <pt x="46" y="613" on="0"/>
        <pt x="78" y="676" on="0"/>
        <pt x="81" y="699" on="1"/>
        <pt x="90" y="687" on="0"/>
        <pt x="115" y="653" on="0"/>
        <pt x="145" y="616" on="0"/>
        <pt x="180" y="582" on="0"/>
        <pt x="198" y="570" on="1"/>
        <pt x="200" y="595" on="0"/>
        <pt x="202" y="652" on="0"/>
        <pt x="201" y="707" on="0"/>
        <pt x="194" y="755" on="0"/>
        <pt x="187" y="771" on="1"/>
        <pt x="225" y="757" on="0"/>
        <pt x="281" y="743" on="0"/>
        <pt x="310" y="748" on="1"/>
        <pt x="295" y="729" on="0"/>
        <pt x="266" y="678" on="0"/>
        <pt x="241" y="625" on="0"/>
        <pt x="223" y="576" on="0"/>
      </contour>
    </TTGlyph>
    <TTGlyph name="at" xMin="24" yMin="-34" xMax="800" yMax="768">
      <contour>
        <pt x="457" y="39" on="1"/>
        <pt x="491" y="40" on="0"/>
        <pt x="524" y="47" on="1"/>
        <pt x="553" y="53" on="0"/>
        <pt x="619" y="79" on="0"/>
        <pt x="647" y="104" on="1"/>
        <pt x="687" y="37" on="1"/>
        <pt x="629" y="0" on="0"/>
        <pt x="513" y="-34" on="0"/>
        <pt x="457" y="-34" on="1"/>
        <pt x="369" y="-34" on="0"/>
        <pt x="214" y="32" on="0"/>
        <pt x="97" y="142" on="0"/>
        <pt x="28" y="287" on="0"/>
        <pt x="26" y="367" on="1"/>
        <pt x="24" y="455" on="0"/>
        <pt x="91" y="603" on="0"/>
        <pt x="202" y="709" on="0"/>
        <pt x="340" y="768" on="0"/>
        <pt x="409" y="768" on="1"/>
        <pt x="493" y="768" on="0"/>
        <pt x="636" y="716" on="0"/>
        <pt x="741" y="621" on="0"/>
        <pt x="800" y="489" on="0"/>
        <pt x="800" y="409" on="1"/>
        <pt x="800" y="339" on="0"/>
        <pt x="749" y="233" on="0"/>
        <pt x="677" y="166" on="0"/>
        <pt x="600" y="139" on="0"/>
        <pt x="575" y="147" on="1"/>
        <pt x="556" y="154" on="0"/>
        <pt x="525" y="184" on="0"/>
        <pt x="514" y="206" on="1"/>
        <pt x="505" y="194" on="0"/>
        <pt x="479" y="169" on="0"/>
        <pt x="447" y="148" on="0"/>
        <pt x="410" y="135" on="0"/>
        <pt x="389" y="135" on="1"/>
        <pt x="362" y="135" on="0"/>
        <pt x="299" y="163" on="0"/>
        <pt x="246" y="219" on="0"/>
        <pt x="211" y="302" on="0"/>
        <pt x="211" y="358" on="1"/>
        <pt x="211" y="414" on="0"/>
        <pt x="245" y="499" on="0"/>
        <pt x="295" y="557" on="0"/>
        <pt x="353" y="586" on="0"/>
        <pt x="377" y="586" on="1"/>
        <pt x="415" y="586" on="0"/>
        <pt x="472" y="559" on="0"/>
        <pt x="489" y="545" on="1"/>
        <pt x="489" y="557" on="1"/>
        <pt x="489" y="562" on="0"/>
        <pt x="490" y="575" on="0"/>
        <pt x="490" y="580" on="1"/>
        <pt x="608" y="585" on="1"/>
        <pt x="605" y="553" on="1"/>
        <pt x="595" y="550" on="0"/>
        <pt x="572" y="538" on="0"/>
        <pt x="551" y="517" on="0"/>
        <pt x="537" y="483" on="0"/>
        <pt x="536" y="459" on="1"/>
        <pt x="536" y="443" on="0"/>
        <pt x="536" y="395" on="0"/>
        <pt x="540" y="341" on="0"/>
        <pt x="547" y="286" on="0"/>
        <pt x="559" y="241" on="0"/>
        <pt x="577" y="210" on="0"/>
        <pt x="589" y="207" on="1"/>
        <pt x="608" y="202" on="0"/>
        <pt x="657" y="230" on="0"/>
        <pt x="701" y="288" on="0"/>
        <pt x="731" y="372" on="0"/>
        <pt x="730" y="423" on="1"/>
        <pt x="729" y="474" on="0"/>
        <pt x="687" y="575" on="0"/>
        <pt x="605" y="655" on="0"/>
        <pt x="485" y="702" on="0"/>
        <pt x="406" y="699" on="1"/>
        <pt x="327" y="696" on="0"/>
        <pt x="208" y="635" on="0"/>
        <pt x="127" y="542" on="0"/>
        <pt x="87" y="430" on="0"/>
        <pt x="87" y="377" on="1"/>
        <pt x="87" y="324" on="0"/>
        <pt x="136" y="205" on="0"/>
        <pt x="230" y="105" on="0"/>
        <pt x="367" y="39" on="0"/>
      </contour>
      <contour>
        <pt x="399" y="203" on="1"/>
        <pt x="439" y="207" on="0"/>
        <pt x="480" y="253" on="0"/>
        <pt x="489" y="279" on="1"/>
        <pt x="487" y="294" on="0"/>
        <pt x="484" y="326" on="0"/>
        <pt x="484" y="343" on="1"/>
        <pt x="485" y="376" on="0"/>
        <pt x="486" y="451" on="0"/>
        <pt x="487" y="485" on="1"/>
        <pt x="478" y="499" on="0"/>
        <pt x="439" y="524" on="0"/>
        <pt x="403" y="523" on="1"/>
        <pt x="381" y="522" on="0"/>
        <pt x="339" y="502" on="0"/>
        <pt x="306" y="461" on="0"/>
        <pt x="287" y="400" on="0"/>
        <pt x="288" y="358" on="1"/>
        <pt x="288" y="337" on="0"/>
        <pt x="295" y="281" on="0"/>
        <pt x="318" y="232" on="0"/>
        <pt x="361" y="200" on="0"/>
      </contour>
    </TTGlyph>
    <TTGlyph name="atilde" xMin="38" yMin="-45" xMax="507" yMax="701">
      <component glyphName="a" x="0" y="0" flags="0x204"/>
      <component glyphName="tilde" x="-50" y="-19" flags="0x4"/>
    </TTGlyph>
    <TTGlyph name="b" xMin="-26" yMin="-8" xMax="523" yMax="814">
      <contour>
        <pt x="331" y="17" on="1"/>
        <pt x="284" y="17" on="0"/>
        <pt x="197" y="78" on="0"/>
        <pt x="168" y="132" on="1"/>
        <pt x="177" y="67" on="0"/>
        <pt x="194" y="13" on="1"/>
        <pt x="167" y="15" on="0"/>
        <pt x="113" y="12" on="0"/>
        <pt x="61" y="5" on="0"/>
        <pt x="11" y="-4" on="0"/>
        <pt x="-11" y="-8" on="1"/>
        <pt x="-17" y="6" on="1"/>
        <pt x="4" y="19" on="0"/>
        <pt x="42" y="50" on="0"/>
        <pt x="70" y="93" on="0"/>
        <pt x="88" y="154" on="0"/>
        <pt x="90" y="196" on="1"/>
        <pt x="91" y="238" on="0"/>
        <pt x="96" y="354" on="0"/>
        <pt x="98" y="479" on="0"/>
        <pt x="93" y="598" on="0"/>
        <pt x="86" y="642" on="1"/>
        <pt x="78" y="687" on="0"/>
        <pt x="55" y="738" on="0"/>
        <pt x="25" y="765" on="0"/>
        <pt x="-9" y="774" on="0"/>
        <pt x="-26" y="777" on="1"/>
        <pt x="-26" y="796" on="1"/>
        <pt x="-13" y="794" on="0"/>
        <pt x="35" y="791" on="0"/>
        <pt x="92" y="793" on="0"/>
        <pt x="151" y="802" on="0"/>
        <pt x="175" y="814" on="1"/>
        <pt x="172" y="790" on="0"/>
        <pt x="164" y="711" on="0"/>
        <pt x="156" y="611" on="0"/>
        <pt x="151" y="495" on="0"/>
        <pt x="151" y="434" on="1"/>
        <pt x="164" y="458" on="0"/>
        <pt x="200" y="503" on="0"/>
        <pt x="242" y="540" on="0"/>
        <pt x="289" y="565" on="0"/>
        <pt x="314" y="568" on="1"/>
        <pt x="344" y="572" on="0"/>
        <pt x="416" y="543" on="0"/>
        <pt x="480" y="472" on="0"/>
        <pt x="523" y="359" on="0"/>
        <pt x="523" y="280" on="1"/>
        <pt x="523" y="225" on="0"/>
        <pt x="491" y="129" on="0"/>
        <pt x="438" y="58" on="0"/>
        <pt x="369" y="17" on="0"/>
      </contour>
      <contour>
        <pt x="158" y="305" on="1"/>
        <pt x="158" y="278" on="0"/>
        <pt x="180" y="209" on="0"/>
        <pt x="221" y="146" on="0"/>
        <pt x="283" y="103" on="0"/>
        <pt x="324" y="103" on="1"/>
        <pt x="364" y="103" on="0"/>
        <pt x="412" y="158" on="0"/>
        <pt x="436" y="235" on="0"/>
        <pt x="443" y="317" on="0"/>
        <pt x="442" y="343" on="1"/>
        <pt x="441" y="370" on="0"/>
        <pt x="424" y="432" on="0"/>
        <pt x="393" y="485" on="0"/>
        <pt x="349" y="520" on="0"/>
        <pt x="321" y="519" on="1"/>
        <pt x="288" y="518" on="0"/>
        <pt x="228" y="477" on="0"/>
        <pt x="183" y="414" on="0"/>
        <pt x="157" y="339" on="0"/>
      </contour>
    </TTGlyph>
    <TTGlyph name="backslash" xMin="-26" yMin="-32" xMax="429" yMax="741">
      <contour>
        <pt x="343" y="-25" on="1"/>
        <pt x="331" y="11" on="0"/>
        <pt x="297" y="106" on="0"/>
        <pt x="252" y="215" on="0"/>
        <pt x="199" y="334" on="0"/>
        <pt x="169" y="395" on="1"/>
        <pt x="113" y="507" on="0"/>
        <pt x="8" y="687" on="0"/>
        <pt x="-26" y="739" on="1"/>
        <pt x="-11" y="734" on="0"/>
        <pt x="46" y="734" on="0"/>
        <pt x="69" y="741" on="1"/>
        <pt x="70" y="741" on="0"/>
        <pt x="90" y="695" on="0"/>
        <pt x="125" y="613" on="0"/>
        <pt x="175" y="501" on="0"/>
        <pt x="206" y="435" on="1"/>
        <pt x="230" y="381" on="0"/>
        <pt x="263" y="310" on="1"/>
        <pt x="291" y="249" on="0"/>
        <pt x="374" y="77" on="0"/>
        <pt x="429" y="-32" on="1"/>
        <pt x="404" y="-25" on="0"/>
        <pt x="360" y="-25" on="0"/>
      </contour>
    </TTGlyph>
    <TTGlyph name="bar" xMin="46" yMin="-43" xMax="126" yMax="739">
      <contour>
        <pt x="111" y="739" on="1"/>
        <pt x="108" y="671" on="0"/>
        <pt x="106" y="515" on="0"/>
        <pt x="108" y="356" on="0"/>
        <pt x="113" y="204" on="0"/>
        <pt x="119" y="77" on="0"/>
        <pt x="124" y="-17" on="0"/>
        <pt x="126" y="-38" on="1"/>
        <pt x="61" y="-43" on="1"/>
        <pt x="64" y="149" on="0"/>
        <pt x="61" y="433" on="0"/>
        <pt x="57" y="528" on="1"/>
        <pt x="53" y="639" on="0"/>
        <pt x="46" y="717" on="1"/>
        <pt x="111" y="739" on="1"/>
      </contour>
    </TTGlyph>
    <TTGlyph name="braceleft" xMin="31" yMin="-95" xMax="213" yMax="786">
      <contour>
        <pt x="98" y="529" on="1"/>
        <pt x="85" y="578" on="0"/>
        <pt x="90" y="666" on="0"/>
        <pt x="122" y="736" on="0"/>
        <pt x="177" y="781" on="0"/>
        <pt x="213" y="786" on="1"/>
        <pt x="212" y="758" on="1"/>
        <pt x="202" y="761" on="0"/>
        <pt x="174" y="741" on="0"/>
        <pt x="153" y="699" on="0"/>
        <pt x="147" y="639" on="0"/>
        <pt x="159" y="601" on="1"/>
        <pt x="169" y="565" on="0"/>
        <pt x="177" y="491" on="0"/>
        <pt x="166" y="423" on="0"/>
        <pt x="135" y="366" on="0"/>
        <pt x="108" y="349" on="1"/>
        <pt x="119" y="334" on="0"/>
        <pt x="139" y="299" on="0"/>
        <pt x="150" y="251" on="0"/>
        <pt x="149" y="189" on="0"/>
        <pt x="140" y="148" on="1"/>
        <pt x="128" y="97" on="0"/>
        <pt x="124" y="23" on="0"/>
        <pt x="136" y="-28" on="0"/>
        <pt x="164" y="-60" on="0"/>
        <pt x="184" y="-68" on="1"/>
        <pt x="173" y="-95" on="1"/>
        <pt x="148" y="-80" on="0"/>
        <pt x="106" y="-50" on="0"/>
        <pt x="79" y="-3" on="0"/>
        <pt x="69" y="68" on="0"/>
        <pt x="77" y="124" on="1"/>
        <pt x="91" y="238" on="0"/>
        <pt x="69" y="345" on="0"/>
        <pt x="31" y="347" on="1"/>
        <pt x="32" y="379" on="1"/>
        <pt x="47" y="376" on="0"/>
        <pt x="81" y="388" on="0"/>
        <pt x="104" y="422" on="0"/>
        <pt x="110" y="483" on="0"/>
      </contour>
    </TTGlyph>
    <TTGlyph name="braceright" xMin="10" yMin="-95" xMax="193" yMax="786">
      <contour>
        <pt x="125" y="162" on="1"/>
        <pt x="138" y="113" on="0"/>
        <pt x="133" y="24" on="0"/>
        <pt x="102" y="-45" on="0"/>
        <pt x="47" y="-90" on="0"/>
        <pt x="10" y="-95" on="1"/>
        <pt x="11" y="-67" on="1"/>
        <pt x="21" y="-70" on="0"/>
        <pt x="49" y="-50" on="0"/>
        <pt x="70" y="-9" on="0"/>
        <pt x="77" y="52" on="0"/>
        <pt x="65" y="90" on="1"/>
        <pt x="54" y="125" on="0"/>
        <pt x="47" y="200" on="0"/>
        <pt x="57" y="268" on="0"/>
        <pt x="88" y="325" on="0"/>
        <pt x="116" y="342" on="1"/>
        <pt x="105" y="357" on="0"/>
        <pt x="85" y="392" on="0"/>
        <pt x="73" y="439" on="0"/>
        <pt x="74" y="501" on="0"/>
        <pt x="84" y="542" on="1"/>
        <pt x="96" y="593" on="0"/>
        <pt x="100" y="668" on="0"/>
        <pt x="87" y="719" on="0"/>
        <pt x="59" y="751" on="0"/>
        <pt x="39" y="759" on="1"/>
        <pt x="50" y="786" on="1"/>
        <pt x="75" y="772" on="0"/>
        <pt x="117" y="741" on="0"/>
        <pt x="144" y="693" on="0"/>
        <pt x="153" y="621" on="0"/>
        <pt x="146" y="566" on="1"/>
        <pt x="132" y="453" on="0"/>
        <pt x="155" y="346" on="0"/>
        <pt x="193" y="344" on="1"/>
        <pt x="191" y="312" on="1"/>
        <pt x="176" y="315" on="0"/>
        <pt x="142" y="303" on="0"/>
        <pt x="119" y="269" on="0"/>
        <pt x="113" y="208" on="0"/>
      </contour>
    </TTGlyph>
    <TTGlyph name="bracketleft" xMin="40" yMin="-69" xMax="195" yMax="796">
      <contour>
        <pt x="45" y="796" on="1"/>
        <pt x="59" y="795" on="0"/>
        <pt x="80" y="794" on="1"/>
        <pt x="98" y="793" on="0"/>
        <pt x="155" y="792" on="0"/>
        <pt x="195" y="794" on="1"/>
        <pt x="193" y="766" on="1"/>
        <pt x="166" y="760" on="0"/>
        <pt x="146" y="757" on="1"/>
        <pt x="135" y="755" on="0"/>
        <pt x="127" y="754" on="1"/>
        <pt x="125" y="728" on="0"/>
        <pt x="118" y="653" on="0"/>
        <pt x="112" y="560" on="0"/>
        <pt x="106" y="455" on="0"/>
        <pt x="105" y="401" on="1"/>
        <pt x="104" y="333" on="0"/>
        <pt x="106" y="199" on="0"/>
        <pt x="109" y="84" on="0"/>
        <pt x="113" y="-3" on="0"/>
        <pt x="115" y="-25" on="1"/>
        <pt x="126" y="-26" on="0"/>
        <pt x="137" y="-27" on="1"/>
        <pt x="147" y="-29" on="0"/>
        <pt x="172" y="-32" on="0"/>
        <pt x="186" y="-35" on="1"/>
        <pt x="180" y="-67" on="1"/>
        <pt x="173" y="-66" on="0"/>
        <pt x="139" y="-64" on="0"/>
        <pt x="97" y="-64" on="0"/>
        <pt x="56" y="-66" on="0"/>
        <pt x="43" y="-69" on="1"/>
        <pt x="40" y="-8" on="0"/>
        <pt x="41" y="133" on="0"/>
        <pt x="45" y="272" on="0"/>
        <pt x="49" y="398" on="0"/>
        <pt x="50" y="443" on="1"/>
        <pt x="50" y="489" on="0"/>
        <pt x="53" y="594" on="0"/>
        <pt x="54" y="693" on="0"/>
        <pt x="51" y="775" on="0"/>
      </contour>
    </TTGlyph>
    <TTGlyph name="bracketright" xMin="-15" yMin="-69" xMax="138" yMax="796">
      <contour>
        <pt x="134" y="-69" on="1"/>
        <pt x="120" y="-68" on="0"/>
        <pt x="99" y="-67" on="1"/>
        <pt x="81" y="-66" on="0"/>
        <pt x="24" y="-65" on="0"/>
        <pt x="-15" y="-67" on="1"/>
        <pt x="-13" y="-39" on="1"/>
        <pt x="1" y="-37" on="0"/>
        <pt x="25" y="-32" on="0"/>
        <pt x="34" y="-30" on="1"/>
        <pt x="44" y="-28" on="0"/>
        <pt x="52" y="-27" on="1"/>
        <pt x="54" y="-2" on="0"/>
        <pt x="61" y="74" on="0"/>
        <pt x="68" y="167" on="0"/>
        <pt x="73" y="272" on="0"/>
        <pt x="74" y="326" on="1"/>
        <pt x="75" y="394" on="0"/>
        <pt x="74" y="528" on="0"/>
        <pt x="71" y="642" on="0"/>
        <pt x="66" y="730" on="0"/>
        <pt x="65" y="751" on="1"/>
        <pt x="53" y="751" on="0"/>
        <pt x="42" y="753" on="1"/>
        <pt x="31" y="755" on="0"/>
        <pt x="7" y="758" on="0"/>
        <pt x="-7" y="761" on="1"/>
        <pt x="-1" y="794" on="1"/>
        <pt x="6" y="793" on="0"/>
        <pt x="40" y="792" on="0"/>
        <pt x="82" y="792" on="0"/>
        <pt x="122" y="794" on="0"/>
        <pt x="135" y="796" on="1"/>
        <pt x="138" y="735" on="0"/>
        <pt x="137" y="594" on="0"/>
        <pt x="134" y="455" on="0"/>
        <pt x="130" y="329" on="0"/>
        <pt x="129" y="284" on="1"/>
        <pt x="129" y="238" on="0"/>
        <pt x="126" y="133" on="0"/>
        <pt x="125" y="34" on="0"/>
        <pt x="128" y="-48" on="0"/>
      </contour>
    </TTGlyph>
    <TTGlyph name="breve" xMin="185" yMin="630" xMax="449" yMax="758">
      <contour>
        <pt x="215" y="753" on="1"/>
        <pt x="230" y="724" on="0"/>
        <pt x="265" y="693" on="0"/>
        <pt x="279" y="685" on="1"/>
        <pt x="296" y="676" on="0"/>
        <pt x="313" y="675" on="1"/>
        <pt x="330" y="676" on="0"/>
        <pt x="348" y="685" on="1"/>
        <pt x="363" y="693" on="0"/>
        <pt x="401" y="726" on="0"/>
        <pt x="420" y="758" on="1"/>
        <pt x="449" y="734" on="1"/>
        <pt x="424" y="695" on="0"/>
        <pt x="375" y="653" on="0"/>
        <pt x="355" y="643" on="1"/>
        <pt x="331" y="632" on="0"/>
        <pt x="310" y="630" on="1"/>
        <pt x="289" y="632" on="0"/>
        <pt x="267" y="643" on="1"/>
        <pt x="248" y="653" on="0"/>
        <pt x="205" y="693" on="0"/>
        <pt x="185" y="731" on="1"/>
        <pt x="215" y="753" on="1"/>
      </contour>
    </TTGlyph>
    <TTGlyph name="brokenbar" xMin="46" yMin="-40" xMax="119" yMax="720">
      <contour>
        <pt x="55" y="399" on="1"/>
        <pt x="55" y="435" on="0"/>
        <pt x="59" y="496" on="0"/>
        <pt x="59" y="565" on="0"/>
        <pt x="54" y="654" on="0"/>
        <pt x="46" y="719" on="1"/>
        <pt x="100" y="720" on="1"/>
        <pt x="100" y="628" on="0"/>
        <pt x="110" y="464" on="0"/>
        <pt x="116" y="398" on="1"/>
      </contour>
      <contour>
        <pt x="47" y="280" on="1"/>
        <pt x="67" y="278" on="0"/>
        <pt x="96" y="276" on="0"/>
        <pt x="105" y="282" on="1"/>
        <pt x="105" y="266" on="0"/>
        <pt x="107" y="185" on="0"/>
        <pt x="110" y="88" on="0"/>
        <pt x="115" y="-6" on="0"/>
        <pt x="119" y="-34" on="1"/>
        <pt x="58" y="-40" on="1"/>
        <pt x="55" y="8" on="0"/>
        <pt x="53" y="98" on="0"/>
        <pt x="52" y="180" on="0"/>
        <pt x="50" y="251" on="0"/>
      </contour>
    </TTGlyph>
    <TTGlyph name="bullet" xMin="28" yMin="267" xMax="196" yMax="450">
      <contour>
        <pt x="142" y="444" on="1"/>
        <pt x="157" y="439" on="0"/>
        <pt x="179" y="415" on="0"/>
        <pt x="192" y="386" on="0"/>
        <pt x="196" y="354" on="0"/>
        <pt x="194" y="341" on="1"/>
        <pt x="191" y="326" on="0"/>
        <pt x="177" y="298" on="0"/>
        <pt x="154" y="277" on="0"/>
        <pt x="123" y="267" on="0"/>
        <pt x="103" y="270" on="1"/>
        <pt x="85" y="273" on="0"/>
        <pt x="55" y="290" on="0"/>
        <pt x="35" y="317" on="0"/>
        <pt x="28" y="354" on="0"/>
        <pt x="35" y="378" on="1"/>
        <pt x="39" y="394" on="0"/>
        <pt x="61" y="424" on="0"/>
        <pt x="90" y="444" on="0"/>
        <pt x="125" y="450" on="0"/>
      </contour>
    </TTGlyph>
    <TTGlyph name="c" xMin="32" yMin="-9" xMax="481" yMax="566">
      <contour>
        <pt x="294" y="508" on="1"/>
        <pt x="251" y="508" on="0"/>
        <pt x="192" y="469" on="0"/>
        <pt x="156" y="403" on="0"/>
        <pt x="140" y="317" on="0"/>
        <pt x="142" y="270" on="1"/>
        <pt x="146" y="165" on="0"/>
        <pt x="222" y="42" on="0"/>
        <pt x="286" y="42" on="1"/>
        <pt x="322" y="42" on="0"/>
        <pt x="378" y="70" on="0"/>
        <pt x="417" y="109" on="0"/>
        <pt x="439" y="152" on="0"/>
        <pt x="440" y="166" on="1"/>
        <pt x="464" y="166" on="1"/>
        <pt x="459" y="135" on="0"/>
        <pt x="426" y="72" on="0"/>
        <pt x="370" y="21" on="0"/>
        <pt x="294" y="-9" on="0"/>
        <pt x="247" y="-6" on="1"/>
        <pt x="187" y="-2" on="0"/>
        <pt x="102" y="59" on="0"/>
        <pt x="50" y="152" on="0"/>
        <pt x="32" y="265" on="0"/>
        <pt x="39" y="319" on="1"/>
        <pt x="45" y="373" on="0"/>
        <pt x="83" y="459" on="0"/>
        <pt x="139" y="519" on="0"/>
        <pt x="210" y="551" on="0"/>
        <pt x="250" y="552" on="1"/>
        <pt x="281" y="554" on="0"/>
        <pt x="349" y="529" on="0"/>
        <pt x="382" y="512" on="1"/>
        <pt x="414" y="495" on="0"/>
        <pt x="448" y="513" on="0"/>
        <pt x="459" y="565" on="1"/>
        <pt x="481" y="566" on="1"/>
        <pt x="476" y="327" on="1"/>
        <pt x="452" y="319" on="1"/>
        <pt x="449" y="342" on="0"/>
        <pt x="429" y="407" on="0"/>
        <pt x="391" y="466" on="0"/>
        <pt x="333" y="508" on="0"/>
      </contour>
    </TTGlyph>
    <TTGlyph name="caron" xMin="187" yMin="614" xMax="446" yMax="764">
      <contour>
        <pt x="318" y="614" on="1"/>
        <pt x="289" y="645" on="0"/>
        <pt x="219" y="699" on="0"/>
        <pt x="187" y="718" on="1"/>
        <pt x="206" y="758" on="1"/>
        <pt x="238" y="746" on="0"/>
        <pt x="298" y="697" on="0"/>
        <pt x="321" y="672" on="1"/>
        <pt x="417" y="764" on="1"/>
        <pt x="446" y="722" on="1"/>
        <pt x="407" y="692" on="0"/>
        <pt x="357" y="651" on="0"/>
        <pt x="343" y="638" on="1"/>
        <pt x="326" y="623" on="0"/>
      </contour>
    </TTGlyph>
    <TTGlyph name="ccedilla" xMin="33" yMin="-216" xMax="481" yMax="566">
      <contour>
        <pt x="299" y="-54" on="1"/>
        <pt x="314" y="-53" on="0"/>
        <pt x="342" y="-54" on="0"/>
        <pt x="363" y="-64" on="0"/>
        <pt x="377" y="-86" on="0"/>
        <pt x="379" y="-106" on="1"/>
        <pt x="381" y="-127" on="0"/>
        <pt x="367" y="-167" on="0"/>
        <pt x="342" y="-198" on="0"/>
        <pt x="308" y="-216" on="0"/>
        <pt x="289" y="-215" on="1"/>
        <pt x="251" y="-212" on="0"/>
        <pt x="213" y="-166" on="0"/>
        <pt x="208" y="-137" on="1"/>
        <pt x="226" y="-155" on="0"/>
        <pt x="269" y="-174" on="0"/>
        <pt x="290" y="-169" on="1"/>
        <pt x="303" y="-166" on="0"/>
        <pt x="326" y="-136" on="0"/>
        <pt x="332" y="-105" on="0"/>
        <pt x="313" y="-81" on="0"/>
        <pt x="286" y="-84" on="1"/>
        <pt x="260" y="-86" on="0"/>
        <pt x="231" y="-76" on="0"/>
        <pt x="218" y="-55" on="0"/>
        <pt x="218" y="-23" on="0"/>
        <pt x="222" y="-3" on="1"/>
        <pt x="169" y="7" on="0"/>
        <pt x="94" y="71" on="0"/>
        <pt x="49" y="161" on="0"/>
        <pt x="33" y="267" on="0"/>
        <pt x="39" y="319" on="1"/>
        <pt x="45" y="373" on="0"/>
        <pt x="83" y="459" on="0"/>
        <pt x="139" y="519" on="0"/>
        <pt x="210" y="551" on="0"/>
        <pt x="250" y="553" on="1"/>
        <pt x="281" y="554" on="0"/>
        <pt x="349" y="529" on="0"/>
        <pt x="382" y="512" on="1"/>
        <pt x="414" y="495" on="0"/>
        <pt x="448" y="513" on="0"/>
        <pt x="459" y="565" on="1"/>
        <pt x="481" y="566" on="1"/>
        <pt x="476" y="327" on="1"/>
        <pt x="452" y="319" on="1"/>
        <pt x="449" y="342" on="0"/>
        <pt x="429" y="407" on="0"/>
        <pt x="391" y="466" on="0"/>
        <pt x="333" y="508" on="0"/>
        <pt x="294" y="508" on="1"/>
        <pt x="252" y="508" on="0"/>
        <pt x="192" y="469" on="0"/>
        <pt x="156" y="403" on="0"/>
        <pt x="140" y="317" on="0"/>
        <pt x="142" y="270" on="1"/>
        <pt x="146" y="165" on="0"/>
        <pt x="222" y="42" on="0"/>
        <pt x="286" y="42" on="1"/>
        <pt x="322" y="42" on="0"/>
        <pt x="378" y="70" on="0"/>
        <pt x="417" y="109" on="0"/>
        <pt x="439" y="152" on="0"/>
        <pt x="440" y="166" on="1"/>
        <pt x="464" y="166" on="1"/>
        <pt x="459" y="138" on="0"/>
        <pt x="430" y="79" on="0"/>
        <pt x="383" y="30" on="0"/>
        <pt x="318" y="-3" on="0"/>
        <pt x="278" y="-6" on="1"/>
        <pt x="274" y="-15" on="0"/>
        <pt x="270" y="-33" on="0"/>
        <pt x="273" y="-47" on="0"/>
        <pt x="286" y="-55" on="0"/>
      </contour>
    </TTGlyph>
    <TTGlyph name="cedilla" xMin="231" yMin="-180" xMax="404" yMax="45">
      <contour>
        <pt x="323" y="-18" on="1"/>
        <pt x="338" y="-17" on="0"/>
        <pt x="365" y="-18" on="0"/>
        <pt x="386" y="-28" on="0"/>
        <pt x="399" y="-50" on="0"/>
        <pt x="401" y="-71" on="1"/>
        <pt x="404" y="-91" on="0"/>
        <pt x="391" y="-131" on="0"/>
        <pt x="365" y="-162" on="0"/>
        <pt x="331" y="-180" on="0"/>
        <pt x="312" y="-179" on="1"/>
        <pt x="274" y="-176" on="0"/>
        <pt x="237" y="-130" on="0"/>
        <pt x="231" y="-101" on="1"/>
        <pt x="250" y="-119" on="0"/>
        <pt x="293" y="-138" on="0"/>
        <pt x="313" y="-133" on="1"/>
        <pt x="326" y="-130" on="0"/>
        <pt x="349" y="-100" on="0"/>
        <pt x="354" y="-69" on="0"/>
        <pt x="336" y="-45" on="0"/>
        <pt x="309" y="-48" on="1"/>
        <pt x="282" y="-50" on="0"/>
        <pt x="252" y="-39" on="0"/>
        <pt x="240" y="-15" on="0"/>
        <pt x="243" y="21" on="0"/>
        <pt x="248" y="43" on="1"/>
        <pt x="307" y="45" on="1"/>
        <pt x="302" y="34" on="0"/>
        <pt x="294" y="11" on="0"/>
        <pt x="295" y="-8" on="0"/>
        <pt x="307" y="-20" on="0"/>
      </contour>
    </TTGlyph>
    <TTGlyph name="cent" xMin="8" yMin="-22" xMax="369" yMax="756">
      <contour>
        <pt x="279" y="429" on="1"/>
        <pt x="280" y="463" on="0"/>
        <pt x="279" y="524" on="0"/>
        <pt x="271" y="570" on="0"/>
        <pt x="254" y="599" on="0"/>
        <pt x="240" y="600" on="1"/>
        <pt x="226" y="601" on="0"/>
        <pt x="184" y="578" on="0"/>
        <pt x="142" y="531" on="0"/>
        <pt x="106" y="459" on="0"/>
        <pt x="96" y="410" on="1"/>
        <pt x="88" y="369" on="0"/>
        <pt x="91" y="282" on="0"/>
        <pt x="111" y="208" on="0"/>
        <pt x="150" y="158" on="0"/>
        <pt x="178" y="154" on="1"/>
        <pt x="198" y="151" on="0"/>
        <pt x="238" y="163" on="0"/>
        <pt x="273" y="188" on="0"/>
        <pt x="300" y="223" on="0"/>
        <pt x="307" y="242" on="1"/>
        <pt x="341" y="221" on="1"/>
        <pt x="336" y="211" on="0"/>
        <pt x="314" y="169" on="0"/>
        <pt x="274" y="129" on="0"/>
        <pt x="215" y="101" on="0"/>
        <pt x="175" y="104" on="1"/>
        <pt x="170" y="90" on="0"/>
        <pt x="159" y="47" on="0"/>
        <pt x="154" y="27" on="1"/>
        <pt x="148" y="3" on="0"/>
        <pt x="141" y="-22" on="1"/>
        <pt x="102" y="-10" on="1"/>
        <pt x="112" y="22" on="0"/>
        <pt x="123" y="70" on="0"/>
        <pt x="126" y="85" on="1"/>
        <pt x="130" y="103" on="0"/>
        <pt x="130" y="114" on="1"/>
        <pt x="91" y="129" on="0"/>
        <pt x="41" y="192" on="0"/>
        <pt x="14" y="268" on="0"/>
        <pt x="8" y="350" on="0"/>
        <pt x="13" y="385" on="1"/>
        <pt x="19" y="424" on="0"/>
        <pt x="53" y="511" on="0"/>
        <pt x="104" y="585" on="0"/>
        <pt x="172" y="638" on="0"/>
        <pt x="211" y="644" on="1"/>
        <pt x="214" y="654" on="0"/>
        <pt x="218" y="671" on="1"/>
        <pt x="221" y="685" on="0"/>
        <pt x="229" y="727" on="0"/>
        <pt x="234" y="756" on="1"/>
        <pt x="282" y="749" on="1"/>
        <pt x="259" y="642" on="1"/>
        <pt x="271" y="639" on="0"/>
        <pt x="290" y="623" on="0"/>
        <pt x="296" y="612" on="1"/>
        <pt x="297" y="613" on="1"/>
        <pt x="300" y="607" on="1"/>
        <pt x="301" y="605" on="0"/>
        <pt x="303" y="601" on="0"/>
        <pt x="304" y="599" on="1"/>
        <pt x="308" y="593" on="0"/>
        <pt x="318" y="586" on="0"/>
        <pt x="329" y="593" on="0"/>
        <pt x="341" y="621" on="0"/>
        <pt x="347" y="649" on="1"/>
        <pt x="354" y="646" on="0"/>
        <pt x="362" y="646" on="1"/>
        <pt x="366" y="646" on="0"/>
        <pt x="369" y="647" on="1"/>
        <pt x="316" y="428" on="1"/>
      </contour>
    </TTGlyph>
    <TTGlyph name="circumflex" xMin="187" yMin="614" xMax="446" yMax="764">
      <contour>
        <pt x="315" y="764" on="1"/>
        <pt x="345" y="732" on="0"/>
        <pt x="414" y="678" on="0"/>
        <pt x="446" y="660" on="1"/>
        <pt x="428" y="620" on="1"/>
        <pt x="396" y="631" on="0"/>
        <pt x="336" y="682" on="0"/>
        <pt x="313" y="706" on="1"/>
        <pt x="217" y="614" on="1"/>
        <pt x="187" y="655" on="1"/>
        <pt x="226" y="685" on="0"/>
        <pt x="276" y="727" on="0"/>
        <pt x="290" y="740" on="1"/>
        <pt x="307" y="755" on="0"/>
      </contour>
    </TTGlyph>
    <TTGlyph name="colon" xMin="19" yMin="-16" xMax="136" yMax="335">
      <contour>
        <pt x="80" y="333" on="1"/>
        <pt x="103" y="335" on="0"/>
        <pt x="133" y="315" on="0"/>
        <pt x="134" y="293" on="1"/>
        <pt x="136" y="272" on="0"/>
        <pt x="104" y="240" on="0"/>
        <pt x="77" y="239" on="1"/>
        <pt x="58" y="238" on="0"/>
        <pt x="23" y="256" on="0"/>
        <pt x="20" y="278" on="1"/>
        <pt x="19" y="288" on="0"/>
        <pt x="29" y="307" on="0"/>
        <pt x="46" y="322" on="0"/>
        <pt x="68" y="331" on="0"/>
      </contour>
      <contour>
        <pt x="77" y="86" on="1"/>
        <pt x="99" y="88" on="0"/>
        <pt x="132" y="60" on="0"/>
        <pt x="132" y="39" on="1"/>
        <pt x="132" y="17" on="0"/>
        <pt x="100" y="-13" on="0"/>
        <pt x="77" y="-14" on="1"/>
        <pt x="54" y="-16" on="0"/>
        <pt x="22" y="12" on="0"/>
        <pt x="22" y="33" on="1"/>
        <pt x="22" y="53" on="0"/>
        <pt x="54" y="85" on="0"/>
      </contour>
    </TTGlyph>
    <TTGlyph name="comma" xMin="20" yMin="-83" xMax="137" yMax="89">
      <contour>
        <pt x="75" y="87" on="1"/>
        <pt x="97" y="89" on="0"/>
        <pt x="128" y="62" on="0"/>
        <pt x="133" y="40" on="1"/>
        <pt x="137" y="21" on="0"/>
        <pt x="131" y="-20" on="0"/>
        <pt x="110" y="-55" on="0"/>
        <pt x="73" y="-80" on="0"/>
        <pt x="45" y="-83" on="1"/>
        <pt x="38" y="-58" on="1"/>
        <pt x="52" y="-55" on="0"/>
        <pt x="86" y="-35" on="0"/>
        <pt x="92" y="-10" on="1"/>
        <pt x="84" y="-13" on="0"/>
        <pt x="76" y="-13" on="1"/>
        <pt x="53" y="-15" on="0"/>
        <pt x="20" y="13" on="0"/>
        <pt x="20" y="34" on="1"/>
        <pt x="20" y="54" on="0"/>
        <pt x="52" y="86" on="0"/>
      </contour>
    </TTGlyph>
    <TTGlyph name="copyright" xMin="28" yMin="189" xMax="580" yMax="743">
      <contour>
        <pt x="339" y="740" on="1"/>
        <pt x="395" y="738" on="0"/>
        <pt x="487" y="680" on="0"/>
        <pt x="550" y="592" on="0"/>
        <pt x="580" y="486" on="0"/>
        <pt x="575" y="436" on="1"/>
        <pt x="571" y="386" on="0"/>
        <pt x="524" y="296" on="0"/>
        <pt x="449" y="228" on="0"/>
        <pt x="350" y="189" on="0"/>
        <pt x="294" y="191" on="1"/>
        <pt x="250" y="192" on="0"/>
        <pt x="155" y="227" on="0"/>
        <pt x="77" y="296" on="0"/>
        <pt x="28" y="402" on="0"/>
        <pt x="31" y="476" on="1"/>
        <pt x="34" y="548" on="0"/>
        <pt x="91" y="651" on="0"/>
        <pt x="178" y="715" on="0"/>
        <pt x="286" y="743" on="0"/>
      </contour>
      <contour>
        <pt x="303" y="225" on="1"/>
        <pt x="345" y="223" on="0"/>
        <pt x="425" y="258" on="0"/>
        <pt x="487" y="326" on="0"/>
        <pt x="519" y="427" on="0"/>
        <pt x="513" y="492" on="1"/>
        <pt x="507" y="550" on="0"/>
        <pt x="456" y="631" on="0"/>
        <pt x="387" y="681" on="0"/>
        <pt x="314" y="702" on="0"/>
        <pt x="287" y="701" on="1"/>
        <pt x="245" y="699" on="0"/>
        <pt x="172" y="661" on="0"/>
        <pt x="118" y="598" on="0"/>
        <pt x="85" y="515" on="0"/>
        <pt x="84" y="468" on="1"/>
        <pt x="82" y="421" on="0"/>
        <pt x="115" y="335" on="0"/>
        <pt x="175" y="268" on="0"/>
        <pt x="256" y="227" on="0"/>
      </contour>
      <contour>
        <pt x="355" y="486" on="1"/>
        <pt x="357" y="500" on="0"/>
        <pt x="358" y="538" on="0"/>
        <pt x="351" y="571" on="0"/>
        <pt x="334" y="595" on="0"/>
        <pt x="319" y="595" on="1"/>
        <pt x="289" y="597" on="0"/>
        <pt x="250" y="534" on="0"/>
        <pt x="243" y="477" on="1"/>
        <pt x="239" y="448" on="0"/>
        <pt x="238" y="394" on="0"/>
        <pt x="249" y="351" on="0"/>
        <pt x="273" y="323" on="0"/>
        <pt x="294" y="322" on="1"/>
        <pt x="315" y="320" on="0"/>
        <pt x="353" y="337" on="0"/>
        <pt x="385" y="362" on="0"/>
        <pt x="408" y="392" on="0"/>
        <pt x="413" y="403" on="1"/>
        <pt x="431" y="396" on="1"/>
        <pt x="428" y="391" on="0"/>
        <pt x="406" y="354" on="0"/>
        <pt x="368" y="315" on="0"/>
        <pt x="314" y="289" on="0"/>
        <pt x="280" y="296" on="1"/>
        <pt x="245" y="302" on="0"/>
        <pt x="202" y="343" on="0"/>
        <pt x="180" y="401" on="0"/>
        <pt x="177" y="469" on="0"/>
        <pt x="183" y="503" on="1"/>
        <pt x="190" y="537" on="0"/>
        <pt x="216" y="588" on="0"/>
        <pt x="249" y="623" on="0"/>
        <pt x="286" y="641" on="0"/>
        <pt x="303" y="641" on="1"/>
        <pt x="336" y="641" on="0"/>
        <pt x="370" y="607" on="0"/>
        <pt x="392" y="571" on="0"/>
        <pt x="417" y="547" on="0"/>
        <pt x="441" y="557" on="1"/>
        <pt x="430" y="549" on="0"/>
        <pt x="409" y="529" on="0"/>
        <pt x="391" y="508" on="0"/>
        <pt x="378" y="488" on="0"/>
        <pt x="376" y="481" on="1"/>
      </contour>
    </TTGlyph>
    <TTGlyph name="currency" xMin="36" yMin="113" xMax="423" yMax="573">
      <contour>
        <pt x="409" y="355" on="1"/>
        <pt x="410" y="323" on="0"/>
        <pt x="392" y="258" on="0"/>
        <pt x="375" y="231" on="1"/>
        <pt x="423" y="167" on="1"/>
        <pt x="384" y="135" on="1"/>
        <pt x="337" y="191" on="1"/>
        <pt x="317" y="177" on="0"/>
        <pt x="268" y="162" on="0"/>
        <pt x="237" y="163" on="1"/>
        <pt x="181" y="163" on="0"/>
        <pt x="138" y="193" on="1"/>
        <pt x="91" y="113" on="1"/>
        <pt x="44" y="154" on="1"/>
        <pt x="101" y="227" on="1"/>
        <pt x="84" y="249" on="0"/>
        <pt x="63" y="308" on="0"/>
        <pt x="62" y="343" on="1"/>
        <pt x="62" y="375" on="0"/>
        <pt x="84" y="433" on="0"/>
        <pt x="101" y="456" on="1"/>
        <pt x="36" y="525" on="1"/>
        <pt x="79" y="561" on="1"/>
        <pt x="132" y="487" on="1"/>
        <pt x="159" y="510" on="0"/>
        <pt x="222" y="535" on="0"/>
        <pt x="251" y="534" on="1"/>
        <pt x="292" y="531" on="0"/>
        <pt x="325" y="510" on="1"/>
        <pt x="378" y="573" on="1"/>
        <pt x="414" y="541" on="1"/>
        <pt x="361" y="478" on="1"/>
        <pt x="383" y="453" on="0"/>
        <pt x="409" y="390" on="0"/>
      </contour>
      <contour>
        <pt x="229" y="215" on="1"/>
        <pt x="256" y="214" on="0"/>
        <pt x="298" y="239" on="0"/>
        <pt x="326" y="280" on="0"/>
        <pt x="341" y="333" on="0"/>
        <pt x="341" y="360" on="1"/>
        <pt x="341" y="387" on="0"/>
        <pt x="324" y="431" on="0"/>
        <pt x="296" y="462" on="0"/>
        <pt x="261" y="478" on="0"/>
        <pt x="243" y="478" on="1"/>
        <pt x="218" y="478" on="0"/>
        <pt x="177" y="449" on="0"/>
        <pt x="148" y="407" on="0"/>
        <pt x="132" y="358" on="0"/>
        <pt x="132" y="339" on="1"/>
        <pt x="132" y="319" on="0"/>
        <pt x="142" y="276" on="0"/>
        <pt x="165" y="240" on="0"/>
        <pt x="202" y="216" on="0"/>
      </contour>
    </TTGlyph>
</ttFont>
